<svg xmlns="http://www.w3.org/2000/svg" viewBox="0 0 760 380" style="background:#fafaf7;font-family:'Inter',ui-sans-serif,system-ui;width:100%;height:auto;display:block;">
<defs><clipPath id="ts-clip"><rect x="92" y="32" width="644" height="292"/></clipPath></defs>
<text x="380.0" y="20" text-anchor="middle" font-size="13" font-weight="700" fill="#1a1612">Basin cumulative ΔStorage (27-polygon network), shaded by hydrologic condition</text>
<rect x="129.2" y="32" width="24.8" height="292" fill="#c75a35" fill-opacity="0.26"/>
<rect x="153.9" y="32" width="24.8" height="292" fill="#c75a35" fill-opacity="0.26"/>
<rect x="203.5" y="32" width="24.8" height="292" fill="#d99a4f" fill-opacity="0.2"/>
<rect x="277.8" y="32" width="24.8" height="292" fill="#c75a35" fill-opacity="0.26"/>
<rect x="302.5" y="32" width="24.8" height="292" fill="#a32d2d" fill-opacity="0.32"/>
<rect x="327.3" y="32" width="24.8" height="292" fill="#c75a35" fill-opacity="0.26"/>
<rect x="352.1" y="32" width="24.8" height="292" fill="#d99a4f" fill-opacity="0.2"/>
<rect x="401.6" y="32" width="24.8" height="292" fill="#d99a4f" fill-opacity="0.2"/>
<rect x="426.4" y="32" width="24.8" height="292" fill="#c75a35" fill-opacity="0.26"/>
<rect x="451.2" y="32" width="24.8" height="292" fill="#a32d2d" fill-opacity="0.32"/>
<rect x="475.9" y="32" width="24.8" height="292" fill="#a32d2d" fill-opacity="0.32"/>
<rect x="500.7" y="32" width="24.8" height="292" fill="#d99a4f" fill-opacity="0.2"/>
<rect x="550.2" y="32" width="24.8" height="292" fill="#d99a4f" fill-opacity="0.2"/>
<rect x="599.8" y="32" width="24.8" height="292" fill="#c75a35" fill-opacity="0.26"/>
<rect x="624.5" y="32" width="24.8" height="292" fill="#a32d2d" fill-opacity="0.32"/>
<rect x="649.3" y="32" width="24.8" height="292" fill="#a32d2d" fill-opacity="0.32"/>
<line x1="92" y1="324.0" x2="736" y2="324.0" stroke="#e7e1cf" stroke-width="0.5"/>
<text x="84" y="327.0" text-anchor="end" font-size="10" fill="#5b5547">-550,000</text>
<line x1="92" y1="301.5" x2="736" y2="301.5" stroke="#e7e1cf" stroke-width="0.5"/>
<text x="84" y="304.5" text-anchor="end" font-size="10" fill="#5b5547">-500,000</text>
<line x1="92" y1="279.1" x2="736" y2="279.1" stroke="#e7e1cf" stroke-width="0.5"/>
<text x="84" y="282.1" text-anchor="end" font-size="10" fill="#5b5547">-450,000</text>
<line x1="92" y1="256.6" x2="736" y2="256.6" stroke="#e7e1cf" stroke-width="0.5"/>
<text x="84" y="259.6" text-anchor="end" font-size="10" fill="#5b5547">-400,000</text>
<line x1="92" y1="234.2" x2="736" y2="234.2" stroke="#e7e1cf" stroke-width="0.5"/>
<text x="84" y="237.2" text-anchor="end" font-size="10" fill="#5b5547">-350,000</text>
<line x1="92" y1="211.7" x2="736" y2="211.7" stroke="#e7e1cf" stroke-width="0.5"/>
<text x="84" y="214.7" text-anchor="end" font-size="10" fill="#5b5547">-300,000</text>
<line x1="92" y1="189.2" x2="736" y2="189.2" stroke="#e7e1cf" stroke-width="0.5"/>
<text x="84" y="192.2" text-anchor="end" font-size="10" fill="#5b5547">-250,000</text>
<line x1="92" y1="166.8" x2="736" y2="166.8" stroke="#e7e1cf" stroke-width="0.5"/>
<text x="84" y="169.8" text-anchor="end" font-size="10" fill="#5b5547">-200,000</text>
<line x1="92" y1="144.3" x2="736" y2="144.3" stroke="#e7e1cf" stroke-width="0.5"/>
<text x="84" y="147.3" text-anchor="end" font-size="10" fill="#5b5547">-150,000</text>
<line x1="92" y1="121.8" x2="736" y2="121.8" stroke="#e7e1cf" stroke-width="0.5"/>
<text x="84" y="124.8" text-anchor="end" font-size="10" fill="#5b5547">-100,000</text>
<line x1="92" y1="99.4" x2="736" y2="99.4" stroke="#e7e1cf" stroke-width="0.5"/>
<text x="84" y="102.4" text-anchor="end" font-size="10" fill="#5b5547">-50,000</text>
<line x1="92" y1="76.9" x2="736" y2="76.9" stroke="#e7e1cf" stroke-width="0.5"/>
<text x="84" y="79.9" text-anchor="end" font-size="10" fill="#5b5547">0</text>
<line x1="92" y1="54.5" x2="736" y2="54.5" stroke="#e7e1cf" stroke-width="0.5"/>
<text x="84" y="57.5" text-anchor="end" font-size="10" fill="#5b5547">50,000</text>
<line x1="92" y1="32.0" x2="736" y2="32.0" stroke="#e7e1cf" stroke-width="0.5"/>
<text x="84" y="35.0" text-anchor="end" font-size="10" fill="#5b5547">100,000</text>
<line x1="92" y1="76.9" x2="736" y2="76.9" stroke="#5b5547" stroke-width="0.8"/>
<line x1="116.8" y1="324" x2="116.8" y2="328" stroke="#5b5547" stroke-width="0.5"/>
<text x="116.8" y="342" text-anchor="middle" font-size="10" fill="#5b5547">2000</text>
<line x1="240.6" y1="324" x2="240.6" y2="328" stroke="#5b5547" stroke-width="0.5"/>
<text x="240.6" y="342" text-anchor="middle" font-size="10" fill="#5b5547">2005</text>
<line x1="364.5" y1="324" x2="364.5" y2="328" stroke="#5b5547" stroke-width="0.5"/>
<text x="364.5" y="342" text-anchor="middle" font-size="10" fill="#5b5547">2010</text>
<line x1="488.3" y1="324" x2="488.3" y2="328" stroke="#5b5547" stroke-width="0.5"/>
<text x="488.3" y="342" text-anchor="middle" font-size="10" fill="#5b5547">2015</text>
<line x1="612.2" y1="324" x2="612.2" y2="328" stroke="#5b5547" stroke-width="0.5"/>
<text x="612.2" y="342" text-anchor="middle" font-size="10" fill="#5b5547">2020</text>
<line x1="736.0" y1="324" x2="736.0" y2="328" stroke="#5b5547" stroke-width="0.5"/>
<text x="736.0" y="342" text-anchor="middle" font-size="10" fill="#5b5547">2025</text>
<text x="22" y="178.0" transform="rotate(-90,22,178.0)" text-anchor="middle" font-size="11" fill="#5b5547" font-weight="600">Cumulative storage change (AF)</text>
<polyline points="92.0,76.9 116.8,75.2 141.5,74.7 166.3,75.1 191.1,65.6 215.8,56.1 240.6,47.7 265.4,43.4 290.2,73.1 314.9,65.9 339.7,98.9 364.5,108.3 389.2,116.2 414.0,135.4 438.8,154.6 463.5,190.6 488.3,212.7 513.1,225.6 537.8,188.3 562.6,218.4 587.4,190.5 612.2,226.9 636.9,281.0 661.7,317.8 686.5,277.6 711.2,245.2 736.0,235.6" fill="none" stroke="#1f3a5f" stroke-width="2.4" clip-path="url(#ts-clip)"/>
<circle cx="736.0" cy="235.6" r="3.2" fill="#1f3a5f"/>
<text x="730.0" y="227.6" text-anchor="end" font-size="11" font-weight="700" fill="#1f3a5f">-353,193 AF</text>
<polyline points="92.0,76.9 116.8,61.2 141.5,82.6 166.3,104.1 191.1,88.3 215.8,101.3 240.6,85.5 265.4,60.6 290.2,82.1 314.9,112.9 339.7,134.4 364.5,147.3 389.2,122.4 414.0,135.3 438.8,156.8 463.5,187.6 488.3,218.4 513.1,231.3 537.8,206.5 562.6,219.4 587.4,194.5 612.2,216.0 636.9,246.8 661.7,277.6 686.5,252.7 711.2,236.9 736.0,221.2" fill="none" stroke="#7c4a86" stroke-width="2.0" stroke-dasharray="6,4" clip-path="url(#ts-clip)"/>
<circle cx="736.0" cy="221.2" r="3.0" fill="#7c4a86"/>
<text x="730.0" y="235.2" text-anchor="end" font-size="11" font-weight="700" fill="#7c4a86">-321,098 AF (normalized)</text>
<g transform="translate(100,208)">
<rect x="-8" y="-22" width="320" height="132" fill="#fafaf7" fill-opacity="0.92" stroke="#cfc9b8" stroke-width="0.5" rx="2"/>
<line x1="0" y1="-10" x2="22" y2="-10" stroke="#1f3a5f" stroke-width="2.4"/>
<text x="28" y="-7" font-size="11" fill="#1a1612"><tspan font-weight="700">Observed</tspan> (years each polygon measured)</text>
<line x1="0" y1="7" x2="22" y2="7" stroke="#7c4a86" stroke-width="2.0" stroke-dasharray="6,4"/>
<text x="28" y="11" font-size="11" fill="#1a1612"><tspan font-weight="700">Normalized</tspan> (year-type-weighted backcast)</text>
<rect x="0" y="20" width="22" height="10" fill="#a32d2d" fill-opacity="0.32"/>
<text x="28" y="29" font-size="11" fill="#1a1612">Critical</text>
<rect x="0" y="36" width="22" height="10" fill="#c75a35" fill-opacity="0.26"/>
<text x="28" y="45" font-size="11" fill="#1a1612">Dry</text>
<rect x="0" y="52" width="22" height="10" fill="#d99a4f" fill-opacity="0.2"/>
<text x="28" y="61" font-size="11" fill="#1a1612">Below Normal</text>
<rect x="0" y="68" width="22" height="10" fill="#fafaf7" stroke="#cfc9b8" stroke-width="0.5"/>
<text x="28" y="77" font-size="11" fill="#1a1612">Wet / Above N.</text>
</g>
</svg>