<svg xmlns="http://www.w3.org/2000/svg" viewBox="0 0 700 1080" style="background:#fafaf7;font-family:ui-sans-serif,system-ui;width:100%;height:auto;display:block;">
<defs><style>.poly{stroke:#5b5547;stroke-width:0.7;cursor:pointer;fill-rule:evenodd;}.poly:hover{stroke-width:2;filter:brightness(1.05);}.well{fill:#1f1f1f;pointer-events:none;}.label{font-size:8.5px;fill:#332e22;text-anchor:middle;font-weight:500;pointer-events:none;}.title{font-size:13px;font-weight:700;fill:#1a1612;text-anchor:middle;}.subtitle{font-size:11px;fill:#5b5547;text-anchor:middle;font-style:italic;}.legend-text{font-size:10.5px;fill:#332e22;}.legend-title{font-size:11px;font-weight:700;fill:#1a1612;}.legend-bg{fill:#fafaf7;fill-opacity:0.97;stroke:#cfc9b8;stroke-width:0.6;}</style></defs>
<text class="title" x="350.0" y="18">SCNY region RMS network (27 polygons) — Observed avg storage loss rate (AF/yr)</text>
<text class="subtitle" x="350.0" y="32">Click any polygon for detail. Color = polygon avg loss rate (positive = losing storage).</text>
<path d="M 212.9,428.0 L 197.7,428.1 L 195.7,434.0 L 206.5,433.8 L 206.5,435.3 L 197.2,445.9 L 171.2,459.7 L 138.8,459.0 L 139.2,439.4 L 138.6,439.3 L 130.3,439.3 L 130.3,445.4 L 135.5,445.4 L 135.2,446.5 L 132.8,449.2 L 132.7,454.8 L 130.1,454.7 L 130.3,458.7 L 126.7,458.7 L 126.6,457.9 L 123.4,457.9 L 123.3,456.3 L 120.8,456.3 L 120.9,455.5 L 117.4,455.6 L 117.3,453.4 L 116.1,453.4 L 116.1,449.0 L 120.2,449.0 L 120.2,439.3 L 111.6,439.3 L 117.2,431.6 L 120.2,431.0 L 120.4,427.2 L 126.7,418.6 L 130.2,418.9 L 130.3,416.2 L 126.9,418.2 L 138.7,402.1 L 138.7,407.3 L 149.0,406.9 L 149.0,402.1 L 138.7,402.1 L 156.7,377.4 L 185.0,377.2 L 189.4,386.5 L 189.4,397.4 L 219.8,397.8 L 219.4,407.8 L 200.3,407.4 L 205.3,417.9 L 219.3,417.9 L 219.4,420.6 L 212.9,428.0 Z M 199.9,417.7 L 192.8,408.9 L 188.0,412.0 L 191.9,417.7 L 199.9,417.7 Z M 183.9,407.4 L 189.3,407.4 L 189.3,397.4 L 176.7,397.4 L 176.7,402.7 L 169.0,402.6 L 169.1,407.4 L 182.2,407.4 L 182.2,408.2 L 183.9,408.2 L 183.9,407.4 Z M 151.5,452.7 L 154.9,452.0 L 156.4,452.3 L 157.1,453.0 L 158.1,452.5 L 159.2,452.8 L 159.7,452.2 L 160.8,451.6 L 161.8,451.3 L 163.0,451.4 L 163.8,451.0 L 163.6,449.2 L 158.5,449.2 L 158.5,446.7 L 153.5,446.8 L 153.4,444.4 L 148.9,444.5 L 149.0,453.2 L 150.3,452.6 L 151.5,452.7 Z M 148.9,418.8 L 138.7,419.0 L 138.6,423.8 L 148.8,423.6 L 148.9,418.8 Z" class="poly" fill="#7c2820" data-short="14N02W29J001M" data-ma="CCWD" data-base-year="1999" data-end-year="2015" data-span="16" data-area="8,085" data-rms-wells="14N02W29J001M" data-sy="0.0729" data-sy-source="SVSim" data-avg-dgwe="-4.96" data-cum-stor="-46,741" data-avg-rate="-2,921" data-critdry-share="71%" data-crit-share="57%" data-bucket-wet="-1,141" data-bucket-an="-4,126" data-bucket-bn="-7,035" data-bucket-dry="-6,737" data-bucket-critical="-27,703" data-hold="2,921" data-project="0" data-project-name="" data-coverage="-2,921" data-late=""><title>Click for 14N02W29J001M detail</title></path>
<path d="M 171.2,459.7 L 208.9,549.3 L 208.8,559.1 L 213.0,559.1 L 216.5,567.4 L 208.6,567.4 L 208.5,578.3 L 190.2,578.5 L 190.3,559.3 L 178.5,559.3 L 178.6,570.5 L 170.5,570.4 L 170.2,559.3 L 169.1,559.3 L 159.0,548.7 L 159.1,544.7 L 155.2,544.7 L 152.8,542.2 L 146.3,529.5 L 146.3,529.1 L 149.2,529.0 L 149.5,509.3 L 139.5,509.4 L 139.5,499.7 L 149.3,499.2 L 149.2,479.3 L 138.8,479.7 L 138.8,459.0 L 171.2,459.7 Z M 159.7,533.0 L 163.3,533.1 L 165.2,530.0 L 165.2,528.5 L 167.2,524.4 L 165.1,524.5 L 163.3,528.6 L 161.8,528.6 L 161.8,530.1 L 159.7,530.2 L 159.7,533.0 Z" class="poly" fill="#cb7740" data-short="13N02W20H002M" data-ma="CCWD" data-base-year="2007" data-end-year="2025" data-span="18" data-area="7,647" data-rms-wells="13N02W20H002M" data-sy="0.0919" data-sy-source="SVSim" data-avg-dgwe="-1.53" data-cum-stor="-19,395" data-avg-rate="-1,078" data-critdry-share="76%" data-crit-share="64%" data-bucket-wet="+425" data-bucket-an="+3,370" data-bucket-bn="-1,476" data-bucket-dry="-492" data-bucket-critical="-21,222" data-hold="1,078" data-project="0" data-project-name="" data-coverage="-1,078" data-late="1"><title>Click for 13N02W20H002M detail</title></path>
<path d="M 294.5,461.0 L 294.7,453.2 L 290.7,453.1 L 290.8,448.6 L 296.5,448.6 L 296.7,457.3 L 294.5,461.0 Z M 256.5,524.9 L 256.6,524.5 L 253.6,524.4 L 197.2,445.9 L 206.5,435.3 L 206.5,438.2 L 214.2,438.1 L 214.2,443.4 L 218.5,443.6 L 216.0,438.6 L 218.3,438.4 L 218.5,428.1 L 212.9,428.0 L 219.4,420.6 L 219.4,422.2 L 229.5,422.2 L 229.5,417.9 L 237.3,418.0 L 237.0,438.3 L 261.1,438.1 L 262.5,436.5 L 267.2,432.9 L 267.2,438.2 L 271.8,438.4 L 271.9,442.1 L 273.5,442.2 L 273.5,438.2 L 286.6,438.3 L 286.6,446.6 L 267.2,446.5 L 267.2,451.4 L 271.0,451.5 L 271.0,452.9 L 286.5,453.1 L 286.5,458.2 L 276.7,458.1 L 276.7,463.0 L 293.4,462.9 L 256.5,524.9 Z M 271.8,483.8 L 276.3,483.8 L 276.3,475.8 L 267.1,475.7 L 267.1,478.5 L 249.5,478.5 L 249.4,487.7 L 271.8,487.6 L 271.8,483.8 Z M 264.1,468.2 L 264.0,465.5 L 259.1,465.6 L 259.2,468.3 L 264.1,468.2 Z M 263.2,458.3 L 263.2,454.3 L 260.0,454.3 L 260.0,458.2 L 263.2,458.3 Z M 256.8,523.3 L 257.9,522.3 L 258.0,521.4 L 258.6,520.5 L 257.9,518.8 L 254.3,518.8 L 254.1,519.0 L 256.8,523.3 Z" class="poly" fill="#cb7740" data-short="13N02W12L001M" data-ma="CCWD" data-base-year="2000" data-end-year="2025" data-span="25" data-area="7,435" data-rms-wells="13N02W12L001M" data-sy="0.0752" data-sy-source="SVSim" data-avg-dgwe="-2.07" data-cum-stor="-28,963" data-avg-rate="-1,158" data-critdry-share="84%" data-crit-share="31%" data-bucket-wet="+10,754" data-bucket-an="+2,591" data-bucket-bn="-6,989" data-bucket-dry="-21,415" data-bucket-critical="-13,904" data-hold="1,159" data-project="0" data-project-name="" data-coverage="-1,159" data-late="1"><title>Click for 13N02W12L001M detail</title></path>
<path d="M 255.4,526.8 L 293.4,462.9 L 294.5,462.9 L 294.5,461.0 L 296.7,457.3 L 296.7,458.1 L 301.4,458.3 L 301.5,478.5 L 327.4,478.9 L 329.0,478.7 L 358.2,505.2 L 366.9,519.3 L 348.5,519.3 L 348.5,522.7 L 351.9,522.7 L 351.8,529.4 L 357.0,529.4 L 356.8,559.8 L 331.5,559.8 L 331.7,541.6 L 336.4,541.5 L 336.2,551.2 L 346.7,551.4 L 347.1,539.8 L 341.1,539.7 L 341.2,529.3 L 331.8,529.3 L 331.6,538.2 L 317.9,538.2 L 317.9,529.7 L 300.8,529.8 L 300.6,544.7 L 306.5,544.7 L 306.5,559.7 L 246.5,559.3 L 255.4,526.8 Z M 347.3,515.1 L 337.0,515.1 L 336.9,519.3 L 347.3,519.4 L 347.3,515.1 Z M 296.2,498.7 L 296.2,483.6 L 286.2,483.5 L 286.3,498.6 L 296.2,498.7 Z M 243.6,570.0 L 243.5,574.9 L 248.5,575.1 L 248.4,578.3 L 247.4,579.0 L 241.1,578.9 L 243.6,570.0 Z" class="poly" fill="#a8c8b0" data-short="13N01W22P002M" data-ma="CCWD" data-base-year="2000" data-end-year="2008" data-span="8" data-area="10,245" data-rms-wells="13N01W22P002M" data-sy="0.0689" data-sy-source="SVSim" data-avg-dgwe="+1.14" data-cum-stor="+6,423" data-avg-rate="+803" data-critdry-share="100%" data-crit-share="-0%" data-bucket-wet="+1,400" data-bucket-an="+2,800" data-bucket-bn="+1,400" data-bucket-dry="-8,988" data-bucket-critical="+9,811" data-hold="0" data-project="0" data-project-name="" data-coverage="+0" data-late="1"><title>Click for 13N01W22P002M detail</title></path>
<path d="M 120.8,418.2 L 116.2,418.1 L 110.8,408.7 L 110.7,409.9 L 107.4,409.9 L 107.5,402.3 L 102.6,402.1 L 102.6,397.3 L 85.7,396.9 L 85.7,392.7 L 82.8,392.7 L 80.7,389.1 L 80.9,376.7 L 73.4,376.6 L 70.7,371.9 L 70.6,366.0 L 80.8,365.9 L 80.8,356.3 L 90.9,356.4 L 90.8,376.5 L 110.8,376.8 L 110.9,360.8 L 149.3,361.3 L 149.3,377.4 L 156.7,377.4 L 126.9,418.2 L 126.3,418.6 L 126.7,418.6 L 120.4,427.2 L 120.8,418.2 Z M 120.8,418.2 L 124.5,418.5 L 124.6,416.0 L 120.8,408.8 L 120.8,418.2 Z M 111.6,439.3 L 110.1,439.3 L 110.4,431.0 L 112.1,431.8 L 114.8,431.6 L 115.7,431.9 L 117.2,431.6 L 111.6,439.3 Z" class="poly" fill="#cb7740" data-short="14N03W24C001M" data-ma="CCWD" data-base-year="2000" data-end-year="2020" data-span="20" data-area="4,548" data-rms-wells="14N03W24C001M" data-sy="0.0758" data-sy-source="SVSim" data-avg-dgwe="-2.43" data-cum-stor="-16,755" data-avg-rate="-838" data-critdry-share="59%" data-crit-share="36%" data-bucket-wet="-534" data-bucket-an="+1,207" data-bucket-bn="-5,223" data-bucket-dry="-4,292" data-bucket-critical="-7,912" data-hold="838" data-project="0" data-project-name="" data-coverage="-838" data-late="1"><title>Click for 14N03W24C001M detail</title></path>
<path d="M 197.2,445.9 L 253.6,524.4 L 249.1,524.2 L 249.0,529.7 L 250.4,528.9 L 253.2,526.1 L 254.6,525.8 L 255.4,526.8 L 246.5,559.3 L 238.7,559.2 L 238.6,564.1 L 243.7,564.2 L 243.6,570.0 L 241.1,578.9 L 229.8,578.8 L 230.0,567.4 L 216.5,567.4 L 213.0,559.1 L 218.9,559.1 L 219.0,538.9 L 209.0,539.0 L 208.9,549.3 L 171.2,459.7 L 197.2,445.9 Z M 239.9,531.1 L 240.7,530.8 L 244.8,530.8 L 245.7,532.4 L 245.9,539.0 L 246.6,539.0 L 246.3,528.9 L 239.3,528.9 L 239.1,532.8 L 239.9,531.1 Z" class="poly" fill="#a84a2c" data-short="13N02W15J001M" data-ma="CCWD" data-base-year="1999" data-end-year="2014" data-span="15" data-area="7,805" data-rms-wells="13N02W15J001M" data-sy="0.0769" data-sy-source="SVSim" data-avg-dgwe="-3.76" data-cum-stor="-33,851" data-avg-rate="-2,257" data-critdry-share="78%" data-crit-share="33%" data-bucket-wet="+6" data-bucket-an="-1,410" data-bucket-bn="-4,916" data-bucket-dry="-15,506" data-bucket-critical="-12,025" data-hold="2,257" data-project="0" data-project-name="" data-coverage="-2,257" data-late=""><title>Click for 13N02W15J001M detail</title></path>
<path d="M 420.0,514.3 L 404.6,464.3 L 476.7,448.9 L 483.4,451.8 L 485.0,453.1 L 488.6,457.2 L 493.4,459.7 L 494.9,460.9 L 495.1,462.4 L 494.3,463.9 L 490.0,468.5 L 488.1,469.8 L 481.7,470.1 L 477.9,470.8 L 472.5,470.8 L 470.0,471.5 L 468.9,472.5 L 468.1,474.2 L 467.7,476.4 L 467.4,485.2 L 467.7,488.8 L 467.2,490.7 L 466.1,491.7 L 461.1,492.7 L 458.9,493.6 L 456.3,495.3 L 454.2,497.4 L 452.9,500.4 L 452.8,503.7 L 453.4,506.4 L 455.4,510.3 L 454.1,512.5 L 451.8,514.8 L 446.8,517.6 L 446.2,518.4 L 446.3,519.2 L 420.0,514.3 Z" class="poly" fill="#f0d9a8" data-short="13N01E11A001M" data-ma="RD108" data-base-year="1999" data-end-year="2025" data-span="26" data-area="5,447" data-rms-wells="13N01E11A001M" data-sy="0.0986" data-sy-source="SVSim" data-avg-dgwe="-0.01" data-cum-stor="-156" data-avg-rate="-6" data-critdry-share="72%" data-crit-share="11%" data-bucket-wet="+4,117" data-bucket-an="+1,571" data-bucket-bn="-892" data-bucket-dry="-4,796" data-bucket-critical="-156" data-hold="6" data-project="0" data-project-name="" data-coverage="-6" data-late=""><title>Click for 13N01E11A001M detail</title></path>
<path d="M 404.6,464.3 L 349.6,368.0 L 368.7,367.9 L 369.1,367.7 L 369.2,366.8 L 374.7,365.3 L 375.7,369.9 L 374.6,370.3 L 374.6,375.4 L 385.2,369.8 L 385.6,371.8 L 391.4,368.8 L 390.9,376.3 L 386.0,377.7 L 379.5,382.9 L 379.4,392.7 L 416.7,393.3 L 416.6,398.4 L 418.7,398.4 L 419.3,401.5 L 419.0,439.0 L 414.0,438.9 L 413.9,444.1 L 429.1,444.2 L 429.3,429.0 L 467.0,429.0 L 460.8,439.0 L 462.8,441.9 L 468.4,447.4 L 470.4,448.5 L 472.5,448.9 L 475.6,448.7 L 476.7,448.9 L 404.6,464.3 Z M 413.9,444.1 L 408.9,444.0 L 408.8,448.9 L 413.8,448.9 L 413.9,444.1 Z" class="poly" fill="#a8c8b0" data-short="14N01E35P003M" data-ma="RD108" data-base-year="2011" data-end-year="2025" data-span="14" data-area="6,575" data-rms-wells="14N01E35P003M" data-sy="0.0783" data-sy-source="SVSim" data-avg-dgwe="+0.03" data-cum-stor="+249" data-avg-rate="+18" data-critdry-share="47%" data-crit-share="12%" data-bucket-wet="+6,587" data-bucket-an="+771" data-bucket-bn="-3,615" data-bucket-dry="-2,579" data-bucket-critical="-915" data-hold="0" data-project="0" data-project-name="" data-coverage="+0" data-late="1"><title>Click for 14N01E35P003M detail</title></path>
<path d="M 404.6,464.3 L 420.0,514.3 L 416.7,518.1 L 368.0,528.3 L 368.1,522.1 L 366.3,519.3 L 366.9,519.3 L 358.2,505.2 L 329.0,478.7 L 326.8,478.7 L 326.8,476.6 L 310.5,458.5 L 306.8,458.4 L 306.8,454.3 L 294.2,440.4 L 293.0,438.5 L 277.9,438.3 L 277.7,408.1 L 317.8,408.1 L 318.0,393.1 L 328.5,392.9 L 328.5,387.9 L 348.5,387.9 L 348.5,382.8 L 353.6,382.9 L 353.7,377.8 L 348.6,377.8 L 348.6,368.0 L 349.6,368.0 L 404.6,464.3 Z" class="poly" fill="#e3a76f" data-short="13N01W13P003M" data-ma="RD108" data-base-year="1999" data-end-year="2025" data-span="26" data-area="16,873" data-rms-wells="13N01W13P003M" data-sy="0.0720" data-sy-source="SVSim" data-avg-dgwe="-0.39" data-cum-stor="-12,188" data-avg-rate="-469" data-critdry-share="60%" data-crit-share="38%" data-bucket-wet="+17,012" data-bucket-an="+2,658" data-bucket-bn="-9,560" data-bucket-dry="-7,425" data-bucket-critical="-14,874" data-hold="469" data-project="0" data-project-name="" data-coverage="-469" data-late=""><title>Click for 13N01W13P003M detail</title></path>
<path d="M 416.7,518.1 L 393.5,628.9 L 382.4,641.5 L 374.6,647.0 L 364.8,630.9 L 365.1,606.2 L 365.0,559.9 L 367.4,553.5 L 368.0,528.3 L 416.7,518.1 Z" class="poly" fill="#e3a76f" data-short="12N01E06D004M" data-ma="RD108" data-base-year="1999" data-end-year="2025" data-span="26" data-area="6,955" data-rms-wells="12N01E06D004M" data-sy="0.0907" data-sy-source="SVSim" data-avg-dgwe="-0.48" data-cum-stor="-7,854" data-avg-rate="-302" data-critdry-share="69%" data-crit-share="35%" data-bucket-wet="+13,893" data-bucket-an="+3,188" data-bucket-bn="-6,670" data-bucket-dry="-9,009" data-bucket-critical="-9,256" data-hold="302" data-project="0" data-project-name="" data-coverage="-302" data-late=""><title>Click for 12N01E06D004M detail</title></path>
<path d="M 382.4,641.5 L 393.5,628.9 L 484.3,602.4 L 476.0,609.5 L 472.0,617.4 L 471.6,618.8 L 471.4,621.6 L 473.0,624.3 L 473.9,627.5 L 479.3,634.0 L 482.4,635.4 L 484.6,635.8 L 486.2,637.0 L 487.1,639.5 L 486.5,643.4 L 488.5,645.3 L 491.5,644.5 L 494.0,642.8 L 495.5,642.6 L 496.2,643.0 L 497.5,646.1 L 498.4,646.8 L 500.9,647.4 L 503.0,645.7 L 504.4,645.5 L 505.3,646.0 L 506.6,647.3 L 507.3,650.5 L 506.1,655.0 L 504.3,657.2 L 502.9,659.6 L 502.0,662.8 L 500.3,666.5 L 497.8,676.5 L 382.4,641.5 Z" class="poly" fill="#e3a76f" data-short="12N01E26A002M" data-ma="RD108" data-base-year="1999" data-end-year="2021" data-span="22" data-area="6,794" data-rms-wells="12N01E26A002M" data-sy="0.0833" data-sy-source="SVSim" data-avg-dgwe="-0.89" data-cum-stor="-11,019" data-avg-rate="-501" data-critdry-share="70%" data-crit-share="45%" data-bucket-wet="+1,482" data-bucket-an="-1,939" data-bucket-bn="-916" data-bucket-dry="-4,112" data-bucket-critical="-5,534" data-hold="501" data-project="0" data-project-name="" data-coverage="-501" data-late=""><title>Click for 12N01E26A002M detail</title></path>
<path d="M 382.4,641.5 L 497.8,676.5 L 494.1,691.3 L 493.7,707.5 L 487.9,707.5 L 487.9,722.6 L 457.8,722.2 L 457.9,702.0 L 438.2,701.8 L 438.2,681.7 L 418.1,681.6 L 418.0,675.9 L 408.1,674.5 L 408.1,681.5 L 388.0,681.4 L 388.0,668.8 L 374.6,647.0 L 382.4,641.5 Z" class="poly" fill="#e3a76f" data-short="11N01E02D001M" data-ma="RD108" data-base-year="1999" data-end-year="2023" data-span="24" data-area="6,848" data-rms-wells="11N01E02D001M" data-sy="0.0749" data-sy-source="SVSim" data-avg-dgwe="-0.54" data-cum-stor="-6,590" data-avg-rate="-275" data-critdry-share="76%" data-crit-share="49%" data-bucket-wet="+10,047" data-bucket-an="-3,118" data-bucket-bn="+489" data-bucket-dry="-5,373" data-bucket-critical="-8,635" data-hold="275" data-project="0" data-project-name="" data-coverage="-275" data-late=""><title>Click for 11N01E02D001M detail</title></path>
<path d="M 416.7,518.1 L 420.0,514.3 L 446.3,519.2 L 449.8,523.6 L 450.6,526.8 L 450.2,532.4 L 450.8,534.6 L 452.2,536.8 L 456.7,539.9 L 457.5,541.8 L 457.0,543.1 L 452.4,549.0 L 451.5,552.4 L 449.5,556.8 L 449.7,558.5 L 451.6,560.8 L 453.2,561.8 L 455.6,563.9 L 457.7,568.0 L 458.6,569.1 L 461.4,570.3 L 468.9,570.8 L 472.4,572.7 L 472.7,573.3 L 471.9,576.7 L 473.1,578.3 L 473.7,579.9 L 474.2,580.6 L 478.0,583.3 L 478.2,583.8 L 479.3,584.1 L 483.1,586.3 L 486.8,595.5 L 486.7,597.4 L 484.3,602.4 L 393.5,628.9 L 416.7,518.1 Z" class="poly" fill="#a8c8b0" data-short="12N01E03R002M" data-ma="RD108" data-base-year="2001" data-end-year="2024" data-span="23" data-area="9,222" data-rms-wells="12N01E03R002M" data-sy="0.0871" data-sy-source="SVSim" data-avg-dgwe="+0.04" data-cum-stor="+803" data-avg-rate="+35" data-critdry-share="65%" data-crit-share="48%" data-bucket-wet="+10,702" data-bucket-an="+1,580" data-bucket-bn="-5,032" data-bucket-dry="-1,828" data-bucket-critical="-4,619" data-hold="0" data-project="0" data-project-name="" data-coverage="+0" data-late="1"><title>Click for 12N01E03R002M detail</title></path>
<path d="M 307.4,614.0 L 279.6,559.6 L 285.6,559.6 L 285.6,560.9 L 286.7,560.9 L 286.8,559.6 L 306.9,559.8 L 306.7,589.7 L 347.4,590.2 L 347.4,600.2 L 352.7,600.2 L 352.3,640.7 L 357.5,640.8 L 357.5,650.8 L 367.0,650.8 L 367.1,676.3 L 357.4,676.3 L 357.4,679.5 L 332.0,649.1 L 313.7,626.5 L 310.4,620.5 L 312.3,620.5 L 312.4,616.5 L 311.3,616.5 L 311.3,614.0 L 307.4,614.0 Z M 331.6,610.3 L 331.7,620.5 L 342.0,620.4 L 341.8,610.3 L 331.6,610.3 Z M 349.6,678.6 L 340.0,667.2 L 339.7,665.1 L 339.1,663.6 L 338.2,662.4 L 332.5,657.9 L 327.9,652.1 L 326.5,649.8 L 326.7,647.7 L 326.5,647.4 L 324.7,647.3 L 323.6,646.7 L 310.7,629.8 L 306.6,625.0 L 306.6,621.0 L 307.5,621.1 L 307.5,620.4 L 309.0,620.5 L 310.6,623.7 L 321.7,637.6 L 321.8,640.5 L 324.2,640.5 L 357.4,680.9 L 352.3,680.8 L 349.6,678.6 Z M 342.3,670.7 L 349.5,679.4 L 351.3,680.8 L 340.8,680.6 L 340.5,671.4 L 340.6,670.9 L 341.4,670.4 L 342.3,670.7 Z M 285.9,620.5 L 285.2,619.6 L 276.4,615.8 L 276.3,607.3 L 274.5,607.3 L 274.4,603.1 L 274.2,602.2 L 275.3,602.3 L 276.3,603.8 L 276.2,600.3 L 265.9,600.3 L 266.1,590.2 L 257.9,589.8 L 257.8,588.1 L 258.2,587.7 L 258.1,586.5 L 259.0,585.1 L 260.9,585.1 L 261.2,580.0 L 259.9,580.0 L 259.8,581.8 L 256.7,581.7 L 256.8,579.9 L 251.8,579.7 L 250.1,578.9 L 248.7,578.9 L 248.7,574.4 L 243.8,574.3 L 243.9,569.2 L 248.8,569.2 L 248.8,564.4 L 266.7,564.5 L 266.8,559.6 L 273.9,559.7 L 273.9,560.6 L 276.2,563.4 L 284.0,578.9 L 283.7,579.5 L 282.4,579.5 L 281.7,580.2 L 282.2,580.5 L 285.0,580.8 L 288.9,588.4 L 286.2,588.5 L 286.3,610.0 L 299.6,610.4 L 301.6,616.9 L 301.8,618.4 L 301.3,619.4 L 299.2,619.4 L 299.2,620.3 L 301.4,620.8 L 303.5,622.7 L 305.3,625.3 L 305.2,627.1 L 306.1,629.8 L 306.7,630.4 L 306.7,626.5 L 321.9,645.4 L 321.9,650.4 L 321.3,650.7 L 321.8,651.2 L 323.3,650.9 L 326.1,651.6 L 335.5,662.5 L 338.1,666.9 L 339.4,671.2 L 339.5,676.4 L 340.3,676.5 L 340.4,680.6 L 333.1,680.5 L 328.2,675.5 L 324.0,673.2 L 323.4,673.4 L 322.3,675.0 L 321.2,675.0 L 307.9,659.8 L 309.0,657.7 L 309.0,656.5 L 304.0,650.3 L 294.9,637.0 L 286.3,621.2 L 286.3,620.5 L 285.9,620.5 Z M 266.2,575.5 L 266.2,574.3 L 266.6,574.3 L 266.6,573.5 L 265.5,573.5 L 265.4,575.5 L 266.2,575.5 Z M 306.0,615.2 L 306.3,615.0 L 306.4,615.6 L 306.5,616.9 L 306.2,616.9 L 306.2,617.4 L 306.5,617.5 L 306.6,620.4 L 304.3,619.2 L 302.9,618.0 L 302.2,614.6 L 300.7,610.2 L 304.7,610.2 L 306.0,613.3 L 306.2,614.5 L 305.7,614.7 L 306.0,615.2 Z M 282.5,566.8 L 293.4,588.3 L 292.6,588.3 L 292.6,590.0 L 290.7,589.9 L 276.5,562.4 L 276.5,561.4 L 277.2,559.6 L 278.5,559.6 L 279.7,562.4 L 282.5,566.8 Z" class="poly" fill="#cb7740" data-short="Dunnigan" data-ma="Dunnigan" data-base-year="1999" data-end-year="2025" data-span="26" data-area="10,421" data-rms-wells="12N01W05B001M" data-sy="0.0762" data-sy-source="SVSim" data-avg-dgwe="-1.58" data-cum-stor="-32,605" data-avg-rate="-1,254" data-critdry-share="65%" data-crit-share="43%" data-bucket-wet="+4,367" data-bucket-an="+13,694" data-bucket-bn="-14,492" data-bucket-dry="-10,907" data-bucket-critical="-25,267" data-hold="1,254" data-project="0" data-project-name="" data-coverage="-1,254" data-late=""><title>Click for Dunnigan detail</title></path>
<path d="M 494.2,459.2 L 495.8,461.2 L 495.7,463.1 L 493.6,466.0 L 489.2,470.2 L 487.3,470.9 L 481.8,470.9 L 477.9,471.6 L 472.1,471.6 L 471.0,471.8 L 469.7,472.5 L 468.8,474.5 L 468.7,475.8 L 468.3,482.5 L 468.5,489.0 L 468.0,491.1 L 466.7,492.4 L 459.4,494.1 L 456.0,496.5 L 454.2,498.9 L 453.5,501.2 L 453.6,504.8 L 454.5,507.0 L 456.3,509.8 L 456.4,511.1 L 452.4,515.4 L 448.4,517.6 L 447.1,518.7 L 447.3,519.3 L 449.8,522.4 L 451.3,526.2 L 451.4,528.4 L 451.1,533.2 L 451.7,534.7 L 452.5,535.9 L 454.5,537.4 L 453.7,537.9 L 451.9,536.3 L 450.3,533.4 L 450.6,526.8 L 449.8,523.6 L 446.4,519.4 L 446.2,518.7 L 446.5,518.0 L 447.5,517.2 L 451.8,514.8 L 454.1,512.5 L 455.4,510.3 L 453.4,506.4 L 452.8,503.7 L 452.9,500.4 L 453.8,498.0 L 454.6,496.8 L 456.3,495.3 L 458.9,493.6 L 461.1,492.7 L 466.1,491.7 L 467.2,490.7 L 467.7,488.8 L 467.4,485.2 L 467.7,476.4 L 468.3,473.5 L 469.3,472.0 L 470.6,471.2 L 472.5,470.8 L 477.9,470.8 L 481.7,470.1 L 488.1,469.8 L 490.0,468.5 L 493.0,465.4 L 494.3,463.9 L 495.1,462.4 L 495.1,461.5 L 494.5,460.5 L 490.3,458.1 L 494.2,459.2 Z M 413.8,448.9 L 408.8,448.9 L 408.9,444.0 L 413.9,444.1 L 413.8,448.9 Z M 413.9,444.1 L 414.0,438.9 L 419.0,439.0 L 419.0,437.5 L 429.2,440.4 L 429.1,444.2 L 413.9,444.1 Z M 347.4,599.4 L 347.4,590.2 L 306.7,589.7 L 306.9,559.8 L 286.8,559.6 L 286.7,560.9 L 285.6,560.9 L 285.6,559.6 L 279.6,559.6 L 307.4,614.0 L 311.3,614.0 L 311.3,616.5 L 312.4,616.5 L 312.3,619.7 L 311.1,620.5 L 310.4,620.5 L 310.5,620.8 L 309.4,621.4 L 309.0,620.5 L 307.5,620.4 L 307.5,621.1 L 306.6,621.0 L 306.6,623.1 L 304.6,624.2 L 302.2,621.3 L 300.3,620.4 L 299.2,620.3 L 299.2,619.4 L 301.3,619.4 L 301.8,618.4 L 301.6,616.9 L 299.6,610.4 L 286.3,610.0 L 286.2,588.5 L 288.9,588.4 L 285.0,580.8 L 282.2,580.5 L 281.7,580.2 L 282.4,579.5 L 283.7,579.5 L 284.0,578.9 L 276.2,563.4 L 273.9,560.6 L 273.9,559.7 L 270.0,559.6 L 306.5,559.7 L 306.5,544.7 L 300.6,544.7 L 300.8,529.8 L 317.9,529.7 L 317.9,538.2 L 331.6,538.2 L 331.8,529.3 L 341.2,529.3 L 341.1,539.7 L 347.1,539.8 L 346.7,551.4 L 336.2,551.2 L 336.4,541.5 L 331.7,541.6 L 331.5,559.8 L 356.8,559.8 L 357.0,529.4 L 351.8,529.4 L 351.9,522.7 L 348.5,522.7 L 348.5,519.3 L 366.3,519.3 L 368.1,522.1 L 367.4,553.5 L 365.0,559.9 L 365.0,589.2 L 347.4,599.4 Z M 306.3,615.0 L 306.0,615.2 L 305.7,614.7 L 306.2,614.5 L 306.0,613.3 L 304.7,610.2 L 300.7,610.2 L 302.2,614.6 L 302.9,618.0 L 304.3,619.2 L 306.6,620.4 L 306.5,617.5 L 306.2,617.4 L 306.2,616.9 L 306.5,616.9 L 306.3,615.0 Z M 293.4,588.3 L 282.2,566.3 L 279.7,562.4 L 278.5,559.6 L 277.2,559.6 L 276.5,561.4 L 276.5,562.4 L 290.7,589.9 L 292.6,590.0 L 292.6,588.3 L 293.4,588.3 Z M 337.0,515.1 L 347.3,515.1 L 347.3,519.4 L 336.9,519.3 L 337.0,515.1 Z M 326.8,478.7 L 328.7,478.8 L 301.5,478.5 L 301.4,458.3 L 296.7,458.1 L 296.5,448.6 L 290.8,448.6 L 290.7,453.1 L 294.7,453.2 L 294.5,462.9 L 276.7,463.0 L 276.7,458.1 L 286.5,458.2 L 286.5,453.1 L 271.0,452.9 L 271.0,451.5 L 267.2,451.4 L 267.2,446.5 L 286.6,446.6 L 286.6,438.5 L 293.0,438.5 L 294.2,440.4 L 306.8,454.3 L 306.8,458.4 L 310.5,458.5 L 326.8,476.6 L 326.8,478.7 Z M 300.4,403.4 L 316.8,408.1 L 285.0,408.1 L 300.4,403.4 Z M 296.2,483.6 L 296.2,498.7 L 286.3,498.6 L 286.2,483.5 L 296.2,483.6 Z M 238.6,422.3 L 277.7,410.3 L 277.9,438.3 L 273.5,438.2 L 273.5,442.2 L 271.9,442.1 L 271.8,438.4 L 267.2,438.2 L 267.2,432.9 L 262.5,436.5 L 261.1,438.1 L 237.0,438.3 L 237.2,423.1 L 238.6,422.3 Z M 276.3,483.8 L 271.8,483.8 L 271.8,487.6 L 249.4,487.7 L 249.5,478.5 L 267.1,478.5 L 267.1,475.7 L 276.3,475.8 L 276.3,483.8 Z M 273.8,601.8 L 265.6,600.7 L 265.6,591.6 L 265.4,590.8 L 264.8,590.2 L 266.1,590.2 L 265.9,600.3 L 276.2,600.3 L 276.3,603.8 L 275.3,602.3 L 274.2,602.2 L 273.8,601.8 Z M 276.4,615.8 L 274.6,614.9 L 274.5,607.2 L 276.3,607.3 L 276.4,615.8 Z M 257.8,588.2 L 257.3,582.7 L 256.8,582.3 L 249.0,578.9 L 247.4,579.0 L 248.4,578.3 L 248.5,575.1 L 243.5,574.9 L 243.7,564.2 L 238.6,564.1 L 238.7,559.2 L 268.3,559.6 L 266.8,559.6 L 266.7,564.5 L 248.8,564.4 L 248.8,569.2 L 243.9,569.2 L 243.8,574.3 L 248.7,574.4 L 248.7,578.9 L 249.4,578.8 L 250.1,578.9 L 251.8,579.7 L 256.8,579.9 L 256.7,581.7 L 259.8,581.8 L 259.9,580.0 L 261.2,580.0 L 260.9,585.1 L 259.0,585.1 L 258.1,586.5 L 258.2,587.7 L 257.8,588.2 Z M 266.2,574.3 L 266.2,575.5 L 265.4,575.5 L 265.5,573.5 L 266.6,573.5 L 266.6,574.3 L 266.2,574.3 Z M 264.0,465.5 L 264.1,468.2 L 259.2,468.3 L 259.1,465.6 L 264.0,465.5 Z M 263.2,454.3 L 263.2,458.3 L 260.0,458.2 L 260.0,454.3 L 263.2,454.3 Z M 257.5,522.9 L 256.8,523.3 L 254.1,519.0 L 254.3,518.8 L 257.9,518.8 L 258.6,520.5 L 258.0,521.4 L 257.5,522.9 Z M 249.6,529.5 L 249.0,529.7 L 249.1,524.2 L 256.6,524.5 L 256.4,525.2 L 256.1,525.4 L 255.2,525.4 L 254.3,526.0 L 253.2,526.1 L 249.6,529.5 Z M 240.4,530.9 L 239.9,531.1 L 239.1,532.8 L 239.3,528.9 L 246.3,528.9 L 246.6,539.0 L 245.9,539.0 L 245.7,532.4 L 244.8,530.8 L 240.4,530.9 Z M 218.4,434.0 L 218.3,438.4 L 216.0,438.6 L 218.5,443.6 L 214.2,443.4 L 214.2,438.1 L 211.3,438.2 L 218.4,434.0 Z M 209.0,539.0 L 219.0,538.9 L 218.9,559.1 L 208.8,559.1 L 209.0,539.0 Z M 208.5,578.3 L 208.6,567.4 L 210.1,567.4 L 209.9,578.3 L 208.5,578.3 Z M 180.0,559.3 L 180.1,570.5 L 178.6,570.5 L 178.5,559.3 L 189.0,559.3 L 180.0,559.3 Z M 163.3,533.1 L 159.7,533.0 L 159.7,530.2 L 161.8,530.1 L 161.8,528.6 L 163.3,528.6 L 165.1,524.5 L 167.2,524.4 L 165.2,528.5 L 165.2,530.0 L 163.3,533.1 Z M 155.2,544.7 L 159.1,544.7 L 159.0,548.7 L 152.8,542.2 L 155.2,544.7 Z M 148.2,479.4 L 149.2,479.3 L 149.3,499.2 L 139.5,499.7 L 139.5,509.4 L 149.5,509.3 L 149.2,529.0 L 146.3,529.1 L 146.3,529.5 L 133.5,504.6 L 148.2,479.4 Z" class="poly" fill="#cb7740" data-short="13N01W07G001M" data-ma="Other" data-base-year="1999" data-end-year="2025" data-span="26" data-area="11,228" data-rms-wells="13N01W07G001M" data-sy="0.0700" data-sy-source="SVSim" data-avg-dgwe="-1.14" data-cum-stor="-23,255" data-avg-rate="-894" data-critdry-share="78%" data-crit-share="45%" data-bucket-wet="+16,637" data-bucket-an="+17,506" data-bucket-bn="-10,179" data-bucket-dry="-20,497" data-bucket-critical="-26,721" data-hold="894" data-project="0" data-project-name="" data-coverage="-894" data-late=""><title>Click for 13N01W07G001M detail</title></path>
<path d="M 220.9,282.0 L 300.4,403.4 L 285.0,408.1 L 277.7,408.1 L 277.7,410.3 L 238.6,422.3 L 237.3,419.0 L 237.3,418.0 L 236.9,418.0 L 191.8,307.8 L 220.9,282.0 Z" class="poly" fill="#e3a76f" data-short="14N02W13N001M" data-ma="Other" data-base-year="2000" data-end-year="2025" data-span="25" data-area="10,722" data-rms-wells="14N02W13N001M" data-sy="0.0783" data-sy-source="SVSim" data-avg-dgwe="-0.38" data-cum-stor="-7,976" data-avg-rate="-319" data-critdry-share="81%" data-crit-share="21%" data-bucket-wet="+15,426" data-bucket-an="+5,499" data-bucket-bn="-5,142" data-bucket-dry="-26,655" data-bucket-critical="+2,896" data-hold="319" data-project="0" data-project-name="" data-coverage="-319" data-late="1"><title>Click for 14N02W13N001M detail</title></path>
<path d="M 345.8,257.0 L 344.6,256.3 L 343.1,256.0 L 342.3,256.3 L 341.1,257.7 L 223.7,274.8 L 185.6,178.0 L 194.3,176.6 L 200.6,175.2 L 300.5,175.3 L 300.5,176.0 L 305.3,175.9 L 305.2,181.7 L 320.4,181.8 L 320.4,189.4 L 325.0,187.1 L 328.7,184.6 L 331.1,182.1 L 332.3,181.5 L 333.9,182.1 L 338.2,184.4 L 343.1,186.4 L 343.4,186.3 L 342.6,187.6 L 345.5,189.9 L 345.9,191.2 L 345.8,192.6 L 344.6,193.8 L 340.2,195.6 L 338.2,197.5 L 336.6,199.5 L 335.8,201.3 L 334.5,203.2 L 333.9,205.1 L 334.2,206.5 L 334.9,207.7 L 340.1,214.0 L 341.3,216.4 L 342.1,218.4 L 343.1,223.7 L 345.0,230.3 L 346.1,232.8 L 347.3,234.1 L 349.4,235.7 L 352.4,236.9 L 354.5,238.1 L 357.4,240.9 L 360.6,243.1 L 363.4,246.6 L 364.5,249.7 L 364.3,251.9 L 363.8,254.4 L 345.8,257.0 Z" class="poly" fill="#a8c8b0" data-short="15N01W05G001M" data-ma="Other" data-base-year="1999" data-end-year="2025" data-span="26" data-area="20,105" data-rms-wells="15N01W05G001M" data-sy="0.0759" data-sy-source="SVSim" data-avg-dgwe="+0.30" data-cum-stor="+12,055" data-avg-rate="+464" data-critdry-share="60%" data-crit-share="7%" data-bucket-wet="+18,489" data-bucket-an="+18,413" data-bucket-bn="-8,825" data-bucket-dry="-18,006" data-bucket-critical="+1,984" data-hold="0" data-project="0" data-project-name="" data-coverage="+0" data-late=""><title>Click for 15N01W05G001M detail</title></path>
<path d="M 223.7,274.8 L 220.9,282.0 L 191.8,307.8 L 159.1,329.1 L 49.6,302.3 L 50.4,301.3 L 52.1,301.2 L 52.3,300.7 L 54.5,299.5 L 55.2,298.4 L 63.9,292.6 L 66.6,287.8 L 72.3,263.3 L 74.7,260.9 L 78.4,258.6 L 81.5,254.5 L 81.3,248.2 L 80.5,247.4 L 80.2,245.9 L 82.3,243.1 L 83.7,242.9 L 85.0,241.3 L 86.2,240.7 L 86.8,239.7 L 87.5,239.7 L 88.6,240.4 L 89.6,240.2 L 89.4,238.3 L 90.3,238.0 L 91.6,236.0 L 93.2,232.2 L 95.0,230.3 L 96.6,230.5 L 96.9,230.2 L 97.3,227.7 L 99.7,224.6 L 101.4,222.9 L 102.0,221.6 L 104.0,220.9 L 105.3,221.4 L 105.6,222.0 L 106.9,221.4 L 107.5,220.4 L 107.4,219.3 L 108.3,219.0 L 108.7,218.3 L 107.6,217.5 L 107.9,215.5 L 108.8,214.9 L 111.1,214.6 L 112.0,213.5 L 112.9,214.2 L 113.2,213.7 L 114.4,213.2 L 115.4,211.2 L 121.7,207.0 L 132.2,207.1 L 133.1,206.8 L 133.4,206.4 L 132.7,205.5 L 132.7,204.9 L 133.4,203.9 L 133.2,202.7 L 133.8,200.8 L 134.9,200.3 L 135.9,199.1 L 136.8,198.8 L 138.2,197.7 L 140.0,194.9 L 141.7,194.4 L 142.4,193.6 L 144.6,192.8 L 144.7,192.0 L 146.0,191.4 L 146.2,191.0 L 148.2,189.7 L 149.6,189.2 L 150.6,188.0 L 152.8,187.8 L 155.2,184.7 L 161.3,184.1 L 164.0,182.7 L 164.6,182.7 L 165.3,183.1 L 173.3,180.5 L 176.1,178.5 L 179.5,178.7 L 180.3,179.1 L 185.6,178.0 L 223.7,274.8 Z" class="poly" fill="#e3a76f" data-short="15N02W19E001M" data-ma="Other" data-base-year="1999" data-end-year="2025" data-span="26" data-area="24,621" data-rms-wells="15N02W19E001M" data-sy="0.0702" data-sy-source="SVSim" data-avg-dgwe="-0.30" data-cum-stor="-13,568" data-avg-rate="-522" data-critdry-share="64%" data-crit-share="24%" data-bucket-wet="+11,981" data-bucket-an="+2,907" data-bucket-bn="-8,354" data-bucket-dry="-13,741" data-bucket-critical="-6,360" data-hold="522" data-project="0" data-project-name="" data-coverage="-522" data-late=""><title>Click for 15N02W19E001M detail</title></path>
<path d="M 238.6,422.3 L 237.2,423.1 L 237.3,419.0 L 238.6,422.3 Z M 191.8,307.8 L 236.9,418.0 L 229.5,417.9 L 229.5,422.2 L 219.4,422.2 L 219.3,417.9 L 205.3,417.9 L 200.3,407.4 L 219.4,407.8 L 219.8,397.8 L 189.4,397.4 L 189.4,386.5 L 185.0,377.2 L 156.7,377.4 L 159.1,329.1 L 191.8,307.8 Z M 211.3,438.2 L 206.5,438.2 L 206.5,433.8 L 195.7,434.0 L 197.7,428.1 L 218.5,428.1 L 218.4,434.0 L 211.3,438.2 Z M 192.8,408.9 L 199.9,417.7 L 191.9,417.7 L 188.0,412.0 L 192.8,408.9 Z M 189.3,407.4 L 183.9,407.4 L 183.9,408.2 L 182.2,408.2 L 182.2,407.4 L 169.1,407.4 L 169.0,402.6 L 176.7,402.7 L 176.7,397.4 L 189.3,397.4 L 189.3,407.4 Z M 153.5,446.2 L 153.5,446.8 L 158.5,446.7 L 158.5,449.2 L 163.6,449.2 L 163.8,451.0 L 163.0,451.4 L 161.8,451.3 L 160.8,451.6 L 159.7,452.2 L 159.2,452.8 L 158.1,452.5 L 157.1,453.0 L 156.4,452.3 L 154.9,452.0 L 153.2,452.2 L 153.5,446.2 Z" class="poly" fill="#f0d9a8" data-short="14N02W22A005M" data-ma="Other" data-base-year="2020" data-end-year="2025" data-span="5" data-area="7,305" data-rms-wells="14N02W22A005M" data-sy="0.0653" data-sy-source="SVSim" data-avg-dgwe="-0.23" data-cum-stor="-544" data-avg-rate="-109" data-critdry-share="100%" data-crit-share="100%" data-bucket-wet="+10,289" data-bucket-an="+4,406" data-bucket-bn="+0" data-bucket-dry="+0" data-bucket-critical="-15,239" data-hold="109" data-project="0" data-project-name="" data-coverage="-109" data-late="1"><title>Click for 14N02W22A005M detail</title></path>
<path d="M 159.1,329.1 L 156.7,377.4 L 149.3,377.4 L 149.3,361.3 L 138.6,361.1 L 110.9,360.8 L 110.8,376.8 L 90.8,376.5 L 90.9,356.4 L 80.8,356.3 L 80.8,365.9 L 70.6,366.0 L 70.7,371.9 L 73.4,376.6 L 80.9,376.7 L 80.7,389.1 L 67.8,366.9 L 51.4,357.6 L 47.8,328.6 L 30.0,329.0 L 33.1,324.1 L 34.0,323.4 L 33.9,322.3 L 35.0,322.2 L 34.8,321.4 L 35.7,320.1 L 36.4,319.5 L 36.6,318.8 L 37.9,319.0 L 38.0,318.8 L 38.5,318.8 L 38.4,317.2 L 38.6,316.9 L 39.5,317.1 L 39.9,316.6 L 39.9,315.7 L 40.3,315.0 L 40.8,315.0 L 41.3,315.7 L 41.6,315.3 L 42.1,315.2 L 42.5,314.4 L 44.2,314.4 L 44.0,312.8 L 44.2,312.0 L 45.5,310.5 L 46.0,310.5 L 46.8,308.1 L 46.0,306.9 L 46.2,305.4 L 46.5,304.9 L 47.5,304.6 L 48.0,303.9 L 48.6,303.7 L 49.6,302.3 L 159.1,329.1 Z M 153.2,452.2 L 152.2,452.7 L 150.3,452.6 L 149.0,453.2 L 148.9,444.5 L 153.4,444.4 L 153.2,452.2 Z M 149.0,402.1 L 149.0,406.9 L 138.7,407.3 L 138.7,402.1 L 149.0,402.1 Z M 138.7,419.0 L 148.9,418.8 L 148.8,423.6 L 138.6,423.8 L 138.7,419.0 Z M 120.8,418.2 L 120.8,408.8 L 124.6,416.0 L 124.5,418.5 L 120.8,418.2 Z M 120.8,418.2 L 120.2,431.0 L 115.7,431.9 L 114.8,431.6 L 112.1,431.8 L 110.4,431.0 L 110.1,439.3 L 120.2,439.3 L 120.2,449.0 L 116.1,449.0 L 116.1,453.4 L 117.3,453.4 L 117.4,455.6 L 120.9,455.5 L 120.8,456.3 L 123.3,456.3 L 123.4,457.9 L 126.6,457.9 L 126.7,458.7 L 130.3,458.7 L 130.1,454.7 L 132.7,454.8 L 132.8,449.2 L 135.2,446.5 L 135.5,445.4 L 130.3,445.4 L 130.3,439.3 L 139.2,439.4 L 138.8,456.1 L 138.8,479.7 L 148.2,479.4 L 133.5,504.6 L 130.1,498.2 L 107.4,461.6 L 102.0,425.9 L 82.8,392.7 L 85.7,392.7 L 85.7,396.9 L 102.6,397.3 L 102.6,402.1 L 107.5,402.3 L 107.4,409.9 L 110.7,409.9 L 110.8,408.7 L 116.2,418.1 L 120.8,418.2 Z M 126.3,418.6 L 128.2,417.7 L 130.3,416.2 L 130.2,418.9 L 126.3,418.6 Z" class="poly" fill="#7c2820" data-short="14N03W14Q003M" data-ma="Other" data-base-year="2001" data-end-year="2022" data-span="21" data-area="12,514" data-rms-wells="14N03W14Q003M" data-sy="0.0786" data-sy-source="SVSim" data-avg-dgwe="-3.39" data-cum-stor="-69,935" data-avg-rate="-3,330" data-critdry-share="52%" data-crit-share="31%" data-bucket-wet="-16,000" data-bucket-an="+7,951" data-bucket-bn="-22,000" data-bucket-dry="-12,541" data-bucket-critical="-27,344" data-hold="3,330" data-project="0" data-project-name="" data-coverage="-3,330" data-late="1"><title>Click for 14N03W14Q003M detail</title></path>
<path d="M 490.3,458.1 L 488.6,457.2 L 485.0,453.1 L 482.7,451.4 L 476.3,448.8 L 472.5,448.9 L 470.4,448.5 L 468.4,447.4 L 461.9,440.9 L 460.8,438.7 L 467.0,429.0 L 429.3,429.0 L 429.2,440.4 L 419.0,437.5 L 419.3,401.5 L 418.7,398.4 L 416.6,398.4 L 416.7,393.3 L 379.4,392.7 L 379.5,382.9 L 386.0,377.7 L 390.9,376.3 L 391.4,368.8 L 385.6,371.8 L 385.2,369.8 L 374.6,375.4 L 374.6,370.3 L 375.7,369.9 L 374.7,365.3 L 369.2,366.8 L 369.1,367.7 L 368.7,367.9 L 348.6,368.0 L 348.6,377.8 L 353.7,377.8 L 353.6,382.9 L 348.5,382.8 L 348.5,387.9 L 328.5,387.9 L 328.5,392.9 L 318.0,393.1 L 317.8,408.1 L 316.8,408.1 L 300.4,403.4 L 220.9,282.0 L 223.7,274.8 L 341.1,257.7 L 340.4,259.4 L 340.3,260.4 L 340.9,265.7 L 340.9,268.7 L 341.9,271.1 L 343.9,273.7 L 346.8,275.9 L 348.8,276.7 L 352.5,277.5 L 354.0,277.5 L 355.7,278.1 L 357.4,280.5 L 359.1,285.8 L 360.5,286.9 L 362.7,286.9 L 366.0,285.2 L 369.4,284.3 L 370.5,284.6 L 371.6,285.7 L 372.4,288.3 L 372.5,291.8 L 371.5,293.8 L 369.5,295.9 L 369.2,297.6 L 370.1,299.0 L 372.2,299.5 L 373.3,299.1 L 375.3,297.0 L 376.3,296.6 L 377.2,296.8 L 378.0,298.7 L 379.7,304.6 L 379.2,307.1 L 377.1,311.0 L 376.9,311.7 L 377.3,313.6 L 378.5,315.1 L 380.2,316.0 L 382.0,316.3 L 383.1,317.1 L 383.6,317.9 L 384.3,320.9 L 384.9,322.0 L 386.3,322.4 L 388.7,322.5 L 389.9,323.7 L 390.5,328.4 L 388.4,333.9 L 388.4,336.0 L 388.6,336.8 L 389.6,337.9 L 393.9,341.3 L 394.4,343.2 L 393.9,343.9 L 391.7,344.0 L 390.2,344.6 L 389.2,345.7 L 389.0,346.6 L 390.5,349.7 L 394.0,354.9 L 396.8,356.9 L 399.8,357.8 L 402.4,358.3 L 407.2,358.3 L 408.2,358.6 L 410.8,360.1 L 414.5,363.2 L 415.8,363.6 L 418.9,362.6 L 425.7,361.7 L 429.8,359.9 L 434.7,357.1 L 436.9,356.9 L 439.1,358.2 L 444.4,363.8 L 449.0,366.7 L 449.5,367.7 L 449.5,369.2 L 446.8,383.2 L 447.4,388.1 L 448.4,392.1 L 449.7,394.8 L 451.1,396.6 L 454.3,399.7 L 457.7,401.7 L 459.0,403.3 L 459.2,404.0 L 459.2,406.0 L 457.6,409.9 L 457.9,411.2 L 459.0,411.8 L 463.6,411.6 L 465.7,413.9 L 466.5,416.0 L 466.7,421.0 L 467.9,425.7 L 468.2,428.3 L 466.7,431.5 L 462.4,438.0 L 462.1,439.4 L 462.5,440.8 L 463.0,441.5 L 466.1,444.0 L 469.8,447.7 L 473.3,448.3 L 475.4,447.9 L 477.2,448.2 L 482.5,450.4 L 484.8,451.8 L 488.7,456.1 L 489.9,457.0 L 494.2,459.2 L 490.3,458.1 Z M 363.8,254.4 L 363.3,256.8 L 362.6,258.4 L 361.8,259.5 L 360.7,260.0 L 359.9,260.0 L 356.6,258.4 L 355.6,258.2 L 350.4,258.6 L 348.7,258.3 L 345.8,257.0 L 363.8,254.4 Z" class="poly" fill="#e3a76f" data-short="14N01W04K003M" data-ma="Other" data-base-year="1999" data-end-year="2022" data-span="23" data-area="30,224" data-rms-wells="14N01W04K003M" data-sy="0.0867" data-sy-source="SVSim" data-avg-dgwe="-0.17" data-cum-stor="-10,482" data-avg-rate="-456" data-critdry-share="76%" data-crit-share="19%" data-bucket-wet="+18,212" data-bucket-an="+6,551" data-bucket-bn="-4,062" data-bucket-dry="-30,266" data-bucket-critical="-917" data-hold="456" data-project="0" data-project-name="" data-coverage="-456" data-late=""><title>Click for 14N01W04K003M detail</title></path>
<path d="M 488.4,592.3 L 487.5,592.3 L 487.0,593.0 L 486.9,593.9 L 487.6,596.0 L 487.6,597.6 L 486.8,599.7 L 485.2,602.6 L 484.3,606.8 L 483.0,609.6 L 480.9,612.1 L 478.3,613.7 L 473.6,615.5 L 472.8,617.3 L 472.4,619.4 L 472.5,620.6 L 473.7,622.3 L 474.2,625.5 L 474.7,626.9 L 477.5,629.8 L 479.9,633.1 L 480.9,633.7 L 483.0,634.2 L 482.8,635.5 L 478.8,633.6 L 476.0,629.8 L 473.9,627.5 L 473.0,624.3 L 471.4,621.6 L 471.6,618.8 L 472.0,617.4 L 476.0,609.5 L 484.4,602.4 L 486.7,597.4 L 486.8,595.5 L 483.2,586.6 L 482.8,586.0 L 478.9,583.9 L 478.2,583.8 L 478.0,583.3 L 474.2,580.6 L 473.7,579.9 L 473.1,578.3 L 471.9,576.7 L 472.7,573.3 L 472.1,572.4 L 469.7,571.1 L 468.1,570.6 L 463.2,570.6 L 459.6,569.7 L 458.6,569.1 L 457.7,568.0 L 455.3,563.6 L 451.8,560.9 L 453.4,561.1 L 455.7,563.0 L 457.0,564.9 L 458.2,567.6 L 459.1,568.7 L 460.0,569.1 L 463.8,569.8 L 467.0,569.7 L 468.9,569.9 L 475.7,573.1 L 478.5,573.5 L 482.9,573.4 L 485.6,574.2 L 486.3,575.3 L 486.4,577.4 L 485.5,579.1 L 483.8,580.4 L 482.8,580.8 L 481.5,580.7 L 476.8,578.8 L 475.9,579.1 L 475.6,580.3 L 475.8,581.0 L 476.5,581.6 L 480.7,584.1 L 484.1,585.7 L 489.1,586.8 L 488.4,592.3 Z M 306.6,623.1 L 306.6,625.0 L 310.7,629.8 L 323.6,646.7 L 324.7,647.3 L 326.5,647.4 L 326.7,647.7 L 326.5,649.8 L 327.9,652.1 L 332.5,657.9 L 338.2,662.4 L 339.1,663.6 L 339.7,665.1 L 340.0,667.2 L 349.6,678.6 L 352.3,680.8 L 357.4,680.9 L 324.2,640.5 L 321.8,640.5 L 321.7,637.6 L 311.0,624.3 L 309.4,621.4 L 310.5,620.8 L 313.7,626.5 L 316.3,629.8 L 357.4,679.5 L 357.4,676.3 L 367.1,676.3 L 367.0,650.8 L 357.5,650.8 L 357.5,640.8 L 352.3,640.7 L 352.7,600.2 L 347.4,600.2 L 347.4,599.4 L 365.0,589.2 L 364.8,630.9 L 388.0,668.8 L 388.0,681.4 L 408.1,681.5 L 408.1,674.5 L 418.0,675.9 L 418.1,681.6 L 438.2,681.7 L 438.2,701.8 L 457.9,702.0 L 457.8,722.2 L 471.5,722.4 L 466.4,761.2 L 458.0,771.9 L 415.5,793.4 L 410.8,784.9 L 412.4,784.2 L 413.0,783.6 L 413.2,782.8 L 412.9,782.0 L 406.8,773.1 L 401.3,762.7 L 396.0,754.5 L 388.1,746.8 L 376.0,733.8 L 367.0,722.5 L 356.3,718.6 L 351.5,715.3 L 351.6,708.5 L 342.3,698.1 L 342.8,695.1 L 339.5,691.4 L 338.8,685.9 L 333.1,680.5 L 340.4,680.6 L 340.3,676.5 L 339.5,676.4 L 339.4,671.2 L 338.1,666.9 L 335.5,662.5 L 326.1,651.6 L 323.3,650.9 L 321.8,651.2 L 321.3,650.7 L 321.9,650.4 L 321.9,645.4 L 306.7,626.5 L 306.7,630.4 L 306.1,629.8 L 305.2,627.1 L 305.3,625.3 L 304.6,624.2 L 306.6,623.1 Z M 349.5,679.4 L 342.3,670.7 L 341.4,670.4 L 340.6,670.9 L 340.5,671.4 L 340.8,680.6 L 351.3,680.8 L 349.5,679.4 Z M 454.5,537.4 L 456.4,538.5 L 457.4,539.5 L 458.2,541.0 L 458.4,541.9 L 457.7,543.6 L 453.7,548.1 L 452.7,550.6 L 452.0,553.4 L 450.2,556.7 L 450.1,557.7 L 450.9,559.2 L 453.0,560.9 L 451.8,560.8 L 450.0,559.1 L 449.5,558.0 L 449.5,556.8 L 451.5,552.4 L 452.4,549.0 L 457.0,543.1 L 457.5,541.8 L 456.7,539.9 L 453.7,537.9 L 454.5,537.4 Z M 331.7,620.5 L 331.6,610.3 L 341.8,610.3 L 342.0,620.4 L 331.7,620.5 Z" class="poly" fill="#e3a76f" data-short="11N01E16P001M" data-ma="Other" data-base-year="1999" data-end-year="2025" data-span="26" data-area="16,921" data-rms-wells="11N01E16P001M" data-sy="0.0716" data-sy-source="SVSim" data-avg-dgwe="-0.53" data-cum-stor="-16,802" data-avg-rate="-646" data-critdry-share="80%" data-crit-share="57%" data-bucket-wet="+47,130" data-bucket-an="+12,237" data-bucket-bn="-12,843" data-bucket-dry="-19,022" data-bucket-critical="-44,305" data-hold="646" data-project="0" data-project-name="" data-coverage="-646" data-late=""><title>Click for 11N01E16P001M detail</title></path>
<path d="M 538.6,792.3 L 466.4,761.2 L 471.5,722.4 L 487.9,722.6 L 487.9,707.5 L 493.7,707.5 L 493.9,693.1 L 494.4,690.3 L 500.3,666.5 L 502.0,662.8 L 502.9,659.6 L 504.3,657.2 L 506.1,655.0 L 506.4,653.1 L 507.3,651.0 L 506.6,647.3 L 505.3,646.0 L 504.4,645.5 L 503.0,645.7 L 500.9,647.4 L 498.4,646.8 L 497.5,646.1 L 496.2,643.0 L 495.5,642.6 L 494.0,642.8 L 491.5,644.5 L 488.5,645.3 L 486.5,643.4 L 487.1,639.5 L 486.4,637.4 L 484.6,635.8 L 482.8,635.5 L 483.0,634.2 L 485.1,634.7 L 487.1,636.6 L 487.9,638.7 L 488.0,643.1 L 489.1,644.2 L 490.7,643.9 L 493.5,641.4 L 495.2,640.9 L 496.7,642.0 L 498.6,645.8 L 499.2,646.4 L 500.1,646.5 L 501.3,646.0 L 502.5,644.6 L 503.1,644.2 L 505.5,645.1 L 506.8,646.4 L 507.7,648.2 L 508.1,650.2 L 507.5,654.0 L 508.0,655.0 L 508.6,655.2 L 510.5,653.9 L 513.3,650.2 L 514.6,649.2 L 516.4,648.3 L 518.2,647.9 L 521.6,648.4 L 522.4,648.3 L 524.3,647.4 L 527.1,645.1 L 529.0,644.5 L 531.7,644.9 L 534.7,646.6 L 535.4,646.5 L 535.9,645.9 L 536.0,645.0 L 534.4,641.9 L 534.0,640.5 L 534.2,639.4 L 534.6,638.8 L 535.7,638.2 L 539.5,637.5 L 545.8,634.4 L 546.7,634.6 L 547.3,636.2 L 548.1,641.0 L 549.4,643.5 L 550.5,644.4 L 554.6,646.1 L 558.0,649.1 L 564.0,650.5 L 566.4,651.6 L 567.2,652.8 L 567.6,654.1 L 567.9,658.6 L 568.3,659.8 L 569.3,660.4 L 572.3,660.7 L 573.4,662.0 L 573.4,663.0 L 572.9,663.7 L 569.3,666.5 L 567.5,668.9 L 567.3,670.7 L 567.6,671.8 L 570.3,676.5 L 570.0,677.1 L 567.1,678.3 L 566.3,679.1 L 565.2,684.6 L 565.6,685.8 L 569.0,689.7 L 571.1,692.9 L 573.0,697.4 L 573.2,703.2 L 572.3,709.9 L 573.4,716.2 L 573.2,720.2 L 573.7,728.3 L 574.2,730.0 L 574.7,730.5 L 576.2,730.8 L 580.8,730.1 L 586.2,732.2 L 588.6,732.5 L 591.6,732.4 L 593.4,731.8 L 595.0,730.5 L 596.8,729.8 L 598.7,729.9 L 599.9,730.6 L 600.6,731.7 L 601.4,733.3 L 602.1,736.7 L 603.5,738.6 L 605.6,739.6 L 608.5,739.9 L 608.9,740.1 L 608.8,740.8 L 606.6,744.7 L 538.6,792.3 Z M 489.1,586.8 L 493.6,587.2 L 495.8,587.1 L 499.1,586.1 L 499.6,586.2 L 500.6,588.0 L 500.8,589.3 L 500.6,590.6 L 498.8,593.2 L 497.0,594.0 L 494.7,593.9 L 489.1,592.5 L 488.4,592.3 L 489.1,586.8 Z" class="poly" fill="#e3a76f" data-short="11N02E20K004M" data-ma="Other" data-base-year="1999" data-end-year="2025" data-span="26" data-area="19,704" data-rms-wells="11N02E20K004M" data-sy="0.0782" data-sy-source="SVSim" data-avg-dgwe="-0.22" data-cum-stor="-8,691" data-avg-rate="-334" data-critdry-share="83%" data-crit-share="48%" data-bucket-wet="+12,497" data-bucket-an="+10,709" data-bucket-bn="-154" data-bucket-dry="-14,176" data-bucket-critical="-17,566" data-hold="334" data-project="0" data-project-name="" data-coverage="-334" data-late=""><title>Click for 11N02E20K004M detail</title></path>
<path d="M 535.2,804.4 L 548.7,833.3 L 546.5,834.8 L 545.0,835.1 L 542.9,837.6 L 540.5,839.4 L 538.4,839.5 L 536.0,838.7 L 534.9,838.9 L 533.9,840.2 L 532.2,845.5 L 524.0,839.9 L 521.2,837.1 L 517.6,835.2 L 513.0,835.0 L 509.5,832.8 L 507.4,830.2 L 506.8,828.7 L 535.2,804.4 Z" class="poly" fill="#a8c8b0" data-short="10N02E09N001M" data-ma="Other" data-base-year="2002" data-end-year="2025" data-span="23" data-area="1,358" data-rms-wells="10N02E09N001M" data-sy="0.0698" data-sy-source="SVSim" data-avg-dgwe="+0.01" data-cum-stor="+25" data-avg-rate="+1" data-critdry-share="64%" data-crit-share="42%" data-bucket-wet="+915" data-bucket-an="+922" data-bucket-bn="-73" data-bucket-dry="-651" data-bucket-critical="-1,088" data-hold="0" data-project="0" data-project-name="" data-coverage="+0" data-late="1"><title>Click for 10N02E09N001M detail</title></path>
<path d="M 466.4,761.2 L 538.6,792.3 L 535.2,804.4 L 506.8,828.7 L 507.3,825.0 L 507.0,824.2 L 506.4,823.8 L 505.3,824.0 L 504.3,824.7 L 497.8,825.4 L 494.6,827.4 L 493.0,827.2 L 490.9,825.9 L 489.0,826.4 L 486.7,826.0 L 486.0,826.4 L 485.1,828.1 L 458.0,771.9 L 466.4,761.2 Z" class="poly" fill="#f0d9a8" data-short="10N02E06B001M" data-ma="Other" data-base-year="2001" data-end-year="2025" data-span="24" data-area="4,744" data-rms-wells="10N02E06B001M" data-sy="0.0565" data-sy-source="SVSim" data-avg-dgwe="-0.25" data-cum-stor="-1,584" data-avg-rate="-66" data-critdry-share="81%" data-crit-share="68%" data-bucket-wet="+2,137" data-bucket-an="+4,567" data-bucket-bn="+866" data-bucket-dry="-78" data-bucket-critical="-9,077" data-hold="66" data-project="0" data-project-name="" data-coverage="-66" data-late="1"><title>Click for 10N02E06B001M detail</title></path>
<path d="M 535.2,804.4 L 538.6,792.3 L 606.6,744.7 L 606.1,745.9 L 606.1,747.2 L 607.1,750.1 L 608.4,752.4 L 608.4,756.1 L 609.2,757.2 L 611.2,758.6 L 613.6,764.3 L 613.9,766.6 L 613.5,769.0 L 612.5,771.2 L 606.8,776.4 L 606.4,777.6 L 606.8,778.9 L 608.7,781.1 L 612.1,784.0 L 614.2,784.5 L 617.9,784.0 L 619.2,784.2 L 620.6,785.2 L 622.1,787.7 L 623.4,788.7 L 626.9,789.0 L 630.5,789.9 L 631.4,790.5 L 631.1,791.7 L 628.5,794.0 L 624.3,800.0 L 623.3,802.8 L 623.4,805.5 L 624.0,807.7 L 626.1,811.8 L 627.2,812.7 L 628.8,812.6 L 630.5,811.4 L 632.3,808.6 L 633.0,806.2 L 632.8,803.7 L 632.1,801.8 L 632.0,799.8 L 632.4,798.7 L 633.6,797.0 L 635.5,795.6 L 636.7,795.2 L 642.4,796.7 L 643.1,796.6 L 643.6,795.9 L 643.7,794.2 L 643.4,792.1 L 642.4,788.7 L 638.3,783.2 L 636.8,781.6 L 636.7,779.6 L 637.3,778.1 L 638.4,777.2 L 639.9,776.6 L 642.3,776.4 L 643.5,776.7 L 643.9,777.2 L 644.4,779.8 L 645.0,780.8 L 646.5,782.2 L 648.8,783.1 L 650.7,782.9 L 653.2,782.2 L 656.6,780.6 L 661.6,780.3 L 663.7,778.8 L 663.8,777.9 L 663.2,776.5 L 661.7,775.5 L 658.3,774.6 L 656.8,773.9 L 654.1,771.5 L 653.7,770.6 L 654.3,769.7 L 656.4,769.2 L 660.6,770.1 L 662.8,771.3 L 664.9,773.5 L 666.4,775.8 L 667.3,778.7 L 667.8,779.2 L 669.2,779.3 L 668.3,783.1 L 668.3,785.5 L 667.8,786.7 L 669.7,829.5 L 668.1,829.7 L 667.4,830.6 L 667.1,844.5 L 667.3,845.3 L 667.9,845.8 L 670.0,845.9 L 669.1,850.2 L 663.7,867.0 L 663.4,867.7 L 661.9,867.5 L 661.2,868.4 L 661.2,877.1 L 660.3,877.1 L 659.5,877.9 L 659.4,884.5 L 658.6,884.8 L 658.2,885.9 L 658.6,889.8 L 657.6,890.1 L 657.2,890.9 L 658.4,904.7 L 628.9,904.8 L 628.6,865.9 L 628.1,864.8 L 627.5,864.6 L 609.0,864.2 L 609.2,845.6 L 609.0,844.7 L 608.1,844.2 L 588.9,845.0 L 588.7,835.7 L 588.4,834.9 L 587.8,834.4 L 581.9,833.0 L 578.3,833.2 L 573.7,831.0 L 571.3,831.3 L 564.5,835.5 L 555.3,832.9 L 553.4,833.0 L 550.9,833.7 L 548.7,833.3 L 535.2,804.4 Z" class="poly" fill="#f0d9a8" data-short="10N02E03R002M" data-ma="Other" data-base-year="2001" data-end-year="2025" data-span="24" data-area="16,979" data-rms-wells="10N02E03R002M" data-sy="0.0787" data-sy-source="SVSim" data-avg-dgwe="-0.09" data-cum-stor="-2,940" data-avg-rate="-122" data-critdry-share="80%" data-crit-share="71%" data-bucket-wet="+9,137" data-bucket-an="+18,694" data-bucket-bn="-1,406" data-bucket-dry="-2,742" data-bucket-critical="-26,623" data-hold="122" data-project="0" data-project-name="" data-coverage="-122" data-late="1"><title>Click for 10N02E03R002M detail</title></path>
<path d="M 458.0,771.9 L 485.1,828.1 L 484.3,830.2 L 484.4,832.3 L 483.2,835.5 L 483.2,837.4 L 482.3,842.1 L 478.2,843.1 L 475.1,845.7 L 474.2,847.6 L 474.1,850.3 L 473.5,850.9 L 473.0,851.0 L 472.2,850.6 L 470.7,848.0 L 469.6,847.9 L 464.8,854.0 L 464.0,855.3 L 459.7,859.9 L 458.1,860.9 L 456.6,862.6 L 450.3,865.1 L 450.6,861.8 L 450.1,856.9 L 448.1,855.0 L 439.3,848.4 L 438.0,833.2 L 437.1,832.4 L 434.7,831.9 L 431.5,831.9 L 428.4,821.4 L 423.5,811.4 L 424.9,810.6 L 425.3,809.9 L 425.2,809.0 L 415.5,793.4 L 458.0,771.9 Z" class="poly" fill="#f0d9a8" data-short="10N01E02Q002M" data-ma="Other" data-base-year="2001" data-end-year="2025" data-span="24" data-area="5,632" data-rms-wells="10N01E02Q002M" data-sy="0.0706" data-sy-source="SVSim" data-avg-dgwe="-0.09" data-cum-stor="-855" data-avg-rate="-36" data-critdry-share="68%" data-crit-share="52%" data-bucket-wet="+485" data-bucket-an="+4,109" data-bucket-bn="-1,039" data-bucket-dry="-1,278" data-bucket-critical="-3,132" data-hold="36" data-project="0" data-project-name="" data-coverage="-36" data-late="1"><title>Click for 10N01E02Q002M detail</title></path>
<circle class="well" cx="168.1" cy="412.2" r="3.0"/>
<text class="label" x="158.3" y="430.9">29J00</text>
<circle class="well" cx="166.1" cy="507.0" r="3.0"/>
<text class="label" x="168.0" y="532.1">20H00</text>
<circle class="well" cx="234.5" cy="470.4" r="3.0"/>
<text class="label" x="258.5" y="463.1">12L00</text>
<circle class="well" cx="314.9" cy="518.2" r="3.0"/>
<text class="label" x="310.4" y="523.8">22P00</text>
<circle class="well" cx="120.1" cy="377.2" r="3.0"/>
<text class="label" x="108.5" y="402.2">24C00</text>
<circle class="well" cx="208.5" cy="489.1" r="3.0"/>
<text class="label" x="234.0" y="535.8">15J00</text>
<circle class="well" cx="465.0" cy="464.9" r="3.0"/>
<text class="label" x="464.9" y="484.7">11A00</text>
<circle class="well" cx="459.5" cy="439.0" r="3.0"/>
<text class="label" x="411.6" y="412.5">35P00</text>
<circle class="well" cx="355.1" cy="498.8" r="3.0"/>
<text class="label" x="342.2" y="443.8">13P00</text>
<circle class="well" cx="367.9" cy="560.5" r="3.0"/>
<text class="label" x="381.4" y="583.2">06D00</text>
<circle class="well" cx="464.5" cy="645.7" r="3.0"/>
<text class="label" x="482.5" y="640.8">26A00</text>
<circle class="well" cx="453.0" cy="683.6" r="3.0"/>
<text class="label" x="434.5" y="683.7">02D00</text>
<circle class="well" cx="444.4" cy="576.6" r="3.0"/>
<text class="label" x="457.9" y="560.9">03R00</text>
<circle class="well" cx="279.6" cy="562.1" r="3.0"/>
<text class="label" x="303.3" y="617.3">Dunnigan</text>
<circle class="well" cx="259.8" cy="467.9" r="3.0"/>
<text class="label" x="309.9" y="527.0">07G00</text>
<circle class="well" cx="230.7" cy="372.7" r="3.0"/>
<text class="label" x="247.7" y="379.9">13N00</text>
<circle class="well" cx="282.0" cy="202.8" r="3.0"/>
<text class="label" x="329.1" y="212.0">05G00</text>
<circle class="well" cx="131.9" cy="261.7" r="3.0"/>
<text class="label" x="118.4" y="226.0">19E00</text>
<circle class="well" cx="209.5" cy="381.3" r="3.0"/>
<text class="label" x="188.6" y="418.8">22A00</text>
<circle class="well" cx="103.8" cy="376.3" r="3.0"/>
<text class="label" x="98.6" y="389.8">14Q00</text>
<circle class="well" cx="300.2" cy="327.1" r="3.0"/>
<text class="label" x="400.7" y="356.7">04K00</text>
<circle class="well" cx="417.5" cy="741.0" r="3.0"/>
<text class="label" x="413.9" y="626.2">16P00</text>
<circle class="well" cx="518.9" cy="754.3" r="3.0"/>
<text class="label" x="532.2" y="664.2">20K00</text>
<circle class="well" cx="529.6" cy="841.8" r="3.0"/>
<text class="label" x="529.9" y="833.2">09N00</text>
<circle class="well" cx="497.5" cy="804.2" r="3.0"/>
<text class="label" x="496.0" y="813.4">06B00</text>
<circle class="well" cx="567.4" cy="824.0" r="3.0"/>
<text class="label" x="631.2" y="806.5">03R00</text>
<circle class="well" cx="458.7" cy="823.0" r="3.0"/>
<text class="label" x="456.9" y="836.5">02Q00</text>
<g transform="translate(16,990)">
<rect class="legend-bg" x="-8" y="-22" width="675" height="86"/>
<text class="legend-title" x="0" y="-6">Polygon avg observed storage loss rate (AF/yr)</text>
<text class="legend-text" x="0" y="9" font-style="italic" font-size="9.5" fill="#5b5547">light green = gaining storage  ·  oranges → reds = loss magnitude per year</text>
<rect x="11.0" y="18" width="60" height="18" fill="#a8c8b0" stroke="#332e22" stroke-width="0.4"/>
<text class="legend-text" x="41.0" y="48" text-anchor="middle">Gaining</text>
<rect x="93.0" y="18" width="60" height="18" fill="#f0d9a8" stroke="#332e22" stroke-width="0.4"/>
<text class="legend-text" x="123.0" y="48" text-anchor="middle">Loss < 250</text>
<rect x="175.0" y="18" width="60" height="18" fill="#e3a76f" stroke="#332e22" stroke-width="0.4"/>
<text class="legend-text" x="205.0" y="48" text-anchor="middle">Loss < 750</text>
<rect x="257.0" y="18" width="60" height="18" fill="#cb7740" stroke="#332e22" stroke-width="0.4"/>
<text class="legend-text" x="287.0" y="48" text-anchor="middle">Loss < 1,500</text>
<rect x="339.0" y="18" width="60" height="18" fill="#a84a2c" stroke="#332e22" stroke-width="0.4"/>
<text class="legend-text" x="369.0" y="48" text-anchor="middle">Loss < 2,500</text>
<rect x="421.0" y="18" width="60" height="18" fill="#7c2820" stroke="#332e22" stroke-width="0.4"/>
<text class="legend-text" x="451.0" y="48" text-anchor="middle">Loss ≥ 2,500</text>
<circle cx="508" cy="22" r="3"/>
<text class="legend-text" x="518" y="26">Proposed 2027 RMS well</text>
</g>
</svg>