<svg xmlns="http://www.w3.org/2000/svg" viewBox="0 0 700 1080" style="background:#fafaf7;font-family:ui-sans-serif,system-ui;width:100%;height:auto;display:block;">
<defs><style>.poly{stroke:#5b5547;stroke-width:0.7;cursor:pointer;fill-rule:evenodd;}.poly:hover{stroke-width:2;filter:brightness(1.05);}.well{fill:#1f1f1f;pointer-events:none;}.label{font-size:8.5px;fill:#332e22;text-anchor:middle;font-weight:500;pointer-events:none;}.title{font-size:13px;font-weight:700;fill:#1a1612;text-anchor:middle;}.subtitle{font-size:11px;fill:#5b5547;text-anchor:middle;font-style:italic;}.legend-text{font-size:10.5px;fill:#332e22;}.legend-title{font-size:11px;font-weight:700;fill:#1a1612;}.legend-bg{fill:#fafaf7;fill-opacity:0.97;stroke:#cfc9b8;stroke-width:0.6;}</style></defs>
<text class="title" x="350.0" y="18">SCNY region RMS network (27 polygons) — Observed avg storage loss rate (AF/yr)</text>
<text class="subtitle" x="350.0" y="32">Click any polygon for detail. Color = polygon avg loss rate (positive = losing storage).</text>
<path d="M 330.5,412.0 L 313.6,464.3 L 266.8,515.6 L 252.1,518.7 L 242.4,421.1 L 300.4,403.4 L 330.5,412.0 Z" class="poly" fill="#cb7740" data-short="13N01W07G001M" data-ma="Other" data-base-year="1999" data-end-year="2025" data-span="26" data-area="10,010" data-rms-wells="13N01W07G001M" data-sy="0.0743" data-sy-source="SVSim" data-avg-dgwe="-1.14" data-cum-stor="-22,008" data-avg-rate="-846" data-critdry-share="78%" data-crit-share="45%" data-bucket-wet="+15,745" data-bucket-an="+16,567" data-bucket-bn="-9,633" data-bucket-dry="-19,398" data-bucket-critical="-25,289" data-hold="846" data-project="0" data-project-name="" data-coverage="-846" data-late=""><title>Click for 13N01W07G001M detail</title></path>
<path d="M 165.5,365.4 L 212.4,428.5 L 197.2,445.9 L 171.2,459.7 L 106.9,458.4 L 105.5,448.8 L 107.9,444.3 L 165.5,365.4 Z" class="poly" fill="#7c2820" data-short="14N02W29J001M" data-ma="CCWD" data-base-year="1999" data-end-year="2015" data-span="16" data-area="8,819" data-rms-wells="14N02W29J001M" data-sy="0.0729" data-sy-source="SVSim" data-avg-dgwe="-4.96" data-cum-stor="-50,981" data-avg-rate="-3,186" data-critdry-share="71%" data-crit-share="57%" data-bucket-wet="-1,244" data-bucket-an="-4,500" data-bucket-bn="-7,673" data-bucket-dry="-7,348" data-bucket-critical="-30,216" data-hold="3,186" data-project="0" data-project-name="" data-coverage="-3,186" data-late=""><title>Click for 14N02W29J001M detail</title></path>
<path d="M 420.0,514.3 L 404.6,464.3 L 478.4,448.6 L 484.5,451.5 L 488.7,456.1 L 489.9,457.0 L 493.6,458.9 L 494.8,459.7 L 495.7,460.9 L 495.9,462.6 L 494.9,464.3 L 490.3,469.3 L 488.5,470.6 L 486.6,471.0 L 481.8,470.9 L 477.9,471.6 L 472.1,471.6 L 471.0,471.8 L 469.7,472.5 L 468.8,474.5 L 468.7,475.8 L 468.3,482.5 L 468.5,489.0 L 468.0,491.1 L 466.7,492.4 L 459.4,494.1 L 456.0,496.5 L 454.7,498.1 L 453.5,501.2 L 453.6,504.8 L 454.5,507.0 L 456.3,509.8 L 456.4,511.1 L 452.4,515.4 L 447.4,518.3 L 447.1,518.7 L 447.3,519.4 L 420.0,514.3 Z" class="poly" fill="#f0d9a8" data-short="13N01E11A001M" data-ma="RD108" data-base-year="1999" data-end-year="2025" data-span="26" data-area="5,596" data-rms-wells="13N01E11A001M" data-sy="0.0972" data-sy-source="SVSim" data-avg-dgwe="-0.01" data-cum-stor="-158" data-avg-rate="-6" data-critdry-share="72%" data-crit-share="11%" data-bucket-wet="+4,169" data-bucket-an="+1,591" data-bucket-bn="-903" data-bucket-dry="-4,857" data-bucket-critical="-158" data-hold="6" data-project="0" data-project-name="" data-coverage="-6" data-late=""><title>Click for 13N01E11A001M detail</title></path>
<path d="M 220.9,282.0 L 300.4,403.4 L 242.4,421.1 L 238.2,421.3 L 191.8,307.8 L 220.9,282.0 Z" class="poly" fill="#e3a76f" data-short="14N02W13N001M" data-ma="Other" data-base-year="2000" data-end-year="2025" data-span="25" data-area="10,732" data-rms-wells="14N02W13N001M" data-sy="0.0783" data-sy-source="SVSim" data-avg-dgwe="-0.38" data-cum-stor="-7,983" data-avg-rate="-319" data-critdry-share="81%" data-crit-share="21%" data-bucket-wet="+15,441" data-bucket-an="+5,504" data-bucket-bn="-5,147" data-bucket-dry="-26,680" data-bucket-critical="+2,899" data-hold="319" data-project="0" data-project-name="" data-coverage="-319" data-late="1"><title>Click for 14N02W13N001M detail</title></path>
<path d="M 345.8,257.0 L 344.6,256.3 L 343.1,256.0 L 342.3,256.3 L 341.1,257.7 L 223.7,274.8 L 185.6,178.0 L 194.3,176.6 L 200.6,175.2 L 300.5,175.3 L 300.5,176.0 L 305.3,175.9 L 305.2,181.7 L 320.4,181.8 L 320.4,189.4 L 325.0,187.1 L 328.7,184.6 L 331.1,182.1 L 332.3,181.5 L 333.9,182.1 L 338.2,184.4 L 343.1,186.4 L 343.4,186.3 L 342.6,187.6 L 345.5,189.9 L 345.9,191.2 L 345.8,192.6 L 344.6,193.8 L 340.2,195.6 L 338.2,197.5 L 336.6,199.5 L 335.8,201.3 L 334.5,203.2 L 333.9,205.1 L 334.2,206.5 L 334.9,207.7 L 340.1,214.0 L 341.3,216.4 L 342.1,218.4 L 343.1,223.7 L 345.0,230.3 L 346.1,232.8 L 347.3,234.1 L 349.4,235.7 L 352.4,236.9 L 354.5,238.1 L 357.4,240.9 L 360.6,243.1 L 363.4,246.6 L 364.5,249.7 L 364.3,251.9 L 363.8,254.4 L 345.8,257.0 Z" class="poly" fill="#a8c8b0" data-short="15N01W05G001M" data-ma="Other" data-base-year="1999" data-end-year="2025" data-span="26" data-area="20,105" data-rms-wells="15N01W05G001M" data-sy="0.0759" data-sy-source="SVSim" data-avg-dgwe="+0.30" data-cum-stor="+12,055" data-avg-rate="+464" data-critdry-share="60%" data-crit-share="7%" data-bucket-wet="+18,489" data-bucket-an="+18,413" data-bucket-bn="-8,825" data-bucket-dry="-18,006" data-bucket-critical="+1,984" data-hold="0" data-project="0" data-project-name="" data-coverage="+0" data-late=""><title>Click for 15N01W05G001M detail</title></path>
<path d="M 223.7,274.8 L 220.9,282.0 L 191.8,307.8 L 167.4,323.7 L 115.4,318.4 L 49.6,302.3 L 50.4,301.3 L 52.1,301.2 L 52.3,300.7 L 54.5,299.5 L 55.2,298.4 L 63.9,292.6 L 66.6,287.8 L 72.3,263.3 L 74.7,260.9 L 78.4,258.6 L 81.5,254.5 L 81.3,248.2 L 80.5,247.4 L 80.2,245.9 L 82.3,243.1 L 83.7,242.9 L 85.0,241.3 L 86.2,240.7 L 86.8,239.7 L 87.5,239.7 L 88.6,240.4 L 89.6,240.2 L 89.4,238.3 L 90.3,238.0 L 91.6,236.0 L 93.2,232.2 L 95.0,230.3 L 96.6,230.5 L 96.9,230.2 L 97.3,227.7 L 99.7,224.6 L 101.4,222.9 L 102.0,221.6 L 104.0,220.9 L 105.3,221.4 L 105.6,222.0 L 106.9,221.4 L 107.5,220.4 L 107.4,219.3 L 108.3,219.0 L 108.7,218.3 L 107.6,217.5 L 107.9,215.5 L 108.8,214.9 L 111.1,214.6 L 112.0,213.5 L 112.9,214.2 L 113.2,213.7 L 114.4,213.2 L 115.4,211.2 L 121.7,207.0 L 132.2,207.1 L 133.1,206.8 L 133.4,206.4 L 132.7,205.5 L 132.7,204.9 L 133.4,203.9 L 133.2,202.7 L 133.8,200.8 L 134.9,200.3 L 135.9,199.1 L 136.8,198.8 L 138.2,197.7 L 140.0,194.9 L 141.7,194.4 L 142.4,193.6 L 144.6,192.8 L 144.7,192.0 L 146.0,191.4 L 146.2,191.0 L 148.2,189.7 L 149.6,189.2 L 150.6,188.0 L 152.8,187.8 L 155.2,184.7 L 161.3,184.1 L 164.0,182.7 L 164.6,182.7 L 165.3,183.1 L 173.3,180.5 L 176.1,178.5 L 179.5,178.7 L 180.3,179.1 L 185.6,178.0 L 223.7,274.8 Z" class="poly" fill="#e3a76f" data-short="15N02W19E001M" data-ma="Other" data-base-year="1999" data-end-year="2025" data-span="26" data-area="24,364" data-rms-wells="15N02W19E001M" data-sy="0.0689" data-sy-source="SVSim" data-avg-dgwe="-0.30" data-cum-stor="-13,178" data-avg-rate="-507" data-critdry-share="64%" data-crit-share="24%" data-bucket-wet="+11,636" data-bucket-an="+2,823" data-bucket-bn="-8,114" data-bucket-dry="-13,346" data-bucket-critical="-6,178" data-hold="507" data-project="0" data-project-name="" data-coverage="-507" data-late=""><title>Click for 15N02W19E001M detail</title></path>
<path d="M 404.6,464.3 L 368.0,400.0 L 398.0,357.2 L 402.4,358.3 L 407.2,358.3 L 408.2,358.6 L 410.8,360.1 L 414.5,363.2 L 415.8,363.6 L 418.9,362.6 L 425.7,361.7 L 429.8,359.9 L 434.7,357.1 L 436.5,356.8 L 437.5,357.0 L 439.1,358.2 L 444.4,363.8 L 448.4,366.2 L 449.4,367.3 L 449.5,369.2 L 446.8,383.2 L 447.4,388.1 L 448.4,392.1 L 449.7,394.8 L 451.1,396.6 L 454.3,399.7 L 457.7,401.7 L 459.0,403.3 L 459.2,404.0 L 459.2,406.0 L 457.6,409.9 L 457.9,411.2 L 459.0,411.8 L 463.6,411.6 L 465.7,413.9 L 466.4,415.6 L 466.7,421.0 L 467.9,425.7 L 468.2,428.3 L 466.7,431.5 L 462.4,438.0 L 462.1,439.4 L 462.5,440.8 L 463.0,441.5 L 470.1,447.9 L 473.3,448.3 L 476.0,448.0 L 478.4,448.6 L 404.6,464.3 Z" class="poly" fill="#a8c8b0" data-short="14N01E35P003M" data-ma="RD108" data-base-year="2011" data-end-year="2025" data-span="14" data-area="11,563" data-rms-wells="14N01E35P003M" data-sy="0.0806" data-sy-source="SVSim" data-avg-dgwe="+0.03" data-cum-stor="+450" data-avg-rate="+32" data-critdry-share="47%" data-crit-share="12%" data-bucket-wet="+11,924" data-bucket-an="+1,395" data-bucket-bn="-6,544" data-bucket-dry="-4,669" data-bucket-critical="-1,656" data-hold="0" data-project="0" data-project-name="" data-coverage="+0" data-late="1"><title>Click for 14N01E35P003M detail</title></path>
<path d="M 404.6,464.3 L 420.0,514.3 L 416.7,518.1 L 346.7,532.7 L 313.6,464.3 L 330.5,412.0 L 368.0,400.0 L 404.6,464.3 Z" class="poly" fill="#e3a76f" data-short="13N01W13P003M" data-ma="RD108" data-base-year="1999" data-end-year="2025" data-span="26" data-area="14,280" data-rms-wells="13N01W13P003M" data-sy="0.0758" data-sy-source="SVSim" data-avg-dgwe="-0.39" data-cum-stor="-10,860" data-avg-rate="-418" data-critdry-share="60%" data-crit-share="38%" data-bucket-wet="+15,157" data-bucket-an="+2,369" data-bucket-bn="-8,517" data-bucket-dry="-6,615" data-bucket-critical="-13,253" data-hold="418" data-project="0" data-project-name="" data-coverage="-418" data-late=""><title>Click for 13N01W13P003M detail</title></path>
<path d="M 346.7,532.7 L 416.7,518.1 L 393.5,628.9 L 382.4,641.5 L 353.8,661.5 L 325.7,669.2 L 323.7,561.6 L 346.7,532.7 Z" class="poly" fill="#e3a76f" data-short="12N01E06D004M" data-ma="RD108" data-base-year="1999" data-end-year="2025" data-span="26" data-area="15,170" data-rms-wells="12N01E06D004M" data-sy="0.0784" data-sy-source="SVSim" data-avg-dgwe="-0.48" data-cum-stor="-14,807" data-avg-rate="-570" data-critdry-share="69%" data-crit-share="35%" data-bucket-wet="+26,192" data-bucket-an="+6,010" data-bucket-bn="-12,575" data-bucket-dry="-16,984" data-bucket-critical="-17,449" data-hold="569" data-project="0" data-project-name="" data-coverage="-569" data-late=""><title>Click for 12N01E06D004M detail</title></path>
<path d="M 165.5,365.4 L 167.4,323.7 L 191.8,307.8 L 238.2,421.3 L 212.4,428.5 L 165.5,365.4 Z" class="poly" fill="#f0d9a8" data-short="14N02W22A005M" data-ma="Other" data-base-year="2020" data-end-year="2025" data-span="5" data-area="6,830" data-rms-wells="14N02W22A005M" data-sy="0.0653" data-sy-source="SVSim" data-avg-dgwe="-0.23" data-cum-stor="-509" data-avg-rate="-102" data-critdry-share="100%" data-crit-share="100%" data-bucket-wet="+9,620" data-bucket-an="+4,119" data-bucket-bn="+0" data-bucket-dry="+0" data-bucket-critical="-14,248" data-hold="102" data-project="0" data-project-name="" data-coverage="-102" data-late="1"><title>Click for 14N02W22A005M detail</title></path>
<path d="M 115.4,318.4 L 107.9,444.3 L 105.5,448.8 L 102.0,425.9 L 67.8,366.9 L 51.4,357.6 L 47.8,328.6 L 30.0,329.0 L 33.1,324.1 L 34.0,323.4 L 33.9,322.3 L 35.0,322.2 L 34.8,321.4 L 35.7,320.1 L 36.4,319.5 L 36.6,318.8 L 37.9,319.0 L 38.0,318.8 L 38.5,318.8 L 38.4,317.2 L 38.6,316.9 L 39.5,317.1 L 39.9,316.6 L 39.9,315.7 L 40.3,315.0 L 40.8,315.0 L 41.3,315.7 L 41.6,315.3 L 42.1,315.2 L 42.5,314.4 L 44.2,314.4 L 44.0,312.8 L 44.2,312.0 L 45.5,310.5 L 46.0,310.5 L 46.8,308.1 L 46.0,306.9 L 46.2,305.4 L 46.5,304.9 L 47.5,304.6 L 48.0,303.9 L 48.6,303.7 L 49.6,302.3 L 115.4,318.4 Z" class="poly" fill="#a84a2c" data-short="14N03W14Q003M" data-ma="Other" data-base-year="2001" data-end-year="2022" data-span="21" data-area="8,615" data-rms-wells="14N03W14Q003M" data-sy="0.0751" data-sy-source="SVSim" data-avg-dgwe="-3.39" data-cum-stor="-46,000" data-avg-rate="-2,190" data-critdry-share="52%" data-crit-share="31%" data-bucket-wet="-10,524" data-bucket-an="+5,230" data-bucket-bn="-14,471" data-bucket-dry="-8,249" data-bucket-critical="-17,986" data-hold="2,190" data-project="0" data-project-name="" data-coverage="-2,190" data-late="1"><title>Click for 14N03W14Q003M detail</title></path>
<path d="M 220.9,282.0 L 223.7,274.8 L 341.1,257.7 L 340.4,259.4 L 340.3,260.4 L 340.9,265.7 L 340.9,268.7 L 341.9,271.1 L 343.9,273.7 L 346.8,275.9 L 348.8,276.7 L 352.5,277.5 L 354.0,277.5 L 355.7,278.1 L 357.4,280.5 L 359.1,285.8 L 360.5,286.9 L 362.7,286.9 L 366.0,285.2 L 369.4,284.3 L 370.5,284.6 L 371.6,285.7 L 372.4,288.3 L 372.5,291.8 L 371.5,293.8 L 369.5,295.9 L 369.2,297.6 L 370.1,299.0 L 372.2,299.5 L 373.3,299.1 L 375.1,297.1 L 376.0,296.7 L 377.0,296.7 L 377.7,297.7 L 379.7,304.9 L 379.2,307.1 L 377.1,311.0 L 376.9,311.7 L 377.3,313.6 L 378.5,315.1 L 380.2,316.0 L 382.0,316.3 L 383.1,317.1 L 383.6,317.9 L 384.3,320.9 L 384.9,322.0 L 386.3,322.4 L 388.7,322.5 L 389.9,323.7 L 390.5,328.4 L 388.4,333.9 L 388.4,336.0 L 388.6,336.8 L 389.6,337.9 L 393.9,341.3 L 394.4,343.2 L 393.9,343.9 L 391.7,344.0 L 390.2,344.6 L 389.2,345.7 L 389.0,346.6 L 390.5,349.7 L 394.0,354.9 L 395.8,356.3 L 398.0,357.2 L 368.0,400.0 L 330.5,412.0 L 300.4,403.4 L 220.9,282.0 Z M 363.8,254.4 L 363.3,256.8 L 362.6,258.4 L 361.8,259.5 L 360.7,260.0 L 359.9,260.0 L 356.6,258.4 L 355.6,258.2 L 350.4,258.6 L 348.7,258.3 L 345.8,257.0 L 363.8,254.4 Z" class="poly" fill="#e3a76f" data-short="14N01W04K003M" data-ma="Other" data-base-year="1999" data-end-year="2022" data-span="23" data-area="26,919" data-rms-wells="14N01W04K003M" data-sy="0.0824" data-sy-source="SVSim" data-avg-dgwe="-0.17" data-cum-stor="-8,872" data-avg-rate="-386" data-critdry-share="76%" data-crit-share="19%" data-bucket-wet="+15,416" data-bucket-an="+5,545" data-bucket-bn="-3,438" data-bucket-dry="-25,619" data-bucket-critical="-776" data-hold="386" data-project="0" data-project-name="" data-coverage="-386" data-late=""><title>Click for 14N01W04K003M detail</title></path>
<path d="M 171.2,459.7 L 212.1,556.8 L 201.6,578.4 L 190.2,578.5 L 190.3,559.3 L 180.0,559.3 L 180.1,570.5 L 170.5,570.4 L 170.2,559.3 L 169.1,559.3 L 152.8,542.2 L 130.1,498.2 L 107.4,461.6 L 106.9,458.4 L 171.2,459.7 Z" class="poly" fill="#cb7740" data-short="13N02W20H002M" data-ma="CCWD" data-base-year="2007" data-end-year="2025" data-span="18" data-area="9,617" data-rms-wells="13N02W20H002M" data-sy="0.0893" data-sy-source="SVSim" data-avg-dgwe="-1.53" data-cum-stor="-23,703" data-avg-rate="-1,317" data-critdry-share="76%" data-crit-share="64%" data-bucket-wet="+520" data-bucket-an="+4,118" data-bucket-bn="-1,804" data-bucket-dry="-601" data-bucket-critical="-25,936" data-hold="1,317" data-project="0" data-project-name="" data-coverage="-1,317" data-late="1"><title>Click for 13N02W20H002M detail</title></path>
<path d="M 238.2,421.3 L 242.4,421.1 L 252.1,518.7 L 250.2,519.6 L 197.2,445.9 L 212.4,428.5 L 238.2,421.3 Z" class="poly" fill="#e3a76f" data-short="13N02W12L001M" data-ma="CCWD" data-base-year="2000" data-end-year="2025" data-span="25" data-area="4,181" data-rms-wells="13N02W12L001M" data-sy="0.0679" data-sy-source="SVSim" data-avg-dgwe="-2.07" data-cum-stor="-14,704" data-avg-rate="-588" data-critdry-share="84%" data-crit-share="31%" data-bucket-wet="+5,460" data-bucket-an="+1,315" data-bucket-bn="-3,548" data-bucket-dry="-10,872" data-bucket-critical="-7,059" data-hold="588" data-project="0" data-project-name="" data-coverage="-588" data-late="1"><title>Click for 13N02W12L001M detail</title></path>
<path d="M 313.6,464.3 L 346.7,532.7 L 323.7,561.6 L 266.8,515.6 L 313.6,464.3 Z" class="poly" fill="#a8c8b0" data-short="13N01W22P002M" data-ma="CCWD" data-base-year="2000" data-end-year="2008" data-span="8" data-area="6,031" data-rms-wells="13N01W22P002M" data-sy="0.0700" data-sy-source="SVSim" data-avg-dgwe="+1.14" data-cum-stor="+3,841" data-avg-rate="+480" data-critdry-share="100%" data-crit-share="-0%" data-bucket-wet="+837" data-bucket-an="+1,674" data-bucket-bn="+837" data-bucket-dry="-5,375" data-bucket-critical="+5,868" data-hold="0" data-project="0" data-project-name="" data-coverage="+0" data-late="1"><title>Click for 13N01W22P002M detail</title></path>
<path d="M 115.4,318.4 L 167.4,323.7 L 165.5,365.4 L 107.9,444.3 L 115.4,318.4 Z" class="poly" fill="#cb7740" data-short="14N03W24C001M" data-ma="CCWD" data-base-year="2000" data-end-year="2020" data-span="20" data-area="6,994" data-rms-wells="14N03W24C001M" data-sy="0.0796" data-sy-source="SVSim" data-avg-dgwe="-2.43" data-cum-stor="-27,057" data-avg-rate="-1,353" data-critdry-share="59%" data-crit-share="36%" data-bucket-wet="-863" data-bucket-an="+1,949" data-bucket-bn="-8,434" data-bucket-dry="-6,931" data-bucket-critical="-12,777" data-hold="1,353" data-project="0" data-project-name="" data-coverage="-1,353" data-late="1"><title>Click for 14N03W24C001M detail</title></path>
<path d="M 212.1,556.8 L 171.2,459.7 L 197.2,445.9 L 250.2,519.6 L 212.1,556.8 Z" class="poly" fill="#a84a2c" data-short="13N02W15J001M" data-ma="CCWD" data-base-year="1999" data-end-year="2014" data-span="15" data-area="6,250" data-rms-wells="13N02W15J001M" data-sy="0.0769" data-sy-source="SVSim" data-avg-dgwe="-3.76" data-cum-stor="-27,106" data-avg-rate="-1,807" data-critdry-share="78%" data-crit-share="33%" data-bucket-wet="+5" data-bucket-an="-1,129" data-bucket-bn="-3,936" data-bucket-dry="-12,416" data-bucket-critical="-9,629" data-hold="1,807" data-project="0" data-project-name="" data-coverage="-1,807" data-late=""><title>Click for 13N02W15J001M detail</title></path>
<path d="M 250.2,519.6 L 252.1,518.7 L 266.8,515.6 L 323.7,561.6 L 325.7,669.2 L 320.0,673.6 L 307.9,659.8 L 309.0,657.7 L 309.0,656.5 L 304.0,650.3 L 294.9,637.0 L 285.5,619.8 L 274.6,615.0 L 274.2,602.3 L 273.5,601.8 L 265.6,600.7 L 265.4,590.8 L 264.5,590.1 L 257.9,589.8 L 257.6,583.5 L 257.1,582.4 L 249.0,578.9 L 229.8,578.8 L 230.0,567.4 L 210.1,567.3 L 209.9,578.3 L 201.6,578.4 L 212.1,556.8 L 250.2,519.6 Z" class="poly" fill="#a84a2c" data-short="12N01W05B001M" data-ma="Dunnigan" data-base-year="1999" data-end-year="2025" data-span="26" data-area="13,240" data-rms-wells="12N01W05B001M" data-sy="0.0762" data-sy-source="SVSim" data-avg-dgwe="-1.58" data-cum-stor="-41,424" data-avg-rate="-1,593" data-critdry-share="65%" data-crit-share="43%" data-bucket-wet="+5,549" data-bucket-an="+17,398" data-bucket-bn="-18,412" data-bucket-dry="-13,857" data-bucket-critical="-32,102" data-hold="1,593" data-project="0" data-project-name="" data-coverage="-1,593" data-late=""><title>Click for 12N01W05B001M detail</title></path>
<path d="M 325.7,669.2 L 353.8,661.5 L 469.9,734.0 L 466.4,761.2 L 458.0,771.9 L 415.5,793.4 L 410.8,784.9 L 412.4,784.2 L 413.0,783.6 L 413.2,782.8 L 412.9,782.0 L 406.8,773.1 L 401.3,762.7 L 396.2,754.8 L 388.1,746.8 L 376.0,733.8 L 367.0,722.5 L 356.3,718.6 L 351.5,715.3 L 351.6,708.5 L 342.3,698.1 L 342.8,695.1 L 339.5,691.4 L 338.8,685.9 L 328.0,675.4 L 324.0,673.2 L 323.4,673.4 L 321.9,675.7 L 320.0,673.6 L 325.7,669.2 Z" class="poly" fill="#e3a76f" data-short="11N01E16P001M" data-ma="Other" data-base-year="1999" data-end-year="2025" data-span="26" data-area="12,828" data-rms-wells="11N01E16P001M" data-sy="0.0673" data-sy-source="SVSim" data-avg-dgwe="-0.53" data-cum-stor="-11,972" data-avg-rate="-460" data-critdry-share="80%" data-crit-share="57%" data-bucket-wet="+33,583" data-bucket-an="+8,720" data-bucket-bn="-9,151" data-bucket-dry="-13,554" data-bucket-critical="-31,570" data-hold="460" data-project="0" data-project-name="" data-coverage="-460" data-late=""><title>Click for 11N01E16P001M detail</title></path>
<path d="M 469.9,734.0 L 523.1,684.2 L 570.3,660.4 L 571.1,660.4 L 572.3,660.7 L 573.1,661.4 L 573.5,662.2 L 573.4,663.1 L 568.2,667.7 L 567.5,668.9 L 567.3,670.3 L 567.6,671.8 L 570.2,675.9 L 570.3,676.8 L 567.1,678.3 L 566.3,679.1 L 565.2,684.6 L 565.6,685.8 L 569.0,689.7 L 571.1,692.9 L 573.0,697.4 L 573.2,703.2 L 572.3,709.9 L 573.4,716.2 L 573.2,720.2 L 573.7,728.3 L 574.2,729.9 L 574.7,730.5 L 576.2,730.8 L 580.8,730.1 L 586.2,732.2 L 588.6,732.5 L 591.6,732.4 L 593.4,731.8 L 595.0,730.5 L 596.8,729.8 L 598.7,729.9 L 599.9,730.6 L 600.6,731.7 L 601.4,733.3 L 602.1,736.7 L 603.5,738.6 L 605.6,739.6 L 608.7,739.9 L 608.9,740.6 L 606.6,744.7 L 538.6,792.3 L 466.4,761.2 L 469.9,734.0 Z" class="poly" fill="#e3a76f" data-short="11N02E20K004M" data-ma="Other" data-base-year="1999" data-end-year="2025" data-span="26" data-area="15,502" data-rms-wells="11N02E20K004M" data-sy="0.0792" data-sy-source="SVSim" data-avg-dgwe="-0.22" data-cum-stor="-6,925" data-avg-rate="-266" data-critdry-share="83%" data-crit-share="48%" data-bucket-wet="+9,957" data-bucket-an="+8,533" data-bucket-bn="-123" data-bucket-dry="-11,296" data-bucket-critical="-13,997" data-hold="266" data-project="0" data-project-name="" data-coverage="-266" data-late=""><title>Click for 11N02E20K004M detail</title></path>
<path d="M 535.2,804.4 L 548.7,833.3 L 546.5,834.8 L 545.0,835.1 L 542.9,837.6 L 540.5,839.4 L 538.4,839.5 L 536.0,838.7 L 534.9,838.9 L 533.9,840.2 L 532.2,845.5 L 524.0,839.9 L 521.2,837.1 L 517.6,835.2 L 513.0,835.0 L 509.5,832.8 L 507.4,830.2 L 506.8,828.7 L 535.2,804.4 Z" class="poly" fill="#a8c8b0" data-short="10N02E09N001M" data-ma="Other" data-base-year="2002" data-end-year="2025" data-span="23" data-area="1,358" data-rms-wells="10N02E09N001M" data-sy="0.0698" data-sy-source="SVSim" data-avg-dgwe="+0.01" data-cum-stor="+25" data-avg-rate="+1" data-critdry-share="64%" data-crit-share="42%" data-bucket-wet="+915" data-bucket-an="+922" data-bucket-bn="-73" data-bucket-dry="-651" data-bucket-critical="-1,088" data-hold="0" data-project="0" data-project-name="" data-coverage="+0" data-late="1"><title>Click for 10N02E09N001M detail</title></path>
<path d="M 485.5,602.1 L 484.3,606.9 L 482.7,610.1 L 481.2,611.8 L 478.3,613.7 L 473.6,615.5 L 472.7,617.6 L 472.3,619.9 L 472.7,620.9 L 473.7,622.3 L 474.5,626.5 L 479.7,632.8 L 480.9,633.7 L 485.1,634.7 L 487.1,636.6 L 487.9,638.7 L 488.0,643.1 L 488.8,644.1 L 489.5,644.3 L 490.5,644.0 L 493.5,641.4 L 495.2,640.9 L 496.7,642.0 L 498.6,645.8 L 499.2,646.4 L 500.1,646.5 L 501.3,646.0 L 503.0,644.2 L 505.2,644.8 L 506.7,646.4 L 507.7,648.1 L 508.1,650.2 L 507.5,654.0 L 508.0,655.0 L 508.6,655.2 L 510.5,653.9 L 513.3,650.2 L 514.6,649.2 L 516.4,648.3 L 518.2,647.9 L 521.6,648.4 L 522.4,648.3 L 524.3,647.4 L 527.1,645.1 L 529.0,644.5 L 531.7,644.9 L 534.7,646.6 L 535.4,646.5 L 535.9,645.9 L 536.0,645.0 L 534.4,641.9 L 534.0,640.5 L 534.2,639.4 L 534.6,638.8 L 535.7,638.2 L 539.4,637.5 L 543.7,635.2 L 546.3,634.3 L 547.1,635.4 L 548.2,641.1 L 549.4,643.5 L 550.5,644.4 L 554.6,646.1 L 558.0,649.1 L 564.0,650.5 L 566.4,651.6 L 567.2,652.8 L 567.6,654.1 L 568.1,659.5 L 568.9,660.2 L 570.3,660.4 L 523.1,684.2 L 382.4,641.5 L 393.5,628.9 L 485.5,602.1 Z" class="poly" fill="#e3a76f" data-short="12N01E26A002M" data-ma="RD108" data-base-year="1999" data-end-year="2021" data-span="22" data-area="10,089" data-rms-wells="12N01E26A002M" data-sy="0.0780" data-sy-source="SVSim" data-avg-dgwe="-0.89" data-cum-stor="-15,322" data-avg-rate="-696" data-critdry-share="70%" data-crit-share="45%" data-bucket-wet="+2,061" data-bucket-an="-2,696" data-bucket-bn="-1,274" data-bucket-dry="-5,718" data-bucket-critical="-7,695" data-hold="696" data-project="0" data-project-name="" data-coverage="-696" data-late=""><title>Click for 12N01E26A002M detail</title></path>
<path d="M 382.4,641.5 L 523.1,684.2 L 469.9,734.0 L 353.8,661.5 L 382.4,641.5 Z" class="poly" fill="#e3a76f" data-short="11N01E02D001M" data-ma="RD108" data-base-year="1999" data-end-year="2023" data-span="24" data-area="10,867" data-rms-wells="11N01E02D001M" data-sy="0.0762" data-sy-source="SVSim" data-avg-dgwe="-0.54" data-cum-stor="-10,640" data-avg-rate="-443" data-critdry-share="76%" data-crit-share="49%" data-bucket-wet="+16,222" data-bucket-an="-5,035" data-bucket-bn="+790" data-bucket-dry="-8,675" data-bucket-critical="-13,941" data-hold="443" data-project="0" data-project-name="" data-coverage="-443" data-late=""><title>Click for 11N01E02D001M detail</title></path>
<path d="M 466.4,761.2 L 538.6,792.3 L 535.2,804.4 L 506.8,828.7 L 507.3,825.0 L 507.0,824.2 L 506.4,823.8 L 505.3,824.0 L 504.3,824.7 L 497.8,825.4 L 494.6,827.4 L 493.0,827.2 L 490.9,825.9 L 489.0,826.4 L 486.7,826.0 L 486.0,826.4 L 485.1,828.1 L 458.0,771.9 L 466.4,761.2 Z" class="poly" fill="#f0d9a8" data-short="10N02E06B001M" data-ma="Other" data-base-year="2001" data-end-year="2025" data-span="24" data-area="4,744" data-rms-wells="10N02E06B001M" data-sy="0.0565" data-sy-source="SVSim" data-avg-dgwe="-0.25" data-cum-stor="-1,584" data-avg-rate="-66" data-critdry-share="81%" data-crit-share="68%" data-bucket-wet="+2,137" data-bucket-an="+4,567" data-bucket-bn="+866" data-bucket-dry="-78" data-bucket-critical="-9,077" data-hold="66" data-project="0" data-project-name="" data-coverage="-66" data-late="1"><title>Click for 10N02E06B001M detail</title></path>
<path d="M 535.2,804.4 L 538.6,792.3 L 606.6,744.7 L 606.1,745.9 L 606.1,747.2 L 607.1,750.1 L 608.4,752.4 L 608.4,756.1 L 609.2,757.2 L 611.2,758.6 L 613.6,764.3 L 613.9,766.6 L 613.5,769.0 L 612.5,771.2 L 606.8,776.4 L 606.4,777.6 L 606.8,778.9 L 608.7,781.1 L 612.1,784.0 L 614.2,784.5 L 617.9,784.0 L 619.2,784.2 L 620.6,785.2 L 622.1,787.7 L 623.4,788.7 L 626.9,789.0 L 630.5,789.9 L 631.4,790.5 L 631.1,791.7 L 628.5,794.0 L 624.3,800.0 L 623.3,802.8 L 623.4,805.5 L 624.0,807.7 L 626.1,811.8 L 627.2,812.7 L 628.8,812.6 L 630.5,811.4 L 632.3,808.6 L 633.0,806.2 L 632.8,803.7 L 632.1,801.8 L 632.0,799.8 L 632.4,798.7 L 633.6,797.0 L 635.5,795.6 L 636.7,795.2 L 642.4,796.7 L 643.1,796.6 L 643.6,795.9 L 643.7,794.2 L 643.4,792.1 L 642.4,788.7 L 638.3,783.2 L 636.8,781.6 L 636.7,779.6 L 637.3,778.1 L 638.4,777.2 L 639.9,776.6 L 642.3,776.4 L 643.5,776.7 L 643.9,777.2 L 644.4,779.8 L 645.0,780.8 L 646.5,782.2 L 648.8,783.1 L 650.7,782.9 L 653.2,782.2 L 656.6,780.6 L 661.6,780.3 L 663.7,778.8 L 663.8,777.9 L 663.2,776.5 L 661.7,775.5 L 658.3,774.6 L 656.8,773.9 L 654.1,771.5 L 653.7,770.6 L 654.3,769.7 L 656.4,769.2 L 660.6,770.1 L 662.8,771.3 L 664.9,773.5 L 666.4,775.8 L 667.3,778.7 L 667.8,779.2 L 669.2,779.3 L 668.3,783.1 L 668.3,785.5 L 667.8,786.7 L 669.7,829.5 L 668.1,829.7 L 667.4,830.6 L 667.1,844.5 L 667.3,845.3 L 667.9,845.8 L 670.0,845.9 L 669.1,850.2 L 663.7,867.0 L 663.4,867.7 L 661.9,867.5 L 661.2,868.4 L 661.2,877.1 L 660.3,877.1 L 659.5,877.9 L 659.4,884.5 L 658.6,884.8 L 658.2,885.9 L 658.6,889.8 L 657.6,890.1 L 657.2,890.9 L 658.4,904.7 L 628.9,904.8 L 628.6,865.9 L 628.1,864.8 L 627.5,864.6 L 609.0,864.2 L 609.2,845.6 L 609.0,844.7 L 608.1,844.2 L 588.9,845.0 L 588.7,835.7 L 588.4,834.9 L 587.8,834.4 L 581.9,833.0 L 578.3,833.2 L 573.7,831.0 L 571.3,831.3 L 564.5,835.5 L 555.3,832.9 L 553.4,833.0 L 550.9,833.7 L 548.7,833.3 L 535.2,804.4 Z" class="poly" fill="#f0d9a8" data-short="10N02E03R002M" data-ma="Other" data-base-year="2001" data-end-year="2025" data-span="24" data-area="16,979" data-rms-wells="10N02E03R002M" data-sy="0.0787" data-sy-source="SVSim" data-avg-dgwe="-0.09" data-cum-stor="-2,940" data-avg-rate="-122" data-critdry-share="80%" data-crit-share="71%" data-bucket-wet="+9,137" data-bucket-an="+18,694" data-bucket-bn="-1,406" data-bucket-dry="-2,742" data-bucket-critical="-26,623" data-hold="122" data-project="0" data-project-name="" data-coverage="-122" data-late="1"><title>Click for 10N02E03R002M detail</title></path>
<path d="M 420.0,514.3 L 447.3,519.4 L 449.8,522.4 L 451.3,526.2 L 451.4,528.4 L 451.0,531.9 L 451.1,533.2 L 451.7,534.7 L 452.9,536.4 L 456.8,538.9 L 457.9,540.3 L 458.4,541.5 L 457.7,543.6 L 453.7,548.1 L 452.7,550.6 L 452.0,553.4 L 450.2,556.7 L 450.1,557.7 L 450.9,559.2 L 453.0,560.9 L 451.6,560.8 L 453.4,561.1 L 455.7,563.0 L 457.0,564.9 L 458.2,567.6 L 459.1,568.7 L 460.0,569.1 L 463.8,569.8 L 467.0,569.7 L 468.9,569.9 L 475.7,573.1 L 478.5,573.5 L 482.9,573.4 L 485.4,574.1 L 486.2,575.1 L 486.4,576.9 L 485.9,578.5 L 484.9,579.7 L 483.2,580.7 L 481.7,580.7 L 476.5,578.7 L 475.9,579.1 L 475.6,579.8 L 475.8,581.0 L 479.2,583.3 L 482.5,585.0 L 484.1,585.7 L 488.6,586.7 L 493.8,587.2 L 495.9,587.1 L 499.1,586.1 L 499.6,586.2 L 500.6,588.0 L 500.7,590.3 L 498.8,593.2 L 497.0,594.0 L 494.7,593.9 L 488.2,592.2 L 487.5,592.3 L 486.9,593.4 L 487.6,595.8 L 487.6,597.6 L 486.8,599.7 L 485.5,602.1 L 393.5,628.9 L 416.7,518.1 L 420.0,514.3 Z" class="poly" fill="#a8c8b0" data-short="12N01E03R002M" data-ma="RD108" data-base-year="2001" data-end-year="2024" data-span="23" data-area="9,644" data-rms-wells="12N01E03R002M" data-sy="0.0871" data-sy-source="SVSim" data-avg-dgwe="+0.04" data-cum-stor="+840" data-avg-rate="+36" data-critdry-share="65%" data-crit-share="48%" data-bucket-wet="+11,192" data-bucket-an="+1,652" data-bucket-bn="-5,262" data-bucket-dry="-1,911" data-bucket-critical="-4,831" data-hold="0" data-project="0" data-project-name="" data-coverage="+0" data-late="1"><title>Click for 12N01E03R002M detail</title></path>
<path d="M 458.0,771.9 L 485.1,828.1 L 484.3,830.2 L 484.4,832.3 L 483.2,835.5 L 483.2,837.4 L 482.3,842.1 L 478.2,843.1 L 475.1,845.7 L 474.2,847.6 L 474.1,850.3 L 473.5,850.9 L 473.0,851.0 L 472.2,850.6 L 470.7,848.0 L 469.6,847.9 L 464.8,854.0 L 464.0,855.3 L 459.7,859.9 L 458.1,860.9 L 456.6,862.6 L 450.3,865.1 L 450.6,861.8 L 450.1,856.9 L 448.1,855.0 L 439.3,848.4 L 438.0,833.2 L 437.1,832.4 L 434.7,831.9 L 431.5,831.9 L 428.4,821.4 L 423.5,811.4 L 424.9,810.6 L 425.3,809.9 L 425.2,809.0 L 415.5,793.4 L 458.0,771.9 Z" class="poly" fill="#f0d9a8" data-short="10N01E02Q002M" data-ma="Other" data-base-year="2001" data-end-year="2025" data-span="24" data-area="5,632" data-rms-wells="10N01E02Q002M" data-sy="0.0706" data-sy-source="SVSim" data-avg-dgwe="-0.09" data-cum-stor="-855" data-avg-rate="-36" data-critdry-share="68%" data-crit-share="52%" data-bucket-wet="+485" data-bucket-an="+4,109" data-bucket-bn="-1,039" data-bucket-dry="-1,278" data-bucket-critical="-3,132" data-hold="36" data-project="0" data-project-name="" data-coverage="-36" data-late="1"><title>Click for 10N01E02Q002M detail</title></path>
<circle class="well" cx="259.8" cy="467.9" r="3.0"/>
<text class="label" x="290.9" y="449.6">07G00</text>
<circle class="well" cx="168.1" cy="412.2" r="3.0"/>
<text class="label" x="154.0" y="427.1">29J00</text>
<circle class="well" cx="465.0" cy="464.9" r="3.0"/>
<text class="label" x="467.0" y="483.7">11A00</text>
<circle class="well" cx="230.7" cy="372.7" r="3.0"/>
<text class="label" x="235.8" y="352.9">13N00</text>
<circle class="well" cx="282.0" cy="202.8" r="3.0"/>
<text class="label" x="329.1" y="212.0">05G00</text>
<circle class="well" cx="131.9" cy="261.7" r="3.0"/>
<text class="label" x="118.5" y="227.0">19E00</text>
<circle class="well" cx="459.5" cy="439.0" r="3.0"/>
<text class="label" x="444.3" y="398.6">35P00</text>
<circle class="well" cx="355.1" cy="498.8" r="3.0"/>
<text class="label" x="375.6" y="471.3">13P00</text>
<circle class="well" cx="367.9" cy="560.5" r="3.0"/>
<text class="label" x="361.1" y="593.3">06D00</text>
<circle class="well" cx="209.5" cy="381.3" r="3.0"/>
<text class="label" x="190.1" y="368.7">22A00</text>
<circle class="well" cx="103.8" cy="376.3" r="3.0"/>
<text class="label" x="49.7" y="325.9">14Q00</text>
<circle class="well" cx="300.2" cy="327.1" r="3.0"/>
<text class="label" x="364.1" y="302.1">04K00</text>
<circle class="well" cx="166.1" cy="507.0" r="3.0"/>
<text class="label" x="166.9" y="531.4">20H00</text>
<circle class="well" cx="234.5" cy="470.4" r="3.0"/>
<text class="label" x="233.0" y="453.8">12L00</text>
<circle class="well" cx="314.9" cy="518.2" r="3.0"/>
<text class="label" x="312.9" y="507.7">22P00</text>
<circle class="well" cx="120.1" cy="377.2" r="3.0"/>
<text class="label" x="134.3" y="354.0">24C00</text>
<circle class="well" cx="208.5" cy="489.1" r="3.0"/>
<text class="label" x="208.5" y="507.8">15J00</text>
<circle class="well" cx="279.6" cy="562.1" r="3.0"/>
<text class="label" x="266.6" y="593.8">05B00</text>
<circle class="well" cx="417.5" cy="741.0" r="3.0"/>
<text class="label" x="375.1" y="725.2">16P00</text>
<circle class="well" cx="518.9" cy="754.3" r="3.0"/>
<text class="label" x="572.4" y="709.5">20K00</text>
<circle class="well" cx="529.6" cy="841.8" r="3.0"/>
<text class="label" x="529.9" y="833.2">09N00</text>
<circle class="well" cx="464.5" cy="645.7" r="3.0"/>
<text class="label" x="512.1" y="640.7">26A00</text>
<circle class="well" cx="453.0" cy="683.6" r="3.0"/>
<text class="label" x="422.3" y="672.5">02D00</text>
<circle class="well" cx="497.5" cy="804.2" r="3.0"/>
<text class="label" x="496.0" y="813.4">06B00</text>
<circle class="well" cx="567.4" cy="824.0" r="3.0"/>
<text class="label" x="631.2" y="806.5">03R00</text>
<circle class="well" cx="444.4" cy="576.6" r="3.0"/>
<text class="label" x="468.7" y="567.6">03R00</text>
<circle class="well" cx="458.7" cy="823.0" r="3.0"/>
<text class="label" x="456.9" y="836.5">02Q00</text>
<g transform="translate(16,990)">
<rect class="legend-bg" x="-8" y="-22" width="675" height="86"/>
<text class="legend-title" x="0" y="-6">Polygon avg observed storage loss rate (AF/yr)</text>
<text class="legend-text" x="0" y="9" font-style="italic" font-size="9.5" fill="#5b5547">light green = gaining storage  ·  oranges → reds = loss magnitude per year</text>
<rect x="11.0" y="18" width="60" height="18" fill="#a8c8b0" stroke="#332e22" stroke-width="0.4"/>
<text class="legend-text" x="41.0" y="48" text-anchor="middle">Gaining</text>
<rect x="93.0" y="18" width="60" height="18" fill="#f0d9a8" stroke="#332e22" stroke-width="0.4"/>
<text class="legend-text" x="123.0" y="48" text-anchor="middle">Loss < 250</text>
<rect x="175.0" y="18" width="60" height="18" fill="#e3a76f" stroke="#332e22" stroke-width="0.4"/>
<text class="legend-text" x="205.0" y="48" text-anchor="middle">Loss < 750</text>
<rect x="257.0" y="18" width="60" height="18" fill="#cb7740" stroke="#332e22" stroke-width="0.4"/>
<text class="legend-text" x="287.0" y="48" text-anchor="middle">Loss < 1,500</text>
<rect x="339.0" y="18" width="60" height="18" fill="#a84a2c" stroke="#332e22" stroke-width="0.4"/>
<text class="legend-text" x="369.0" y="48" text-anchor="middle">Loss < 2,500</text>
<rect x="421.0" y="18" width="60" height="18" fill="#7c2820" stroke="#332e22" stroke-width="0.4"/>
<text class="legend-text" x="451.0" y="48" text-anchor="middle">Loss ≥ 2,500</text>
<circle cx="508" cy="22" r="3"/>
<text class="legend-text" x="518" y="26">Proposed 2027 RMS well</text>
</g>
</svg>