<svg xmlns="http://www.w3.org/2000/svg" viewBox="0 0 700 1080" style="background:#fafaf7;font-family:ui-sans-serif,system-ui;width:100%;height:auto;display:block;">
<defs><style>.poly{stroke:#5b5547;stroke-width:0.7;cursor:pointer;fill-rule:evenodd;}.poly:hover{stroke-width:2;filter:brightness(1.05);}.well{fill:#1f1f1f;pointer-events:none;}.label{font-size:8.5px;fill:#332e22;text-anchor:middle;font-weight:500;pointer-events:none;}.title{font-size:13px;font-weight:700;fill:#1a1612;text-anchor:middle;}.subtitle{font-size:11px;fill:#5b5547;text-anchor:middle;font-style:italic;}.legend-text{font-size:10.5px;fill:#332e22;}.legend-title{font-size:11px;font-weight:700;fill:#1a1612;}.legend-bg{fill:#fafaf7;fill-opacity:0.97;stroke:#cfc9b8;stroke-width:0.6;}</style></defs>
<text class="title" x="350.0" y="18">SCNY region RMS network (27 polygons) — Observed avg storage loss rate (AF/yr)</text>
<text class="subtitle" x="350.0" y="32">Click any polygon for detail. Color = polygon avg loss rate (positive = losing storage).</text>
<path d="M 313.6,464.3 L 266.8,515.6 L 252.1,518.7 L 242.4,421.1 L 300.4,403.4 L 330.5,412.0 L 313.6,464.3 Z" class="poly" fill="#cb7740" data-short="13N01W07G001M" data-ma="Other" data-base-year="1999" data-end-year="2025" data-span="26" data-area="10,010" data-rms-wells="13N01W07G001M" data-sy="0.1000" data-sy-source="uniform 0.10" data-avg-dgwe="-1.14" data-cum-stor="-29,620" data-avg-rate="-1,139" data-critdry-share="78%" data-crit-share="45%" data-bucket-wet="+21,191" data-bucket-an="+22,297" data-bucket-bn="-12,965" data-bucket-dry="-26,107" data-bucket-critical="-34,036" data-hold="1,139" data-project="0" data-project-name="" data-coverage="-1,139" data-late=""><title>Click for 13N01W07G001M detail</title></path>
<path d="M 212.4,428.5 L 197.2,445.9 L 171.2,459.7 L 106.9,458.4 L 105.5,448.8 L 107.9,444.3 L 165.5,365.4 L 212.4,428.5 Z" class="poly" fill="#7c2820" data-short="14N02W29J001M" data-ma="CCWD" data-base-year="1999" data-end-year="2015" data-span="16" data-area="8,819" data-rms-wells="14N02W29J001M" data-sy="0.1000" data-sy-source="uniform 0.10" data-avg-dgwe="-4.96" data-cum-stor="-69,933" data-avg-rate="-4,371" data-critdry-share="71%" data-crit-share="57%" data-bucket-wet="-1,706" data-bucket-an="-6,173" data-bucket-bn="-10,525" data-bucket-dry="-10,080" data-bucket-critical="-41,448" data-hold="4,371" data-project="0" data-project-name="" data-coverage="-4,371" data-late=""><title>Click for 14N02W29J001M detail</title></path>
<path d="M 404.6,464.2 L 478.4,448.6 L 478.4,448.6 L 478.8,448.7 L 478.8,448.7 L 478.8,448.7 L 478.8,448.7 L 478.8,448.7 L 479.2,449.0 L 479.6,449.1 L 479.9,449.3 L 480.1,449.4 L 480.4,449.5 L 480.8,449.7 L 481.1,449.8 L 481.9,450.2 L 482.0,450.2 L 482.0,450.2 L 482.5,450.4 L 482.6,450.5 L 482.6,450.5 L 482.7,450.6 L 482.9,450.7 L 483.3,450.9 L 483.3,450.9 L 483.3,450.9 L 483.9,451.1 L 484.2,451.3 L 484.5,451.5 L 484.8,451.8 L 485.0,452.0 L 485.0,452.0 L 485.0,452.0 L 485.3,452.2 L 485.5,452.4 L 485.9,452.8 L 486.5,453.5 L 487.3,454.6 L 487.9,455.2 L 488.2,455.5 L 488.7,456.1 L 489.1,456.4 L 489.3,456.5 L 489.3,456.5 L 489.3,456.6 L 489.9,457.0 L 490.5,457.3 L 490.8,457.4 L 491.0,457.6 L 492.1,458.0 L 493.2,458.7 L 493.2,458.7 L 493.6,458.9 L 494.4,459.4 L 494.5,459.5 L 494.5,459.5 L 494.8,459.7 L 495.0,460.0 L 495.0,460.0 L 495.1,460.1 L 495.4,460.5 L 495.7,460.9 L 495.8,461.2 L 495.9,461.5 L 496.0,462.1 L 495.9,462.6 L 495.8,462.8 L 495.7,463.1 L 495.5,463.4 L 495.5,463.4 L 495.5,463.4 L 495.3,463.7 L 495.3,463.7 L 495.3,463.8 L 494.9,464.3 L 494.7,464.7 L 494.1,465.3 L 493.6,466.0 L 493.3,466.2 L 492.8,466.8 L 492.2,467.3 L 491.2,468.3 L 490.6,469.0 L 490.3,469.3 L 489.9,469.6 L 489.9,469.7 L 489.9,469.7 L 489.7,469.9 L 489.2,470.2 L 488.5,470.6 L 488.4,470.6 L 488.4,470.6 L 488.0,470.7 L 487.9,470.7 L 487.9,470.7 L 487.3,470.9 L 486.6,471.0 L 485.8,470.9 L 485.8,470.9 L 485.7,470.9 L 484.8,470.8 L 484.0,470.9 L 483.4,470.8 L 482.8,470.8 L 481.8,470.9 L 481.0,471.0 L 480.1,471.2 L 480.1,471.2 L 479.2,471.4 L 478.6,471.6 L 477.9,471.6 L 477.1,471.6 L 477.1,471.6 L 476.8,471.6 L 476.4,471.6 L 474.9,471.6 L 473.1,471.5 L 472.1,471.6 L 471.8,471.6 L 471.3,471.7 L 471.0,471.8 L 470.3,472.1 L 470.0,472.3 L 469.7,472.5 L 469.5,473.0 L 469.3,473.3 L 469.3,473.3 L 469.3,473.5 L 469.3,473.5 L 468.8,474.5 L 468.7,475.8 L 468.7,476.4 L 468.7,476.4 L 468.6,476.7 L 468.5,477.7 L 468.5,478.7 L 468.5,479.5 L 468.5,479.5 L 468.4,480.0 L 468.3,481.3 L 468.3,481.9 L 468.3,482.5 L 468.3,484.2 L 468.3,486.4 L 468.5,489.0 L 468.1,490.7 L 468.0,491.0 L 467.7,491.5 L 467.5,491.8 L 467.5,491.8 L 467.4,491.9 L 467.2,492.0 L 467.2,492.0 L 466.7,492.4 L 465.9,492.6 L 465.1,492.8 L 464.6,492.9 L 464.1,493.0 L 463.8,493.0 L 463.2,493.2 L 462.3,493.3 L 461.8,493.4 L 461.4,493.5 L 461.0,493.6 L 460.6,493.7 L 460.2,493.8 L 459.4,494.1 L 458.8,494.5 L 458.8,494.5 L 458.4,494.8 L 458.2,494.9 L 458.2,494.9 L 457.9,495.1 L 457.3,495.5 L 456.9,495.8 L 456.0,496.5 L 455.2,497.4 L 454.9,497.7 L 454.9,497.7 L 454.7,498.1 L 454.4,498.5 L 454.4,498.5 L 454.2,498.9 L 453.9,499.7 L 453.7,500.4 L 453.5,501.2 L 453.5,502.8 L 453.5,503.6 L 453.5,503.6 L 453.5,503.6 L 453.5,503.8 L 453.6,504.3 L 453.6,504.8 L 453.7,505.1 L 453.7,505.1 L 453.8,505.5 L 454.5,507.0 L 454.8,507.5 L 455.1,507.9 L 455.5,508.5 L 455.7,508.8 L 456.0,509.4 L 456.0,509.4 L 456.3,509.8 L 456.4,510.1 L 456.4,510.1 L 456.4,510.4 L 456.4,510.7 L 456.4,511.0 L 456.4,511.0 L 456.4,511.0 L 456.2,511.4 L 456.0,511.6 L 455.8,511.7 L 455.3,512.2 L 454.3,513.3 L 453.7,513.9 L 453.2,514.5 L 452.8,515.0 L 452.8,515.0 L 452.8,515.0 L 452.7,515.0 L 452.7,515.0 L 452.4,515.4 L 452.0,515.7 L 451.2,516.2 L 450.4,516.5 L 449.5,517.0 L 449.0,517.3 L 448.6,517.4 L 448.4,517.6 L 447.9,517.9 L 447.9,517.9 L 447.8,518.0 L 447.5,518.2 L 447.5,518.2 L 447.4,518.3 L 447.1,518.7 L 447.1,519.0 L 447.2,519.1 L 447.3,519.3 L 447.3,519.4 L 420.0,514.3 L 404.6,464.2 Z" class="poly" fill="#f0d9a8" data-short="13N01E11A001M" data-ma="RD108" data-base-year="1999" data-end-year="2025" data-span="26" data-area="5,596" data-rms-wells="13N01E11A001M" data-sy="0.1000" data-sy-source="uniform 0.10" data-avg-dgwe="-0.01" data-cum-stor="-162" data-avg-rate="-6" data-critdry-share="72%" data-crit-share="11%" data-bucket-wet="+4,289" data-bucket-an="+1,637" data-bucket-bn="-929" data-bucket-dry="-4,997" data-bucket-critical="-162" data-hold="6" data-project="0" data-project-name="" data-coverage="-6" data-late=""><title>Click for 13N01E11A001M detail</title></path>
<path d="M 300.4,403.4 L 242.4,421.1 L 238.2,421.3 L 191.8,307.8 L 220.9,282.0 L 300.4,403.4 Z" class="poly" fill="#e3a76f" data-short="14N02W13N001M" data-ma="Other" data-base-year="2000" data-end-year="2025" data-span="25" data-area="10,732" data-rms-wells="14N02W13N001M" data-sy="0.1000" data-sy-source="uniform 0.10" data-avg-dgwe="-0.38" data-cum-stor="-10,195" data-avg-rate="-408" data-critdry-share="81%" data-crit-share="21%" data-bucket-wet="+19,720" data-bucket-an="+7,029" data-bucket-bn="-6,573" data-bucket-dry="-34,074" data-bucket-critical="+3,703" data-hold="408" data-project="0" data-project-name="" data-coverage="-408" data-late="1"><title>Click for 14N02W13N001M detail</title></path>
<path d="M 345.7,257.0 L 345.5,256.8 L 345.0,256.6 L 344.6,256.3 L 344.3,256.3 L 344.2,256.2 L 343.7,256.0 L 343.5,256.0 L 343.5,256.0 L 343.5,256.0 L 343.3,256.0 L 343.1,256.0 L 343.1,256.0 L 343.1,256.0 L 342.8,256.0 L 342.6,256.1 L 342.4,256.2 L 342.4,256.2 L 342.3,256.3 L 341.8,256.7 L 341.3,257.4 L 341.1,257.7 L 223.7,274.8 L 185.6,178.0 L 186.8,177.7 L 190.0,177.2 L 193.9,176.5 L 194.1,176.5 L 194.2,176.5 L 194.2,176.5 L 194.3,176.6 L 195.5,176.3 L 196.3,176.1 L 197.0,175.9 L 198.2,175.6 L 199.2,175.4 L 199.7,175.3 L 199.8,175.3 L 200.0,175.4 L 200.1,175.4 L 200.1,175.4 L 200.2,175.3 L 200.3,175.3 L 200.4,175.2 L 200.6,175.2 L 300.5,175.3 L 300.5,176.0 L 305.3,175.9 L 305.2,181.7 L 320.4,181.8 L 320.4,189.4 L 322.6,188.4 L 325.0,187.1 L 328.7,184.6 L 331.1,182.1 L 332.3,181.5 L 333.9,182.1 L 338.2,184.4 L 343.1,186.4 L 343.4,186.3 L 342.9,187.0 L 342.6,187.5 L 342.6,187.6 L 345.5,189.9 L 345.5,189.9 L 345.6,190.1 L 345.6,190.1 L 345.7,190.4 L 345.8,190.6 L 345.9,191.2 L 345.9,191.2 L 345.9,191.2 L 345.9,191.6 L 345.9,192.0 L 345.9,192.2 L 345.9,192.5 L 345.8,192.6 L 345.7,192.9 L 345.6,193.0 L 345.2,193.4 L 344.6,193.8 L 344.2,193.9 L 343.4,194.3 L 342.5,194.6 L 342.2,194.6 L 340.7,195.3 L 340.5,195.5 L 340.2,195.6 L 339.9,195.8 L 339.4,196.2 L 339.4,196.2 L 339.3,196.3 L 338.6,197.0 L 338.2,197.4 L 338.2,197.4 L 338.2,197.5 L 337.5,198.2 L 337.5,198.2 L 337.5,198.3 L 337.1,198.8 L 337.0,199.0 L 336.6,199.5 L 336.3,200.1 L 336.2,200.6 L 336.0,200.9 L 335.8,201.3 L 335.7,201.5 L 334.8,202.8 L 334.5,203.2 L 334.3,203.6 L 334.3,203.6 L 334.1,204.1 L 334.0,204.6 L 333.9,204.8 L 333.9,205.1 L 333.9,205.2 L 333.9,205.2 L 333.9,205.4 L 333.9,205.6 L 333.9,205.6 L 333.9,205.8 L 334.2,206.5 L 334.2,206.5 L 334.2,206.5 L 334.6,207.4 L 334.6,207.4 L 334.6,207.4 L 334.9,207.7 L 335.5,208.4 L 336.0,209.1 L 336.3,209.4 L 336.6,209.7 L 336.7,209.8 L 336.7,209.8 L 336.9,210.0 L 337.5,210.6 L 338.0,211.3 L 338.0,211.3 L 338.1,211.4 L 338.3,211.6 L 338.3,211.6 L 338.5,211.9 L 338.7,212.1 L 338.7,212.1 L 338.9,212.4 L 339.4,213.0 L 339.8,213.5 L 340.1,214.0 L 340.4,214.5 L 340.6,214.9 L 340.9,215.4 L 341.0,215.8 L 341.2,216.3 L 341.2,216.3 L 341.3,216.4 L 342.0,218.1 L 342.1,218.4 L 342.4,219.8 L 342.5,220.1 L 342.5,220.1 L 342.5,220.6 L 342.7,221.3 L 342.8,222.0 L 342.9,222.8 L 343.1,223.7 L 343.2,224.1 L 343.2,224.1 L 343.3,224.1 L 343.5,225.3 L 343.7,225.7 L 343.8,226.0 L 344.1,226.8 L 344.4,228.1 L 344.8,229.4 L 344.9,229.9 L 344.9,229.9 L 345.0,230.3 L 345.1,230.6 L 345.1,230.6 L 345.5,231.5 L 345.8,232.3 L 346.0,232.7 L 346.0,232.7 L 346.1,232.8 L 346.5,233.3 L 346.8,233.6 L 347.0,233.9 L 347.3,234.1 L 347.6,234.3 L 347.8,234.4 L 348.2,234.7 L 348.8,235.3 L 349.4,235.7 L 350.0,236.0 L 350.3,236.2 L 351.0,236.4 L 351.7,236.7 L 352.4,236.9 L 352.7,237.1 L 353.2,237.4 L 353.4,237.5 L 353.4,237.5 L 353.5,237.6 L 353.8,237.7 L 354.5,238.1 L 354.9,238.6 L 355.6,239.2 L 356.1,239.7 L 356.1,239.7 L 356.2,239.7 L 356.5,240.0 L 356.8,240.4 L 357.4,240.9 L 358.0,241.3 L 358.3,241.5 L 358.9,241.8 L 359.0,242.0 L 359.3,242.1 L 359.3,242.1 L 359.3,242.1 L 359.8,242.5 L 360.1,242.6 L 360.4,242.8 L 360.6,243.1 L 360.8,243.3 L 360.8,243.3 L 360.9,243.4 L 361.0,243.5 L 361.0,243.5 L 361.2,243.6 L 361.4,243.8 L 361.6,244.2 L 362.0,244.5 L 362.8,245.5 L 363.1,246.2 L 363.4,246.6 L 363.6,247.0 L 363.9,247.8 L 364.3,248.8 L 364.5,249.7 L 364.4,250.3 L 364.4,250.8 L 364.3,251.9 L 364.1,252.6 L 363.9,253.2 L 363.9,253.2 L 363.9,253.3 L 363.9,253.5 L 363.9,253.6 L 363.9,253.6 L 363.8,254.0 L 363.8,254.4 L 345.8,257.0 L 345.7,257.0 Z" class="poly" fill="#a8c8b0" data-short="15N01W05G001M" data-ma="Other" data-base-year="1999" data-end-year="2025" data-span="26" data-area="20,105" data-rms-wells="15N01W05G001M" data-sy="0.1000" data-sy-source="uniform 0.10" data-avg-dgwe="+0.30" data-cum-stor="+15,883" data-avg-rate="+611" data-critdry-share="60%" data-crit-share="7%" data-bucket-wet="+24,360" data-bucket-an="+24,260" data-bucket-bn="-11,627" data-bucket-dry="-23,724" data-bucket-critical="+2,614" data-hold="0" data-project="0" data-project-name="" data-coverage="+0" data-late=""><title>Click for 15N01W05G001M detail</title></path>
<path d="M 220.9,282.0 L 191.8,307.8 L 167.4,323.7 L 115.4,318.4 L 49.6,302.3 L 49.6,302.2 L 49.7,301.9 L 50.1,301.5 L 50.4,301.3 L 50.6,301.2 L 50.9,301.1 L 51.2,301.2 L 51.4,301.3 L 51.7,301.3 L 51.9,301.3 L 52.1,301.2 L 52.1,301.1 L 52.2,300.8 L 52.3,300.7 L 52.4,300.6 L 52.7,300.4 L 53.0,300.3 L 54.2,299.7 L 54.5,299.5 L 54.7,299.3 L 54.8,299.1 L 55.0,298.7 L 55.1,298.5 L 55.2,298.4 L 55.5,298.3 L 55.7,298.2 L 55.9,298.0 L 56.0,297.9 L 56.9,297.3 L 59.6,295.4 L 61.2,294.3 L 62.7,293.4 L 62.9,293.2 L 63.3,293.0 L 63.6,292.8 L 63.9,292.5 L 64.0,292.3 L 64.2,292.0 L 64.3,291.8 L 64.8,291.0 L 65.0,290.5 L 65.4,290.1 L 65.7,289.5 L 65.9,289.2 L 66.4,288.3 L 66.5,288.0 L 66.6,287.8 L 67.0,286.0 L 67.6,283.7 L 67.7,283.4 L 67.9,283.2 L 67.9,282.9 L 71.4,267.2 L 71.8,265.5 L 71.9,265.1 L 72.0,265.0 L 72.0,264.8 L 72.0,264.7 L 72.0,264.5 L 72.1,264.3 L 72.2,264.2 L 72.2,264.1 L 72.2,264.0 L 72.2,263.8 L 72.2,263.7 L 72.2,263.5 L 72.2,263.4 L 72.3,263.3 L 72.3,263.2 L 72.4,263.2 L 72.5,263.1 L 72.7,263.0 L 72.9,262.8 L 73.3,262.4 L 73.5,262.2 L 74.0,261.6 L 74.2,261.3 L 74.3,261.2 L 74.5,261.1 L 74.7,260.9 L 74.9,260.7 L 75.8,260.2 L 76.6,259.8 L 77.4,259.2 L 78.0,258.9 L 78.3,258.7 L 78.4,258.6 L 78.5,258.5 L 78.6,258.4 L 80.5,255.9 L 81.1,255.2 L 81.3,254.9 L 81.5,254.6 L 81.5,254.5 L 81.6,254.3 L 81.5,253.6 L 81.3,251.7 L 81.2,250.3 L 81.2,249.4 L 81.3,248.8 L 81.3,248.6 L 81.3,248.2 L 81.3,248.1 L 81.3,248.0 L 81.1,247.8 L 81.0,247.7 L 80.8,247.6 L 80.6,247.5 L 80.5,247.4 L 80.4,247.3 L 80.4,247.2 L 80.4,246.8 L 80.4,246.6 L 80.3,246.4 L 80.3,246.3 L 80.2,246.2 L 80.1,246.1 L 80.2,245.9 L 80.4,245.6 L 80.5,245.5 L 80.6,245.2 L 80.7,245.1 L 80.8,245.0 L 80.9,244.9 L 81.0,244.8 L 81.1,244.6 L 81.2,244.5 L 81.2,244.4 L 81.3,244.3 L 81.5,244.2 L 81.7,244.1 L 81.9,243.8 L 82.0,243.5 L 82.1,243.4 L 82.2,243.2 L 82.3,243.1 L 82.4,243.1 L 82.7,243.0 L 83.1,243.0 L 83.3,243.0 L 83.5,243.0 L 83.6,242.9 L 83.7,242.9 L 83.7,242.8 L 84.1,242.3 L 84.4,242.0 L 84.7,241.6 L 84.8,241.4 L 85.0,241.3 L 85.2,241.1 L 85.3,241.0 L 85.4,240.9 L 85.5,240.9 L 86.0,240.8 L 86.1,240.7 L 86.2,240.6 L 86.3,240.5 L 86.5,240.3 L 86.6,239.9 L 86.7,239.8 L 86.8,239.7 L 86.9,239.7 L 87.1,239.6 L 87.2,239.6 L 87.5,239.7 L 87.8,239.8 L 88.0,240.0 L 88.2,240.1 L 88.4,240.3 L 88.6,240.4 L 88.8,240.4 L 89.0,240.4 L 89.2,240.4 L 89.3,240.3 L 89.4,240.3 L 89.6,240.2 L 89.7,240.0 L 89.7,239.9 L 89.7,239.7 L 89.7,239.5 L 89.7,239.3 L 89.6,238.9 L 89.5,238.7 L 89.4,238.6 L 89.4,238.4 L 89.4,238.3 L 89.5,238.2 L 89.6,238.1 L 89.8,238.1 L 90.0,238.1 L 90.2,238.1 L 90.3,238.0 L 90.5,237.8 L 90.7,237.5 L 90.8,237.2 L 91.0,236.7 L 91.1,236.6 L 91.3,236.5 L 91.4,236.3 L 91.6,236.0 L 91.8,235.7 L 92.0,235.3 L 92.0,235.2 L 92.0,234.8 L 92.0,234.6 L 92.1,234.4 L 92.1,234.4 L 92.2,234.2 L 92.3,234.2 L 92.4,234.0 L 92.5,233.8 L 92.6,233.7 L 92.6,233.4 L 92.7,233.1 L 92.9,232.9 L 93.0,232.6 L 93.0,232.5 L 93.1,232.3 L 93.2,232.2 L 93.2,232.1 L 93.4,231.9 L 93.8,231.6 L 94.1,231.4 L 94.3,231.2 L 94.4,231.0 L 94.6,230.7 L 94.7,230.6 L 94.8,230.5 L 94.9,230.4 L 95.0,230.3 L 95.0,230.3 L 95.1,230.3 L 95.4,230.3 L 95.7,230.4 L 96.0,230.4 L 96.3,230.4 L 96.6,230.4 L 96.7,230.4 L 96.8,230.3 L 96.9,230.2 L 97.0,229.9 L 97.0,229.8 L 97.0,229.6 L 97.0,229.5 L 97.0,229.4 L 97.0,229.2 L 97.0,229.1 L 97.1,228.8 L 97.1,228.7 L 97.2,228.2 L 97.2,228.0 L 97.2,227.8 L 97.3,227.7 L 97.3,227.6 L 97.5,227.4 L 97.6,227.3 L 97.7,227.0 L 97.8,226.8 L 97.9,226.7 L 98.0,226.5 L 98.1,226.5 L 98.3,226.4 L 98.8,225.8 L 99.1,225.3 L 99.3,225.1 L 99.7,224.6 L 99.9,224.3 L 100.6,223.7 L 100.9,223.4 L 101.2,223.2 L 101.4,222.9 L 101.5,222.7 L 101.6,222.5 L 101.7,222.2 L 101.7,221.9 L 101.9,221.7 L 102.0,221.6 L 102.2,221.5 L 102.4,221.4 L 102.8,221.4 L 103.0,221.3 L 103.2,221.2 L 103.4,221.1 L 103.5,221.0 L 103.6,220.9 L 103.8,220.9 L 104.0,220.9 L 104.2,220.9 L 104.3,221.0 L 104.5,221.1 L 104.8,221.2 L 105.0,221.3 L 105.3,221.4 L 105.4,221.5 L 105.4,221.7 L 105.5,221.8 L 105.5,221.9 L 105.6,222.0 L 105.7,222.0 L 105.9,222.0 L 106.2,221.9 L 106.5,221.7 L 106.9,221.4 L 107.0,221.2 L 107.2,221.0 L 107.4,220.7 L 107.5,220.4 L 107.5,220.2 L 107.4,219.9 L 107.4,219.6 L 107.4,219.4 L 107.4,219.3 L 107.5,219.2 L 107.7,219.2 L 108.0,219.1 L 108.3,219.0 L 108.5,218.8 L 108.6,218.5 L 108.7,218.3 L 108.6,218.1 L 108.5,218.0 L 108.3,217.9 L 107.9,217.8 L 107.7,217.7 L 107.7,217.6 L 107.6,217.5 L 107.6,217.4 L 107.7,216.9 L 107.7,216.0 L 107.7,215.7 L 107.9,215.5 L 108.3,215.2 L 108.6,215.0 L 108.8,214.9 L 109.0,214.9 L 110.8,214.7 L 111.1,214.6 L 111.2,214.5 L 111.4,214.1 L 111.7,213.9 L 111.8,213.6 L 111.9,213.6 L 112.0,213.5 L 112.1,213.5 L 112.3,213.5 L 112.4,213.6 L 112.5,213.8 L 112.5,214.0 L 112.6,214.1 L 112.6,214.2 L 112.7,214.2 L 112.9,214.2 L 113.0,214.0 L 113.1,213.8 L 113.2,213.7 L 113.4,213.6 L 113.5,213.5 L 114.2,213.3 L 114.4,213.1 L 114.4,213.0 L 115.0,211.8 L 115.3,211.3 L 115.4,211.2 L 121.6,207.1 L 121.7,207.0 L 131.6,207.1 L 132.2,207.1 L 132.7,207.0 L 133.1,206.8 L 133.3,206.6 L 133.4,206.5 L 133.4,206.4 L 133.3,206.3 L 132.9,205.9 L 132.7,205.5 L 132.7,205.2 L 132.7,204.9 L 132.8,204.6 L 133.0,204.4 L 133.2,204.2 L 133.3,204.0 L 133.4,203.9 L 133.4,203.8 L 133.3,203.6 L 133.2,203.3 L 133.2,203.1 L 133.2,202.9 L 133.2,202.7 L 133.2,202.6 L 133.3,202.5 L 133.4,202.3 L 133.6,201.9 L 133.7,201.4 L 133.7,201.0 L 133.7,200.9 L 133.8,200.8 L 133.9,200.7 L 134.1,200.6 L 134.4,200.5 L 134.7,200.4 L 134.9,200.3 L 135.0,200.1 L 135.1,200.0 L 135.2,199.9 L 135.5,199.8 L 135.6,199.6 L 135.7,199.4 L 135.9,199.1 L 136.0,198.9 L 136.4,198.9 L 136.6,198.9 L 136.8,198.8 L 137.0,198.6 L 137.5,198.1 L 137.8,197.9 L 138.0,197.8 L 138.2,197.7 L 138.3,197.5 L 138.4,197.2 L 138.5,197.0 L 138.7,196.8 L 138.9,196.7 L 139.1,196.6 L 139.1,196.6 L 139.1,196.6 L 139.2,196.5 L 139.2,196.5 L 139.2,196.4 L 139.1,196.3 L 139.1,196.3 L 139.1,196.2 L 139.1,196.1 L 139.1,196.0 L 139.2,195.9 L 139.2,195.8 L 139.3,195.6 L 139.4,195.6 L 139.5,195.4 L 139.6,195.3 L 139.8,195.1 L 140.0,194.9 L 140.0,194.9 L 140.2,194.8 L 140.2,194.8 L 140.3,194.8 L 140.5,194.7 L 140.7,194.7 L 140.7,194.7 L 141.2,194.5 L 141.5,194.4 L 141.7,194.4 L 141.9,194.2 L 142.1,194.1 L 142.1,194.0 L 142.2,193.8 L 142.4,193.6 L 142.4,193.6 L 142.5,193.5 L 142.7,193.5 L 142.9,193.4 L 143.4,193.2 L 143.7,193.0 L 143.9,192.9 L 144.0,192.9 L 144.2,192.9 L 144.4,192.8 L 144.6,192.8 L 144.6,192.8 L 144.7,192.7 L 144.7,192.7 L 144.7,192.6 L 144.7,192.5 L 144.7,192.5 L 144.6,192.4 L 144.6,192.3 L 144.6,192.2 L 144.7,192.1 L 144.7,192.0 L 144.8,191.9 L 144.9,191.8 L 145.3,191.7 L 145.5,191.6 L 145.7,191.5 L 145.8,191.4 L 146.0,191.4 L 146.0,191.3 L 146.1,191.1 L 146.1,191.0 L 146.2,191.0 L 146.2,190.9 L 146.4,190.9 L 146.6,190.8 L 146.7,190.8 L 147.0,190.6 L 147.2,190.4 L 147.9,190.0 L 148.2,189.7 L 148.4,189.7 L 148.6,189.6 L 148.8,189.6 L 148.9,189.5 L 149.1,189.4 L 149.4,189.3 L 149.6,189.2 L 149.8,189.0 L 150.0,188.8 L 150.0,188.7 L 150.1,188.5 L 150.3,188.3 L 150.4,188.2 L 150.5,188.0 L 150.6,188.0 L 150.7,188.0 L 150.8,188.0 L 151.1,188.0 L 152.1,187.9 L 152.5,187.9 L 152.6,187.9 L 152.8,187.8 L 152.9,187.6 L 153.1,187.3 L 153.3,187.1 L 154.0,186.2 L 154.7,185.3 L 155.1,184.9 L 155.2,184.7 L 155.4,184.6 L 155.5,184.6 L 155.7,184.6 L 156.8,184.5 L 160.3,184.2 L 161.2,184.1 L 161.3,184.1 L 161.5,184.1 L 161.7,184.0 L 161.9,183.9 L 162.1,183.8 L 162.3,183.6 L 162.4,183.5 L 162.7,183.3 L 163.1,183.1 L 163.3,182.9 L 163.5,182.8 L 163.7,182.8 L 164.0,182.7 L 164.3,182.6 L 164.5,182.6 L 164.6,182.7 L 164.8,182.8 L 165.0,182.9 L 165.3,183.1 L 167.2,182.5 L 169.5,181.7 L 171.3,181.2 L 172.9,180.6 L 173.3,180.5 L 173.5,180.4 L 174.0,180.0 L 174.7,179.5 L 175.4,179.0 L 175.9,178.6 L 176.1,178.5 L 176.2,178.5 L 177.4,178.6 L 178.8,178.7 L 179.5,178.7 L 179.6,178.7 L 179.8,178.9 L 180.1,179.0 L 180.3,179.0 L 180.4,179.0 L 180.6,179.0 L 180.8,179.0 L 181.4,178.8 L 184.3,178.2 L 185.6,178.0 L 223.7,274.8 L 220.9,282.0 Z" class="poly" fill="#e3a76f" data-short="15N02W19E001M" data-ma="Other" data-base-year="1999" data-end-year="2025" data-span="26" data-area="24,364" data-rms-wells="15N02W19E001M" data-sy="0.1000" data-sy-source="uniform 0.10" data-avg-dgwe="-0.30" data-cum-stor="-19,126" data-avg-rate="-736" data-critdry-share="64%" data-crit-share="24%" data-bucket-wet="+16,889" data-bucket-an="+4,097" data-bucket-bn="-11,776" data-bucket-dry="-19,370" data-bucket-critical="-8,966" data-hold="736" data-project="0" data-project-name="" data-coverage="-736" data-late=""><title>Click for 15N02W19E001M detail</title></path>
<path d="M 368.0,400.0 L 398.0,357.2 L 398.3,357.3 L 398.3,357.3 L 399.2,357.6 L 399.5,357.7 L 399.8,357.8 L 400.8,358.0 L 401.2,358.0 L 402.4,358.3 L 403.2,358.3 L 404.5,358.3 L 404.9,358.3 L 405.4,358.3 L 405.7,358.3 L 405.9,358.4 L 406.4,358.3 L 406.4,358.3 L 406.7,358.3 L 407.2,358.3 L 407.4,358.3 L 408.2,358.6 L 408.4,358.6 L 408.4,358.6 L 408.5,358.7 L 408.8,358.8 L 409.2,359.0 L 409.2,359.0 L 409.3,359.0 L 410.4,359.9 L 410.8,360.1 L 411.5,360.6 L 411.8,360.9 L 412.1,361.2 L 413.2,362.1 L 413.5,362.4 L 413.5,362.4 L 413.9,362.8 L 414.1,362.9 L 414.1,362.9 L 414.1,363.0 L 414.5,363.2 L 414.9,363.4 L 415.0,363.5 L 415.8,363.6 L 416.1,363.5 L 416.2,363.5 L 416.2,363.5 L 416.4,363.5 L 417.1,363.2 L 417.1,363.2 L 417.8,362.9 L 418.5,362.7 L 418.9,362.6 L 419.2,362.5 L 419.7,362.5 L 419.7,362.5 L 420.0,362.5 L 420.6,362.3 L 420.7,362.3 L 420.7,362.3 L 421.1,362.1 L 421.5,362.1 L 421.8,362.0 L 422.2,362.1 L 423.3,362.1 L 423.6,362.1 L 424.2,362.1 L 424.4,362.0 L 424.4,362.0 L 424.4,362.0 L 424.6,362.0 L 424.6,362.0 L 424.9,361.9 L 425.3,361.8 L 425.7,361.7 L 426.0,361.6 L 427.0,361.2 L 427.9,360.8 L 428.3,360.6 L 428.6,360.5 L 429.0,360.2 L 429.3,360.0 L 429.5,360.0 L 429.5,360.0 L 429.5,360.0 L 429.8,359.9 L 430.1,359.7 L 431.1,359.2 L 431.5,358.8 L 431.5,358.8 L 431.7,358.7 L 432.2,358.3 L 433.7,357.6 L 434.2,357.3 L 434.7,357.1 L 435.2,357.0 L 436.5,356.8 L 436.9,356.9 L 437.5,357.0 L 437.9,357.3 L 438.7,357.9 L 438.7,357.9 L 438.7,357.9 L 438.8,357.9 L 439.1,358.2 L 439.3,358.4 L 439.8,358.9 L 440.3,359.5 L 440.4,359.6 L 440.4,359.6 L 440.8,360.2 L 441.0,360.4 L 441.3,360.7 L 441.8,361.1 L 442.8,362.2 L 443.7,363.0 L 443.7,363.0 L 443.9,363.3 L 444.1,363.5 L 444.4,363.8 L 444.7,364.0 L 445.4,364.4 L 445.7,364.6 L 446.5,365.1 L 446.8,365.3 L 447.1,365.5 L 447.6,365.8 L 448.4,366.2 L 448.9,366.5 L 449.0,366.6 L 449.2,367.1 L 449.4,367.3 L 449.5,367.6 L 449.5,368.0 L 449.5,368.5 L 449.5,368.7 L 449.5,368.7 L 449.5,369.2 L 449.1,370.8 L 448.9,372.2 L 448.6,373.6 L 448.4,374.6 L 448.2,375.8 L 448.1,376.4 L 448.1,376.6 L 447.7,378.5 L 447.5,379.7 L 447.4,380.1 L 447.4,380.1 L 447.3,380.5 L 447.1,381.2 L 447.1,381.7 L 447.1,381.7 L 447.1,381.9 L 447.0,382.3 L 447.0,382.3 L 446.8,382.9 L 446.8,383.0 L 446.8,383.2 L 446.9,384.3 L 446.9,384.7 L 447.0,385.9 L 447.1,386.3 L 447.1,386.3 L 447.1,386.7 L 447.2,387.3 L 447.4,388.1 L 447.5,388.6 L 447.6,389.2 L 447.6,389.2 L 447.6,389.2 L 448.1,390.6 L 448.3,391.5 L 448.3,391.6 L 448.3,391.6 L 448.4,392.1 L 449.0,393.5 L 449.0,393.6 L 449.0,393.6 L 449.6,394.5 L 449.6,394.5 L 449.7,394.8 L 449.9,395.2 L 450.2,395.4 L 450.4,395.7 L 450.5,395.8 L 450.5,395.8 L 450.6,396.0 L 451.1,396.6 L 451.1,396.6 L 451.1,396.6 L 451.1,396.6 L 451.1,396.6 L 451.4,396.9 L 451.5,397.0 L 451.5,397.0 L 451.7,397.2 L 452.0,397.5 L 452.1,397.6 L 452.1,397.6 L 452.2,397.7 L 452.5,397.9 L 453.0,398.4 L 453.3,398.7 L 454.2,399.6 L 454.2,399.6 L 454.3,399.7 L 454.5,399.9 L 454.8,400.1 L 455.1,400.3 L 456.0,400.7 L 456.5,401.0 L 456.5,401.0 L 456.6,401.0 L 456.7,401.1 L 456.7,401.1 L 457.3,401.4 L 457.5,401.6 L 457.5,401.6 L 457.7,401.7 L 458.0,402.0 L 458.2,402.3 L 458.4,402.5 L 458.7,402.9 L 459.0,403.3 L 459.1,403.5 L 459.2,404.0 L 459.2,404.2 L 459.2,404.2 L 459.3,404.5 L 459.2,404.8 L 459.2,405.9 L 459.0,406.7 L 458.7,407.4 L 458.4,408.1 L 458.1,408.7 L 458.1,408.7 L 457.9,409.0 L 457.8,409.5 L 457.7,409.6 L 457.6,409.9 L 457.6,410.1 L 457.6,410.5 L 457.7,410.7 L 457.7,410.8 L 457.8,411.0 L 457.8,411.0 L 457.9,411.2 L 458.5,411.6 L 458.6,411.7 L 458.6,411.7 L 458.8,411.8 L 459.0,411.8 L 459.5,411.8 L 459.8,411.8 L 460.4,411.8 L 460.8,411.8 L 461.4,411.6 L 461.9,411.6 L 462.2,411.5 L 462.6,411.5 L 462.9,411.4 L 463.2,411.5 L 463.5,411.5 L 463.6,411.6 L 463.7,411.6 L 463.7,411.6 L 463.7,411.7 L 463.7,411.7 L 463.9,411.8 L 464.2,412.1 L 464.2,412.1 L 464.3,412.2 L 464.7,412.7 L 464.7,412.7 L 465.3,413.4 L 465.6,413.7 L 465.7,413.9 L 465.9,414.2 L 466.0,414.5 L 466.4,415.6 L 466.5,415.9 L 466.6,416.5 L 466.5,417.0 L 466.5,417.0 L 466.5,417.0 L 466.5,417.3 L 466.6,417.5 L 466.6,417.5 L 466.6,417.5 L 466.6,417.5 L 466.6,417.5 L 466.6,417.9 L 466.6,418.3 L 466.5,419.4 L 466.6,420.0 L 466.6,420.0 L 466.7,420.3 L 466.7,421.0 L 466.7,421.4 L 466.8,421.9 L 466.8,421.9 L 466.8,422.0 L 466.9,422.4 L 467.1,423.3 L 467.6,424.9 L 467.7,425.2 L 467.8,425.3 L 467.8,425.3 L 467.9,425.7 L 468.0,426.2 L 468.1,426.6 L 468.1,426.6 L 468.1,427.0 L 468.2,427.1 L 468.2,428.3 L 468.2,428.3 L 468.1,428.6 L 468.0,428.9 L 467.7,429.6 L 467.2,430.4 L 467.1,430.7 L 467.1,430.7 L 466.9,431.2 L 466.7,431.5 L 466.5,431.6 L 466.3,432.0 L 466.2,432.2 L 465.9,432.6 L 465.7,432.9 L 465.5,433.1 L 465.3,433.3 L 465.1,433.7 L 465.0,433.9 L 465.0,433.9 L 464.5,434.5 L 464.3,434.8 L 464.1,435.1 L 463.7,435.8 L 463.6,436.0 L 463.4,436.4 L 462.9,437.1 L 462.7,437.4 L 462.5,437.8 L 462.5,437.8 L 462.4,438.0 L 462.4,438.1 L 462.1,438.7 L 462.1,439.4 L 462.2,439.9 L 462.2,439.9 L 462.5,440.8 L 462.6,440.9 L 462.6,440.9 L 462.8,441.2 L 463.0,441.5 L 463.4,441.8 L 463.4,441.8 L 463.4,441.9 L 463.7,442.1 L 464.1,442.4 L 464.4,442.6 L 464.8,443.0 L 465.1,443.3 L 465.5,443.6 L 465.8,443.8 L 466.1,444.0 L 466.3,444.3 L 466.4,444.4 L 466.4,444.4 L 466.5,444.5 L 466.6,444.6 L 466.6,444.6 L 466.8,444.8 L 466.9,444.9 L 466.9,444.9 L 467.0,445.0 L 467.1,445.2 L 467.1,445.2 L 467.4,445.4 L 467.7,445.6 L 467.8,445.8 L 468.0,446.1 L 468.3,446.3 L 468.8,446.8 L 469.0,447.1 L 469.0,447.1 L 469.0,447.1 L 469.1,447.1 L 469.1,447.1 L 469.2,447.2 L 469.3,447.3 L 469.3,447.3 L 469.4,447.3 L 469.8,447.7 L 469.8,447.7 L 469.8,447.7 L 470.0,447.8 L 470.0,447.8 L 470.1,447.8 L 470.6,448.0 L 470.9,448.0 L 471.2,448.0 L 471.5,448.1 L 471.7,448.1 L 471.8,448.1 L 471.8,448.1 L 471.9,448.1 L 472.1,448.1 L 472.1,448.1 L 472.3,448.1 L 472.7,448.1 L 472.9,448.3 L 473.3,448.3 L 473.8,448.3 L 474.5,448.1 L 474.8,448.0 L 474.8,448.0 L 474.8,448.0 L 475.0,448.0 L 475.0,448.0 L 475.1,448.0 L 475.1,448.0 L 475.1,448.0 L 475.4,447.9 L 475.7,448.0 L 475.7,448.0 L 475.7,448.0 L 475.7,448.0 L 475.7,448.0 L 476.0,448.0 L 476.4,448.0 L 477.2,448.2 L 477.7,448.4 L 477.7,448.4 L 477.8,448.4 L 478.1,448.5 L 478.4,448.6 L 404.6,464.2 L 368.0,400.0 Z" class="poly" fill="#a8c8b0" data-short="14N01E35P003M" data-ma="RD108" data-base-year="2011" data-end-year="2025" data-span="14" data-area="11,563" data-rms-wells="14N01E35P003M" data-sy="0.1000" data-sy-source="uniform 0.10" data-avg-dgwe="+0.03" data-cum-stor="+558" data-avg-rate="+40" data-critdry-share="47%" data-crit-share="12%" data-bucket-wet="+14,794" data-bucket-an="+1,731" data-bucket-bn="-8,119" data-bucket-dry="-5,793" data-bucket-critical="-2,055" data-hold="0" data-project="0" data-project-name="" data-coverage="+0" data-late="1"><title>Click for 14N01E35P003M detail</title></path>
<path d="M 420.0,514.3 L 416.7,518.1 L 346.7,532.7 L 313.6,464.3 L 330.5,412.0 L 368.0,400.0 L 404.6,464.2 L 420.0,514.3 Z" class="poly" fill="#e3a76f" data-short="13N01W13P003M" data-ma="RD108" data-base-year="1999" data-end-year="2025" data-span="26" data-area="14,280" data-rms-wells="13N01W13P003M" data-sy="0.1000" data-sy-source="uniform 0.10" data-avg-dgwe="-0.39" data-cum-stor="-14,327" data-avg-rate="-551" data-critdry-share="60%" data-crit-share="38%" data-bucket-wet="+19,996" data-bucket-an="+3,125" data-bucket-bn="-11,237" data-bucket-dry="-8,727" data-bucket-critical="-17,484" data-hold="551" data-project="0" data-project-name="" data-coverage="-551" data-late=""><title>Click for 13N01W13P003M detail</title></path>
<path d="M 416.7,518.1 L 393.5,628.9 L 382.4,641.5 L 353.7,661.5 L 325.7,669.2 L 323.7,561.6 L 346.7,532.7 L 416.7,518.1 Z" class="poly" fill="#e3a76f" data-short="12N01E06D004M" data-ma="RD108" data-base-year="1999" data-end-year="2025" data-span="26" data-area="15,170" data-rms-wells="12N01E06D004M" data-sy="0.1000" data-sy-source="uniform 0.10" data-avg-dgwe="-0.48" data-cum-stor="-18,886" data-avg-rate="-726" data-critdry-share="69%" data-crit-share="35%" data-bucket-wet="+33,408" data-bucket-an="+7,666" data-bucket-bn="-16,040" data-bucket-dry="-21,663" data-bucket-critical="-22,257" data-hold="726" data-project="0" data-project-name="" data-coverage="-726" data-late=""><title>Click for 12N01E06D004M detail</title></path>
<path d="M 167.4,323.7 L 191.8,307.8 L 238.2,421.3 L 212.4,428.5 L 165.5,365.4 L 167.4,323.7 Z" class="poly" fill="#f0d9a8" data-short="14N02W22A005M" data-ma="Other" data-base-year="2020" data-end-year="2025" data-span="5" data-area="6,830" data-rms-wells="14N02W22A005M" data-sy="0.1000" data-sy-source="uniform 0.10" data-avg-dgwe="-0.23" data-cum-stor="-779" data-avg-rate="-156" data-critdry-share="100%" data-crit-share="100%" data-bucket-wet="+14,733" data-bucket-an="+6,308" data-bucket-bn="+0" data-bucket-dry="+0" data-bucket-critical="-21,820" data-hold="156" data-project="0" data-project-name="" data-coverage="-156" data-late="1"><title>Click for 14N02W22A005M detail</title></path>
<path d="M 107.9,444.3 L 105.5,448.8 L 102.0,425.9 L 67.8,366.9 L 51.4,357.6 L 47.8,328.6 L 30.0,329.0 L 33.1,324.1 L 33.2,324.0 L 33.6,323.7 L 33.8,323.6 L 34.0,323.4 L 34.0,323.2 L 33.9,322.9 L 33.8,322.7 L 33.8,322.5 L 33.8,322.4 L 33.9,322.3 L 34.0,322.2 L 34.2,322.2 L 34.4,322.2 L 34.6,322.2 L 34.8,322.3 L 34.9,322.3 L 35.0,322.2 L 35.0,322.2 L 35.0,322.0 L 34.9,321.8 L 34.8,321.6 L 34.8,321.4 L 34.9,321.2 L 35.0,321.1 L 35.1,320.9 L 35.3,320.8 L 35.4,320.7 L 35.4,320.5 L 35.5,320.3 L 35.7,320.1 L 36.0,319.8 L 36.2,319.6 L 36.4,319.5 L 36.5,319.3 L 36.5,319.1 L 36.6,318.9 L 36.6,318.8 L 36.6,318.7 L 36.7,318.7 L 36.9,318.8 L 37.0,318.9 L 37.2,318.9 L 37.3,319.0 L 37.4,319.0 L 37.5,319.0 L 37.8,319.0 L 37.9,319.0 L 38.0,318.9 L 38.0,318.8 L 38.0,318.8 L 38.0,318.8 L 38.2,318.8 L 38.4,318.8 L 38.5,318.8 L 38.5,318.6 L 38.6,318.4 L 38.6,318.3 L 38.6,318.1 L 38.5,318.0 L 38.5,317.8 L 38.3,317.6 L 38.3,317.4 L 38.4,317.2 L 38.4,317.0 L 38.5,316.9 L 38.6,316.9 L 38.6,316.9 L 38.8,317.0 L 38.9,317.1 L 39.0,317.2 L 39.2,317.2 L 39.3,317.2 L 39.5,317.1 L 39.9,316.6 L 39.9,315.9 L 39.9,315.7 L 40.0,315.5 L 40.2,315.1 L 40.3,315.0 L 40.5,314.9 L 40.7,315.0 L 40.8,315.0 L 40.9,315.1 L 41.0,315.3 L 41.1,315.4 L 41.1,315.5 L 41.2,315.6 L 41.3,315.7 L 41.4,315.6 L 41.6,315.4 L 41.6,315.3 L 41.8,315.2 L 42.0,315.2 L 42.1,315.2 L 42.1,315.2 L 42.1,314.9 L 42.2,314.7 L 42.3,314.5 L 42.5,314.4 L 42.9,314.3 L 43.2,314.3 L 43.4,314.4 L 43.8,314.4 L 44.0,314.4 L 44.2,314.4 L 44.4,314.2 L 44.3,314.0 L 44.2,313.7 L 44.1,313.4 L 44.0,313.1 L 44.0,312.7 L 44.0,312.4 L 44.1,312.1 L 44.2,311.9 L 44.3,311.8 L 44.4,311.5 L 44.5,311.3 L 44.7,311.2 L 44.8,311.2 L 45.0,311.1 L 45.2,310.9 L 45.3,310.6 L 45.5,310.5 L 45.7,310.4 L 45.9,310.5 L 46.0,310.5 L 46.0,310.3 L 46.3,309.5 L 46.6,308.5 L 46.8,308.0 L 46.7,307.9 L 46.6,307.8 L 46.5,307.7 L 46.3,307.5 L 46.2,307.3 L 46.0,307.0 L 46.0,306.9 L 46.0,306.7 L 46.0,306.5 L 46.0,306.4 L 46.1,306.1 L 46.1,305.9 L 46.2,305.7 L 46.2,305.4 L 46.4,305.0 L 46.5,304.9 L 46.8,304.8 L 47.1,304.8 L 47.3,304.7 L 47.5,304.6 L 47.6,304.4 L 47.8,304.3 L 47.9,304.0 L 48.0,303.9 L 48.1,303.8 L 48.4,303.8 L 48.6,303.7 L 48.7,303.5 L 48.8,303.2 L 48.9,303.1 L 49.0,303.0 L 49.1,303.0 L 49.3,302.9 L 49.4,302.8 L 49.5,302.6 L 49.6,302.4 L 49.6,302.3 L 115.4,318.4 L 107.9,444.3 Z" class="poly" fill="#7c2820" data-short="14N03W14Q003M" data-ma="Other" data-base-year="2001" data-end-year="2022" data-span="21" data-area="8,615" data-rms-wells="14N03W14Q003M" data-sy="0.1000" data-sy-source="uniform 0.10" data-avg-dgwe="-3.39" data-cum-stor="-61,251" data-avg-rate="-2,917" data-critdry-share="52%" data-crit-share="31%" data-bucket-wet="-14,013" data-bucket-an="+6,964" data-bucket-bn="-19,268" data-bucket-dry="-10,984" data-bucket-critical="-23,949" data-hold="2,917" data-project="0" data-project-name="" data-coverage="-2,917" data-late="1"><title>Click for 14N03W14Q003M detail</title></path>
<path d="M 223.7,274.8 L 341.1,257.7 L 341.1,257.7 L 340.9,258.0 L 340.8,258.3 L 340.7,258.6 L 340.4,259.4 L 340.3,260.4 L 340.5,261.6 L 340.5,261.6 L 340.5,261.8 L 340.6,262.6 L 340.8,264.9 L 340.9,265.7 L 340.8,267.4 L 340.8,267.9 L 340.9,268.7 L 341.0,269.4 L 341.2,269.8 L 341.4,270.1 L 341.6,270.5 L 341.9,271.1 L 342.1,271.4 L 342.3,271.8 L 342.3,271.8 L 342.6,272.2 L 343.6,273.4 L 343.8,273.6 L 343.8,273.6 L 343.8,273.7 L 343.8,273.7 L 343.9,273.7 L 344.6,274.2 L 344.8,274.5 L 345.4,274.9 L 345.7,275.1 L 346.0,275.3 L 346.3,275.5 L 346.8,275.9 L 347.1,276.0 L 348.2,276.4 L 348.5,276.5 L 348.8,276.7 L 349.5,276.9 L 349.8,277.0 L 350.5,277.0 L 350.5,277.0 L 350.9,277.1 L 351.3,277.2 L 351.3,277.2 L 351.3,277.2 L 351.5,277.3 L 351.7,277.3 L 352.3,277.4 L 352.5,277.5 L 352.9,277.5 L 353.1,277.5 L 353.1,277.5 L 353.3,277.5 L 353.7,277.5 L 354.0,277.5 L 354.3,277.5 L 354.6,277.7 L 355.0,277.7 L 355.2,277.8 L 355.2,277.8 L 355.3,277.9 L 355.3,277.9 L 355.7,278.1 L 356.1,278.5 L 356.3,278.7 L 356.3,278.8 L 356.3,278.8 L 356.4,278.9 L 356.7,279.3 L 357.4,280.5 L 357.6,280.9 L 357.8,281.6 L 358.0,282.1 L 358.1,282.6 L 358.2,282.9 L 358.2,282.9 L 358.3,283.3 L 358.8,285.2 L 359.1,285.8 L 359.4,286.2 L 359.5,286.3 L 359.7,286.5 L 359.9,286.6 L 360.1,286.7 L 360.5,286.9 L 361.0,287.0 L 361.7,287.0 L 361.8,287.0 L 361.8,287.0 L 362.3,287.0 L 362.7,286.9 L 363.3,286.6 L 363.9,286.4 L 364.7,286.0 L 366.0,285.2 L 367.4,284.7 L 368.2,284.5 L 368.4,284.5 L 369.0,284.3 L 369.4,284.3 L 369.6,284.3 L 369.9,284.3 L 370.5,284.6 L 370.8,284.8 L 371.3,285.3 L 371.5,285.5 L 371.6,285.7 L 372.0,286.5 L 372.1,286.7 L 372.2,287.5 L 372.3,287.8 L 372.4,288.3 L 372.5,288.6 L 372.5,288.6 L 372.6,289.6 L 372.6,290.4 L 372.6,290.4 L 372.6,290.7 L 372.6,290.9 L 372.6,290.9 L 372.5,291.2 L 372.5,291.8 L 372.3,292.2 L 372.1,292.8 L 371.7,293.5 L 371.5,293.8 L 371.3,294.1 L 370.8,294.7 L 370.6,295.0 L 370.2,295.4 L 370.0,295.4 L 369.6,295.7 L 369.5,295.9 L 369.3,296.2 L 369.2,296.7 L 369.1,297.2 L 369.2,297.6 L 369.3,297.8 L 369.5,298.3 L 369.7,298.6 L 370.1,299.0 L 370.4,299.1 L 371.3,299.4 L 371.6,299.5 L 372.2,299.5 L 372.3,299.5 L 372.8,299.4 L 373.1,299.2 L 373.3,299.1 L 373.7,298.7 L 374.3,298.1 L 374.7,297.6 L 375.1,297.1 L 375.3,297.0 L 376.0,296.7 L 376.3,296.6 L 376.6,296.6 L 376.9,296.7 L 377.0,296.7 L 377.2,296.8 L 377.4,297.2 L 377.7,297.6 L 378.0,298.6 L 378.2,299.2 L 378.4,300.3 L 378.9,301.7 L 379.1,302.2 L 379.3,302.9 L 379.5,303.5 L 379.5,303.5 L 379.5,303.5 L 379.7,304.6 L 379.7,304.9 L 379.6,305.5 L 379.5,306.0 L 379.2,307.1 L 378.8,307.9 L 377.8,309.7 L 377.6,310.2 L 377.1,311.0 L 376.9,311.6 L 377.0,312.7 L 377.3,313.6 L 377.4,313.8 L 377.7,314.2 L 378.2,314.8 L 378.5,315.1 L 378.6,315.2 L 379.1,315.4 L 379.9,315.8 L 380.2,316.0 L 380.5,316.0 L 381.3,316.1 L 381.8,316.2 L 382.0,316.3 L 382.6,316.6 L 382.9,316.8 L 383.1,317.0 L 383.6,317.8 L 383.9,318.7 L 384.0,319.0 L 384.1,319.7 L 384.2,320.1 L 384.2,320.5 L 384.3,320.9 L 384.4,321.2 L 384.7,321.7 L 384.9,322.0 L 385.1,322.1 L 385.7,322.3 L 386.0,322.3 L 386.3,322.4 L 386.6,322.4 L 386.9,322.5 L 387.4,322.4 L 387.7,322.3 L 388.0,322.4 L 388.0,322.4 L 388.1,322.4 L 388.7,322.5 L 389.0,322.6 L 389.1,322.8 L 389.5,323.2 L 389.8,323.5 L 389.9,323.7 L 390.0,323.9 L 390.1,324.1 L 390.1,324.9 L 390.2,326.1 L 390.2,326.1 L 390.3,326.7 L 390.3,327.1 L 390.4,327.5 L 390.5,328.2 L 390.5,328.4 L 390.3,329.1 L 390.2,329.5 L 389.6,330.9 L 389.4,331.6 L 388.7,333.2 L 388.6,333.6 L 388.4,333.9 L 388.3,334.4 L 388.3,334.9 L 388.3,335.4 L 388.4,336.0 L 388.5,336.4 L 388.6,336.5 L 388.6,336.5 L 388.6,336.8 L 388.9,337.2 L 389.6,337.9 L 390.3,338.5 L 390.5,338.6 L 390.5,338.6 L 390.7,338.8 L 391.1,339.1 L 391.5,339.4 L 392.6,340.3 L 392.9,340.6 L 393.8,341.2 L 393.9,341.3 L 394.1,341.6 L 394.2,342.0 L 394.3,342.3 L 394.4,342.6 L 394.4,342.8 L 394.4,343.2 L 394.4,343.3 L 394.3,343.6 L 394.1,343.8 L 393.9,343.9 L 392.3,343.9 L 392.0,344.0 L 391.7,344.0 L 391.4,344.1 L 391.2,344.1 L 391.1,344.1 L 391.1,344.1 L 390.9,344.2 L 390.2,344.6 L 389.9,344.8 L 389.6,345.1 L 389.6,345.1 L 389.6,345.1 L 389.4,345.3 L 389.2,345.7 L 389.0,346.2 L 389.0,346.3 L 389.0,346.6 L 389.1,347.1 L 389.4,347.8 L 389.4,347.8 L 389.4,347.9 L 389.4,347.9 L 389.5,348.0 L 389.9,348.6 L 390.5,349.7 L 391.2,350.7 L 391.4,351.0 L 391.4,351.0 L 391.4,351.0 L 391.7,351.5 L 391.8,351.7 L 391.8,351.7 L 392.2,352.4 L 392.7,353.1 L 393.1,353.6 L 393.3,354.0 L 393.4,354.2 L 394.0,354.9 L 394.7,355.5 L 394.9,355.7 L 394.9,355.7 L 395.1,355.8 L 395.1,355.8 L 395.2,355.9 L 395.8,356.3 L 396.1,356.4 L 396.8,356.9 L 397.4,357.0 L 397.5,357.1 L 397.5,357.1 L 398.0,357.2 L 368.0,400.0 L 330.5,412.0 L 300.4,403.4 L 220.9,282.0 L 223.7,274.8 Z M 363.6,255.0 L 363.6,255.6 L 363.4,256.1 L 363.4,256.5 L 363.3,256.8 L 363.0,257.7 L 362.7,258.1 L 362.7,258.1 L 362.6,258.4 L 362.1,259.2 L 362.1,259.2 L 362.0,259.3 L 361.8,259.5 L 361.4,259.8 L 361.1,259.9 L 360.7,260.0 L 360.7,260.0 L 360.7,260.0 L 360.5,260.0 L 360.5,260.0 L 359.9,260.0 L 359.6,259.8 L 359.3,259.7 L 359.0,259.5 L 359.0,259.5 L 359.0,259.5 L 358.7,259.3 L 358.0,259.1 L 357.7,258.9 L 357.1,258.7 L 356.8,258.5 L 356.6,258.4 L 356.0,258.3 L 355.9,258.3 L 355.9,258.3 L 355.8,258.3 L 355.8,258.3 L 355.6,258.2 L 355.3,258.2 L 354.9,258.2 L 353.7,258.2 L 353.4,258.2 L 353.0,258.2 L 351.5,258.4 L 350.9,258.5 L 350.7,258.5 L 350.4,258.6 L 350.1,258.5 L 349.8,258.5 L 349.5,258.4 L 349.1,258.3 L 348.9,258.3 L 348.9,258.3 L 348.7,258.3 L 348.3,258.2 L 348.1,258.1 L 348.1,258.1 L 348.1,258.1 L 347.7,258.0 L 347.3,257.8 L 347.1,257.6 L 346.8,257.6 L 346.3,257.3 L 346.0,257.1 L 345.8,257.0 L 363.8,254.4 L 363.6,255.0 Z" class="poly" fill="#e3a76f" data-short="14N01W04K003M" data-ma="Other" data-base-year="1999" data-end-year="2022" data-span="23" data-area="26,919" data-rms-wells="14N01W04K003M" data-sy="0.1000" data-sy-source="uniform 0.10" data-avg-dgwe="-0.17" data-cum-stor="-10,767" data-avg-rate="-468" data-critdry-share="76%" data-crit-share="19%" data-bucket-wet="+18,708" data-bucket-an="+6,730" data-bucket-bn="-4,172" data-bucket-dry="-31,091" data-bucket-critical="-942" data-hold="468" data-project="0" data-project-name="" data-coverage="-468" data-late=""><title>Click for 14N01W04K003M detail</title></path>
<path d="M 212.1,556.8 L 201.6,578.4 L 190.2,578.5 L 190.3,561.7 L 190.3,561.7 L 190.3,559.3 L 190.3,559.3 L 190.3,559.3 L 190.3,559.3 L 189.9,559.3 L 189.0,559.3 L 180.0,559.3 L 180.0,559.3 L 180.0,559.3 L 180.0,559.4 L 180.0,561.6 L 180.0,561.6 L 180.1,570.4 L 170.5,570.4 L 170.3,561.6 L 170.3,561.6 L 170.2,559.4 L 170.2,559.4 L 170.2,559.3 L 170.2,559.3 L 170.2,559.3 L 169.1,559.3 L 152.8,542.2 L 130.1,498.2 L 107.4,461.5 L 106.9,458.4 L 171.2,459.7 L 212.1,556.8 Z" class="poly" fill="#cb7740" data-short="13N02W20H002M" data-ma="CCWD" data-base-year="2007" data-end-year="2025" data-span="18" data-area="9,617" data-rms-wells="13N02W20H002M" data-sy="0.1000" data-sy-source="uniform 0.10" data-avg-dgwe="-1.53" data-cum-stor="-26,543" data-avg-rate="-1,475" data-critdry-share="76%" data-crit-share="64%" data-bucket-wet="+582" data-bucket-an="+4,611" data-bucket-bn="-2,020" data-bucket-dry="-673" data-bucket-critical="-29,044" data-hold="1,475" data-project="0" data-project-name="" data-coverage="-1,475" data-late="1"><title>Click for 13N02W20H002M detail</title></path>
<path d="M 242.4,421.1 L 252.1,518.7 L 250.2,519.6 L 197.2,445.9 L 212.4,428.5 L 238.2,421.3 L 242.4,421.1 Z" class="poly" fill="#cb7740" data-short="13N02W12L001M" data-ma="CCWD" data-base-year="2000" data-end-year="2025" data-span="25" data-area="4,181" data-rms-wells="13N02W12L001M" data-sy="0.1000" data-sy-source="uniform 0.10" data-avg-dgwe="-2.07" data-cum-stor="-21,656" data-avg-rate="-866" data-critdry-share="84%" data-crit-share="31%" data-bucket-wet="+8,041" data-bucket-an="+1,937" data-bucket-bn="-5,226" data-bucket-dry="-16,012" data-bucket-critical="-10,396" data-hold="866" data-project="0" data-project-name="" data-coverage="-866" data-late="1"><title>Click for 13N02W12L001M detail</title></path>
<path d="M 346.7,532.7 L 323.7,561.6 L 266.8,515.6 L 313.6,464.3 L 346.7,532.7 Z" class="poly" fill="#a8c8b0" data-short="13N01W22P002M" data-ma="CCWD" data-base-year="2000" data-end-year="2008" data-span="8" data-area="6,031" data-rms-wells="13N01W22P002M" data-sy="0.1000" data-sy-source="uniform 0.10" data-avg-dgwe="+1.14" data-cum-stor="+5,488" data-avg-rate="+686" data-critdry-share="100%" data-crit-share="-0%" data-bucket-wet="+1,196" data-bucket-an="+2,392" data-bucket-bn="+1,196" data-bucket-dry="-7,679" data-bucket-critical="+8,383" data-hold="0" data-project="0" data-project-name="" data-coverage="+0" data-late="1"><title>Click for 13N01W22P002M detail</title></path>
<path d="M 167.4,323.7 L 165.5,365.4 L 107.9,444.3 L 115.4,318.4 L 167.4,323.7 Z" class="poly" fill="#a84a2c" data-short="14N03W24C001M" data-ma="CCWD" data-base-year="2000" data-end-year="2020" data-span="20" data-area="6,994" data-rms-wells="14N03W24C001M" data-sy="0.1000" data-sy-source="uniform 0.10" data-avg-dgwe="-2.43" data-cum-stor="-33,991" data-avg-rate="-1,700" data-critdry-share="59%" data-crit-share="36%" data-bucket-wet="-1,084" data-bucket-an="+2,448" data-bucket-bn="-10,596" data-bucket-dry="-8,708" data-bucket-critical="-16,051" data-hold="1,700" data-project="0" data-project-name="" data-coverage="-1,700" data-late="1"><title>Click for 14N03W24C001M detail</title></path>
<path d="M 171.2,459.7 L 197.2,445.9 L 250.2,519.6 L 212.1,556.8 L 171.2,459.7 Z" class="poly" fill="#a84a2c" data-short="13N02W15J001M" data-ma="CCWD" data-base-year="1999" data-end-year="2014" data-span="15" data-area="6,250" data-rms-wells="13N02W15J001M" data-sy="0.1000" data-sy-source="uniform 0.10" data-avg-dgwe="-3.76" data-cum-stor="-35,248" data-avg-rate="-2,350" data-critdry-share="78%" data-crit-share="33%" data-bucket-wet="+6" data-bucket-an="-1,469" data-bucket-bn="-5,119" data-bucket-dry="-16,146" data-bucket-critical="-12,521" data-hold="2,350" data-project="0" data-project-name="" data-coverage="-2,350" data-late=""><title>Click for 13N02W15J001M detail</title></path>
<path d="M 252.1,518.7 L 266.8,515.6 L 323.7,561.6 L 325.7,669.2 L 320.0,673.6 L 318.4,671.8 L 317.0,670.2 L 315.5,668.6 L 315.5,668.6 L 313.3,666.0 L 308.0,660.0 L 307.9,659.8 L 307.8,659.7 L 307.9,659.6 L 308.0,659.4 L 308.9,658.0 L 309.0,657.7 L 309.1,657.3 L 309.1,656.9 L 309.0,656.5 L 308.8,656.2 L 308.0,655.2 L 304.0,650.4 L 304.0,650.3 L 303.8,650.1 L 297.7,641.1 L 294.9,637.0 L 294.9,636.9 L 291.2,630.2 L 290.1,628.0 L 290.1,628.0 L 287.5,623.4 L 285.8,620.3 L 285.7,620.1 L 285.5,619.8 L 285.2,619.6 L 277.5,616.3 L 274.7,615.1 L 274.6,615.0 L 274.6,614.9 L 274.5,607.2 L 274.5,606.5 L 274.4,603.1 L 274.4,602.7 L 274.2,602.3 L 274.0,602.0 L 273.8,601.8 L 273.5,601.7 L 271.5,601.5 L 265.7,600.7 L 265.6,600.7 L 265.6,600.6 L 265.4,595.7 L 265.4,595.6 L 265.6,591.6 L 265.5,591.2 L 265.4,590.8 L 265.2,590.4 L 264.9,590.2 L 264.5,590.1 L 258.0,589.8 L 257.9,589.8 L 257.9,589.7 L 257.9,589.6 L 257.9,588.7 L 257.8,588.2 L 257.6,584.2 L 257.6,583.5 L 257.5,583.1 L 257.3,582.7 L 257.1,582.4 L 256.8,582.2 L 249.0,578.9 L 248.8,579.0 L 229.8,578.8 L 230.0,567.4 L 230.0,567.4 L 210.1,567.3 L 210.1,567.3 L 209.9,578.3 L 201.6,578.4 L 212.1,556.8 L 250.2,519.6 L 252.1,518.7 Z" class="poly" fill="#a84a2c" data-short="12N01W05B001M" data-ma="Dunnigan" data-base-year="1999" data-end-year="2025" data-span="26" data-area="13,240" data-rms-wells="12N01W05B001M" data-sy="0.1000" data-sy-source="uniform 0.10" data-avg-dgwe="-1.58" data-cum-stor="-54,362" data-avg-rate="-2,091" data-critdry-share="65%" data-crit-share="43%" data-bucket-wet="+7,282" data-bucket-an="+22,832" data-bucket-bn="-24,163" data-bucket-dry="-18,185" data-bucket-critical="-42,128" data-hold="2,091" data-project="0" data-project-name="" data-coverage="-2,091" data-late=""><title>Click for 12N01W05B001M detail</title></path>
<path d="M 353.7,661.5 L 469.9,734.0 L 466.4,761.2 L 458.0,771.9 L 415.5,793.4 L 410.8,785.0 L 410.8,784.9 L 410.8,784.9 L 412.4,784.2 L 412.8,784.0 L 413.0,783.6 L 413.1,783.2 L 413.2,782.8 L 413.1,782.3 L 412.9,781.9 L 406.8,773.1 L 406.8,773.0 L 401.3,762.7 L 401.3,762.6 L 400.3,761.1 L 396.2,754.8 L 396.0,754.5 L 388.1,746.8 L 388.1,746.8 L 376.0,733.8 L 376.0,733.7 L 367.2,722.7 L 367.0,722.5 L 366.8,722.4 L 356.3,718.6 L 356.1,718.5 L 351.5,715.4 L 351.5,715.3 L 351.5,715.2 L 351.8,709.3 L 351.7,708.9 L 351.6,708.5 L 351.4,708.2 L 346.7,702.8 L 346.6,702.7 L 344.4,700.4 L 342.3,698.2 L 342.3,698.1 L 342.3,698.0 L 342.8,695.9 L 342.8,695.5 L 342.8,695.1 L 342.6,694.7 L 342.4,694.4 L 339.6,691.5 L 339.5,691.4 L 339.5,691.2 L 339.0,686.6 L 338.9,686.2 L 338.8,685.9 L 338.6,685.6 L 334.2,681.7 L 334.1,681.5 L 334.0,681.4 L 333.8,681.1 L 333.7,681.1 L 333.5,681.0 L 333.2,680.7 L 328.2,675.5 L 328.0,675.4 L 324.4,673.3 L 324.0,673.2 L 323.7,673.3 L 323.4,673.4 L 323.1,673.7 L 322.5,674.7 L 321.9,675.6 L 321.9,675.6 L 321.8,675.6 L 321.1,674.9 L 321.0,674.7 L 320.0,673.6 L 325.7,669.2 L 353.7,661.5 Z" class="poly" fill="#e3a76f" data-short="11N01E16P001M" data-ma="Other" data-base-year="1999" data-end-year="2025" data-span="26" data-area="12,828" data-rms-wells="11N01E16P001M" data-sy="0.1000" data-sy-source="uniform 0.10" data-avg-dgwe="-0.53" data-cum-stor="-17,790" data-avg-rate="-684" data-critdry-share="80%" data-crit-share="57%" data-bucket-wet="+49,901" data-bucket-an="+12,956" data-bucket-bn="-13,598" data-bucket-dry="-20,140" data-bucket-critical="-46,909" data-hold="684" data-project="0" data-project-name="" data-coverage="-684" data-late=""><title>Click for 11N01E16P001M detail</title></path>
<path d="M 523.1,684.2 L 570.3,660.4 L 571.1,660.4 L 571.2,660.4 L 571.7,660.5 L 571.7,660.5 L 571.9,660.5 L 571.9,660.6 L 572.3,660.7 L 572.3,660.7 L 572.5,660.8 L 572.5,660.9 L 572.7,661.0 L 572.7,661.0 L 572.8,661.1 L 572.9,661.1 L 573.0,661.3 L 573.1,661.4 L 573.2,661.4 L 573.2,661.5 L 573.2,661.5 L 573.3,661.7 L 573.4,661.8 L 573.4,661.9 L 573.4,662.0 L 573.4,662.1 L 573.5,662.2 L 573.5,662.4 L 573.5,662.5 L 573.5,662.6 L 573.5,662.8 L 573.4,663.0 L 573.4,663.1 L 573.3,663.2 L 573.1,663.4 L 572.9,663.7 L 572.8,663.8 L 572.6,664.0 L 572.6,664.1 L 571.6,664.7 L 570.8,665.3 L 570.7,665.4 L 570.5,665.6 L 570.4,665.6 L 570.2,665.8 L 570.1,665.8 L 569.4,666.4 L 569.3,666.5 L 569.2,666.6 L 568.8,666.9 L 568.8,667.0 L 568.2,667.7 L 568.2,667.7 L 568.0,667.9 L 567.9,668.1 L 567.6,668.6 L 567.5,668.9 L 567.5,669.0 L 567.4,669.2 L 567.4,669.3 L 567.4,669.5 L 567.3,670.3 L 567.3,670.4 L 567.3,670.7 L 567.3,670.9 L 567.3,670.9 L 567.4,671.2 L 567.4,671.3 L 567.5,671.4 L 567.5,671.5 L 567.6,671.8 L 567.7,672.0 L 568.2,672.9 L 568.3,673.0 L 568.4,673.3 L 568.4,673.4 L 568.7,673.7 L 568.8,673.9 L 568.9,674.1 L 568.9,674.1 L 569.7,675.2 L 569.8,675.3 L 569.9,675.4 L 570.0,675.5 L 570.2,675.8 L 570.2,675.9 L 570.3,676.1 L 570.3,676.2 L 570.4,676.3 L 570.3,676.4 L 570.3,676.7 L 570.3,676.8 L 570.2,676.9 L 570.2,677.0 L 570.1,677.0 L 570.0,677.1 L 569.9,677.1 L 569.8,677.2 L 569.6,677.2 L 569.5,677.3 L 569.5,677.3 L 569.0,677.4 L 569.0,677.5 L 568.8,677.5 L 568.7,677.6 L 568.3,677.8 L 568.2,677.9 L 568.0,677.9 L 567.9,678.0 L 567.8,678.0 L 567.5,678.2 L 567.4,678.2 L 567.3,678.2 L 567.1,678.3 L 566.8,678.5 L 566.6,678.6 L 566.6,678.6 L 566.5,678.7 L 566.5,678.8 L 566.3,679.1 L 566.1,679.5 L 566.0,680.1 L 566.0,680.3 L 565.9,680.8 L 565.9,680.8 L 565.9,680.9 L 565.6,682.4 L 565.6,682.4 L 565.4,683.0 L 565.4,683.1 L 565.3,683.8 L 565.3,683.9 L 565.2,684.2 L 565.2,684.6 L 565.2,684.7 L 565.3,685.2 L 565.5,685.5 L 565.6,685.8 L 566.2,686.5 L 566.3,686.6 L 567.1,687.5 L 567.1,687.5 L 568.3,688.9 L 568.3,689.0 L 568.6,689.3 L 568.7,689.5 L 568.9,689.6 L 569.0,689.7 L 569.0,689.8 L 569.2,690.1 L 569.3,690.2 L 569.5,690.4 L 569.5,690.4 L 570.1,691.4 L 570.1,691.4 L 570.5,691.9 L 570.5,692.0 L 570.8,692.4 L 570.8,692.5 L 571.1,692.8 L 571.1,692.9 L 571.1,692.9 L 571.7,693.9 L 571.7,693.9 L 572.0,694.7 L 572.1,694.9 L 572.2,695.0 L 572.6,696.1 L 572.6,696.1 L 572.8,696.5 L 572.9,697.0 L 573.0,697.1 L 573.0,697.3 L 573.0,697.4 L 573.2,698.6 L 573.2,698.7 L 573.3,699.3 L 573.3,699.4 L 573.3,701.0 L 573.3,701.0 L 573.2,703.1 L 573.2,703.2 L 573.1,704.7 L 573.0,704.9 L 572.9,705.5 L 572.9,705.6 L 572.7,706.3 L 572.7,706.4 L 572.6,707.4 L 572.5,707.9 L 572.5,707.9 L 572.4,708.6 L 572.3,708.9 L 572.3,709.8 L 572.3,709.9 L 572.4,710.7 L 572.4,710.9 L 572.5,711.7 L 572.6,712.0 L 572.7,712.3 L 572.7,712.4 L 572.7,712.5 L 572.9,713.2 L 572.9,713.4 L 573.0,713.6 L 573.0,713.7 L 573.3,715.3 L 573.3,715.4 L 573.4,716.2 L 573.4,716.2 L 573.5,716.8 L 573.5,716.9 L 573.5,717.2 L 573.5,717.3 L 573.4,717.6 L 573.4,718.0 L 573.4,718.6 L 573.3,718.7 L 573.3,719.1 L 573.3,719.2 L 573.2,719.7 L 573.2,720.0 L 573.2,720.2 L 573.2,720.3 L 573.2,720.6 L 573.2,720.7 L 573.3,721.5 L 573.4,721.5 L 573.4,722.2 L 573.4,722.2 L 573.6,724.6 L 573.6,724.6 L 573.6,726.1 L 573.6,726.2 L 573.7,727.0 L 573.7,727.1 L 573.7,728.1 L 573.7,728.1 L 573.7,728.3 L 573.7,728.4 L 573.8,728.6 L 573.8,728.9 L 574.1,729.6 L 574.2,729.9 L 574.2,730.0 L 574.3,730.1 L 574.3,730.1 L 574.7,730.5 L 574.7,730.5 L 575.0,730.6 L 575.6,730.8 L 575.7,730.8 L 576.2,730.8 L 576.4,730.8 L 576.7,730.8 L 576.8,730.8 L 577.0,730.8 L 577.1,730.8 L 577.3,730.8 L 577.5,730.7 L 577.6,730.6 L 577.7,730.6 L 578.1,730.5 L 578.2,730.5 L 578.9,730.4 L 579.1,730.3 L 579.6,730.2 L 579.6,730.2 L 579.9,730.2 L 580.0,730.1 L 580.1,730.1 L 580.2,730.1 L 580.7,730.1 L 580.8,730.1 L 581.6,730.3 L 581.6,730.3 L 581.8,730.3 L 581.8,730.3 L 581.9,730.4 L 581.9,730.4 L 582.6,730.7 L 582.6,730.7 L 582.7,730.7 L 583.0,730.9 L 583.7,731.3 L 583.8,731.3 L 584.9,731.7 L 585.0,731.7 L 585.3,731.8 L 585.4,731.9 L 586.0,732.2 L 586.2,732.2 L 587.0,732.4 L 587.1,732.4 L 587.5,732.4 L 587.5,732.4 L 588.2,732.5 L 588.2,732.5 L 588.5,732.5 L 588.6,732.5 L 589.1,732.5 L 589.1,732.5 L 590.7,732.5 L 590.8,732.5 L 591.1,732.5 L 591.2,732.5 L 591.6,732.4 L 591.6,732.4 L 592.4,732.1 L 592.4,732.1 L 593.4,731.8 L 593.7,731.6 L 593.8,731.5 L 593.9,731.4 L 594.1,731.2 L 594.1,731.2 L 594.6,730.8 L 594.7,730.7 L 595.0,730.5 L 595.1,730.5 L 595.6,730.2 L 595.6,730.2 L 596.8,729.8 L 596.8,729.8 L 597.3,729.7 L 597.3,729.7 L 597.7,729.7 L 597.8,729.7 L 598.3,729.8 L 598.4,729.8 L 598.7,729.9 L 598.8,729.9 L 599.0,730.0 L 599.1,730.1 L 599.5,730.3 L 599.7,730.4 L 599.9,730.6 L 599.9,730.6 L 600.2,730.9 L 600.2,731.0 L 600.6,731.5 L 600.6,731.7 L 600.6,731.7 L 601.2,732.8 L 601.3,732.9 L 601.4,733.3 L 601.4,733.4 L 601.5,733.8 L 601.5,733.8 L 601.7,734.6 L 601.7,734.6 L 601.7,734.7 L 601.8,735.6 L 601.9,735.7 L 601.9,735.8 L 601.9,736.1 L 602.0,736.2 L 602.1,736.7 L 602.2,736.8 L 602.3,736.9 L 602.3,737.0 L 602.6,737.4 L 602.7,737.7 L 602.7,737.7 L 603.0,738.1 L 603.2,738.3 L 603.3,738.4 L 603.3,738.4 L 603.3,738.5 L 603.5,738.6 L 603.8,738.9 L 604.3,739.1 L 604.5,739.2 L 604.6,739.2 L 605.2,739.5 L 605.3,739.5 L 605.6,739.6 L 605.7,739.6 L 606.1,739.7 L 606.2,739.7 L 606.9,739.7 L 606.9,739.7 L 607.9,739.8 L 607.9,739.8 L 608.1,739.8 L 608.2,739.9 L 608.5,739.9 L 608.7,739.9 L 608.8,740.0 L 608.8,740.0 L 608.9,740.1 L 608.9,740.1 L 608.9,740.3 L 608.9,740.6 L 608.9,740.7 L 608.8,740.8 L 608.4,741.5 L 608.2,742.0 L 608.2,742.0 L 607.9,742.5 L 607.9,742.5 L 607.4,743.4 L 607.3,743.5 L 607.1,743.9 L 607.0,743.9 L 606.7,744.4 L 606.6,744.7 L 538.6,792.3 L 466.4,761.2 L 469.9,734.0 L 523.1,684.2 Z" class="poly" fill="#e3a76f" data-short="11N02E20K004M" data-ma="Other" data-base-year="1999" data-end-year="2025" data-span="26" data-area="15,502" data-rms-wells="11N02E20K004M" data-sy="0.1000" data-sy-source="uniform 0.10" data-avg-dgwe="-0.22" data-cum-stor="-8,743" data-avg-rate="-336" data-critdry-share="83%" data-crit-share="48%" data-bucket-wet="+12,572" data-bucket-an="+10,774" data-bucket-bn="-155" data-bucket-dry="-14,262" data-bucket-critical="-17,673" data-hold="336" data-project="0" data-project-name="" data-coverage="-336" data-late=""><title>Click for 11N02E20K004M detail</title></path>
<path d="M 548.7,833.3 L 548.5,833.3 L 548.2,833.5 L 547.8,833.8 L 546.5,834.8 L 546.5,834.8 L 546.4,834.9 L 545.4,834.9 L 545.0,835.0 L 544.7,835.3 L 543.2,837.3 L 543.1,837.3 L 542.9,837.6 L 542.9,837.6 L 542.8,837.7 L 540.6,839.4 L 540.5,839.4 L 540.5,839.4 L 540.3,839.4 L 538.5,839.5 L 538.4,839.5 L 538.3,839.5 L 538.2,839.4 L 538.0,839.2 L 537.7,839.1 L 536.0,838.7 L 535.7,838.7 L 535.3,838.8 L 534.9,838.9 L 534.6,839.1 L 534.3,839.5 L 534.3,839.5 L 534.0,839.8 L 533.9,840.2 L 533.8,840.2 L 533.2,842.4 L 532.7,843.9 L 532.5,844.7 L 532.3,845.4 L 532.2,845.5 L 532.1,845.4 L 530.6,844.4 L 524.6,840.3 L 524.0,839.9 L 524.0,839.8 L 523.5,839.4 L 523.5,839.4 L 521.5,837.3 L 521.2,837.1 L 518.0,835.3 L 517.6,835.2 L 514.4,834.9 L 514.2,834.9 L 513.2,835.0 L 513.0,835.0 L 513.0,835.0 L 512.9,834.9 L 509.5,832.8 L 509.3,832.6 L 507.4,830.2 L 507.4,830.2 L 507.2,829.8 L 507.1,829.6 L 506.9,828.8 L 506.8,828.7 L 535.2,804.4 L 548.7,833.3 Z" class="poly" fill="#a8c8b0" data-short="10N02E09N001M" data-ma="Other" data-base-year="2002" data-end-year="2025" data-span="23" data-area="1,358" data-rms-wells="10N02E09N001M" data-sy="0.1000" data-sy-source="uniform 0.10" data-avg-dgwe="+0.01" data-cum-stor="+35" data-avg-rate="+2" data-critdry-share="64%" data-crit-share="42%" data-bucket-wet="+1,311" data-bucket-an="+1,321" data-bucket-bn="-105" data-bucket-dry="-933" data-bucket-critical="-1,558" data-hold="0" data-project="0" data-project-name="" data-coverage="+0" data-late="1"><title>Click for 10N02E09N001M detail</title></path>
<path d="M 485.4,602.2 L 485.4,602.3 L 485.2,602.5 L 485.2,602.6 L 485.1,602.9 L 485.1,603.0 L 484.9,603.5 L 484.9,603.6 L 484.9,603.9 L 484.8,604.2 L 484.8,604.3 L 484.7,604.7 L 484.7,604.8 L 484.4,606.4 L 484.4,606.5 L 484.3,606.8 L 484.3,606.9 L 484.0,607.7 L 483.9,607.8 L 483.8,608.2 L 483.7,608.2 L 483.7,608.4 L 483.6,608.5 L 483.0,609.6 L 483.0,609.6 L 482.8,610.0 L 482.7,610.1 L 481.9,611.1 L 481.8,611.2 L 481.7,611.3 L 481.6,611.4 L 481.3,611.7 L 481.2,611.8 L 481.2,611.9 L 480.9,612.1 L 480.9,612.1 L 480.1,612.6 L 480.0,612.6 L 479.5,612.9 L 479.5,613.0 L 479.4,613.0 L 479.4,613.0 L 478.3,613.7 L 478.3,613.7 L 477.9,613.9 L 477.9,613.9 L 477.6,614.0 L 477.5,614.0 L 477.1,614.2 L 477.1,614.2 L 476.7,614.3 L 476.7,614.3 L 476.4,614.4 L 476.4,614.4 L 476.0,614.6 L 476.0,614.6 L 475.8,614.6 L 475.7,614.7 L 475.6,614.7 L 474.3,615.1 L 474.2,615.1 L 474.1,615.2 L 474.1,615.2 L 473.9,615.3 L 473.8,615.4 L 473.6,615.5 L 473.6,615.6 L 473.5,615.7 L 473.4,615.8 L 473.3,616.0 L 473.2,616.1 L 473.2,616.3 L 473.1,616.5 L 473.0,616.8 L 473.0,616.9 L 472.9,617.2 L 472.8,617.3 L 472.7,617.6 L 472.7,617.6 L 472.7,617.8 L 472.6,618.1 L 472.6,618.1 L 472.6,618.4 L 472.6,618.5 L 472.5,618.8 L 472.5,619.0 L 472.4,619.2 L 472.4,619.4 L 472.4,619.5 L 472.3,619.8 L 472.3,619.9 L 472.5,620.5 L 472.5,620.6 L 472.7,620.9 L 472.8,621.2 L 473.0,621.3 L 473.2,621.5 L 473.4,621.9 L 473.4,621.9 L 473.6,622.1 L 473.7,622.3 L 473.7,622.6 L 473.7,622.6 L 473.8,622.9 L 473.9,623.2 L 474.0,623.6 L 474.1,623.9 L 474.1,624.4 L 474.1,624.4 L 474.1,625.1 L 474.2,625.5 L 474.3,625.9 L 474.4,626.1 L 474.4,626.1 L 474.5,626.5 L 474.7,626.8 L 474.9,627.0 L 474.9,627.0 L 475.3,627.5 L 475.4,627.6 L 475.6,627.8 L 475.6,627.8 L 475.8,628.0 L 476.4,628.6 L 476.4,628.7 L 477.0,629.4 L 477.1,629.5 L 477.2,629.6 L 477.3,629.6 L 477.4,629.8 L 477.5,629.8 L 477.5,629.8 L 477.5,629.9 L 477.7,630.2 L 477.8,630.2 L 477.8,630.3 L 477.9,630.4 L 478.0,630.6 L 478.1,630.7 L 478.1,630.7 L 478.2,630.9 L 478.2,630.9 L 478.3,631.1 L 478.5,631.4 L 478.6,631.4 L 478.6,631.5 L 478.6,631.5 L 478.7,631.5 L 478.8,631.7 L 478.8,631.7 L 479.0,631.9 L 479.1,632.0 L 479.1,632.1 L 479.1,632.1 L 479.1,632.1 L 479.3,632.3 L 479.3,632.3 L 479.3,632.4 L 479.5,632.6 L 479.6,632.7 L 479.7,632.8 L 479.7,632.9 L 479.9,633.1 L 480.0,633.1 L 480.2,633.3 L 480.3,633.4 L 480.4,633.5 L 480.6,633.5 L 480.6,633.5 L 480.6,633.6 L 480.7,633.6 L 480.7,633.6 L 480.7,633.6 L 480.9,633.7 L 481.4,633.9 L 481.5,633.9 L 481.6,633.9 L 481.7,633.9 L 481.9,634.0 L 481.9,634.0 L 482.3,634.0 L 482.4,634.1 L 482.5,634.1 L 482.6,634.1 L 482.8,634.2 L 483.0,634.2 L 483.3,634.3 L 483.4,634.3 L 483.4,634.3 L 483.5,634.3 L 483.8,634.3 L 483.8,634.3 L 483.9,634.4 L 484.0,634.4 L 484.0,634.4 L 484.3,634.4 L 484.3,634.5 L 484.6,634.5 L 484.8,634.6 L 484.9,634.6 L 485.0,634.6 L 485.1,634.7 L 485.2,634.7 L 485.2,634.7 L 485.8,635.2 L 485.9,635.2 L 486.4,635.6 L 486.5,635.7 L 486.5,635.8 L 486.7,636.1 L 486.8,636.2 L 486.9,636.3 L 486.9,636.3 L 487.1,636.5 L 487.1,636.6 L 487.2,636.8 L 487.3,636.9 L 487.4,637.1 L 487.4,637.1 L 487.5,637.2 L 487.5,637.2 L 487.5,637.4 L 487.5,637.4 L 487.6,637.6 L 487.6,637.6 L 487.7,637.8 L 487.7,637.9 L 487.7,637.9 L 487.8,638.2 L 487.8,638.2 L 487.8,638.3 L 487.8,638.3 L 487.8,638.4 L 487.9,638.7 L 487.9,638.7 L 487.9,639.1 L 487.9,639.1 L 487.9,639.3 L 488.0,639.5 L 488.0,639.6 L 488.0,639.7 L 488.0,639.8 L 488.0,639.9 L 488.0,640.1 L 488.1,640.5 L 488.1,640.5 L 488.1,640.6 L 488.1,640.7 L 488.1,641.0 L 488.1,641.0 L 488.1,641.2 L 488.1,641.2 L 488.1,641.3 L 488.1,641.4 L 488.1,641.4 L 488.1,641.4 L 488.1,641.6 L 488.1,641.6 L 488.0,641.8 L 488.0,641.9 L 488.0,641.9 L 488.0,642.0 L 488.0,642.0 L 487.9,642.5 L 487.9,642.6 L 488.0,643.1 L 488.2,643.5 L 488.2,643.5 L 488.3,643.6 L 488.6,643.9 L 488.7,644.0 L 488.8,644.1 L 488.8,644.1 L 489.1,644.2 L 489.4,644.3 L 489.5,644.3 L 489.7,644.3 L 489.7,644.3 L 489.9,644.2 L 490.0,644.2 L 490.2,644.1 L 490.2,644.1 L 490.3,644.1 L 490.4,644.0 L 490.5,644.0 L 490.7,643.9 L 491.0,643.7 L 491.0,643.7 L 491.0,643.7 L 491.0,643.7 L 491.3,643.6 L 491.3,643.5 L 491.4,643.5 L 491.6,643.3 L 491.6,643.3 L 491.7,643.3 L 491.7,643.2 L 491.8,643.1 L 491.8,643.1 L 492.0,643.0 L 492.0,643.0 L 492.0,642.9 L 492.2,642.8 L 492.3,642.7 L 492.4,642.5 L 492.6,642.4 L 492.8,642.2 L 492.8,642.1 L 493.0,642.0 L 493.0,641.9 L 493.3,641.7 L 493.4,641.6 L 493.5,641.5 L 493.5,641.4 L 493.6,641.4 L 493.9,641.3 L 493.9,641.2 L 494.0,641.2 L 494.2,641.2 L 494.5,641.0 L 494.6,641.0 L 494.7,641.0 L 494.7,640.9 L 494.8,640.9 L 495.1,640.9 L 495.2,640.9 L 495.2,640.9 L 495.3,640.9 L 495.4,641.0 L 495.6,641.0 L 495.6,641.0 L 495.8,641.1 L 495.8,641.2 L 495.9,641.2 L 496.0,641.3 L 496.1,641.3 L 496.1,641.4 L 496.2,641.4 L 496.2,641.5 L 496.3,641.6 L 496.4,641.7 L 496.5,641.7 L 496.6,641.8 L 496.6,641.9 L 496.7,642.0 L 496.8,642.2 L 496.9,642.3 L 496.9,642.3 L 497.0,642.6 L 497.0,642.6 L 497.2,642.9 L 497.2,643.0 L 497.3,643.2 L 497.3,643.3 L 497.4,643.3 L 497.5,643.6 L 497.5,643.6 L 497.6,643.9 L 497.7,644.0 L 497.7,644.1 L 497.7,644.2 L 497.8,644.3 L 497.9,644.5 L 497.9,644.5 L 498.0,644.8 L 498.2,645.0 L 498.2,645.1 L 498.2,645.1 L 498.5,645.6 L 498.5,645.6 L 498.6,645.8 L 498.6,645.8 L 498.8,646.1 L 498.9,646.1 L 498.9,646.1 L 499.0,646.3 L 499.2,646.4 L 499.6,646.5 L 499.7,646.5 L 499.8,646.6 L 499.8,646.6 L 500.0,646.5 L 500.1,646.5 L 500.4,646.4 L 500.5,646.3 L 500.7,646.3 L 500.8,646.3 L 500.8,646.3 L 501.3,646.0 L 501.4,645.9 L 501.4,645.9 L 501.7,645.6 L 501.8,645.5 L 501.8,645.4 L 502.1,645.0 L 502.3,644.8 L 502.4,644.6 L 502.4,644.6 L 502.5,644.6 L 502.7,644.4 L 502.7,644.4 L 503.0,644.2 L 503.1,644.2 L 503.2,644.2 L 503.2,644.2 L 503.4,644.2 L 503.4,644.2 L 503.5,644.2 L 503.5,644.2 L 503.5,644.2 L 503.7,644.3 L 503.8,644.3 L 503.9,644.3 L 504.0,644.4 L 504.2,644.4 L 504.3,644.5 L 504.3,644.5 L 504.4,644.5 L 504.5,644.5 L 504.5,644.5 L 504.7,644.6 L 505.2,644.8 L 505.3,644.9 L 505.5,645.1 L 505.6,645.1 L 505.7,645.2 L 505.7,645.3 L 505.8,645.4 L 505.9,645.4 L 506.0,645.5 L 506.0,645.5 L 506.7,646.4 L 506.8,646.4 L 507.2,647.0 L 507.2,647.1 L 507.2,647.1 L 507.3,647.2 L 507.4,647.3 L 507.5,647.4 L 507.5,647.5 L 507.5,647.5 L 507.6,647.9 L 507.7,647.9 L 507.7,648.1 L 507.7,648.2 L 507.8,648.5 L 507.9,648.6 L 507.9,648.6 L 507.9,648.7 L 507.9,648.9 L 507.9,649.0 L 508.0,649.2 L 508.0,649.4 L 508.0,649.5 L 508.1,650.2 L 508.0,650.4 L 508.0,650.5 L 508.0,650.9 L 508.0,651.0 L 508.0,651.3 L 508.0,651.4 L 508.0,651.6 L 507.9,651.8 L 507.9,651.8 L 507.9,652.1 L 507.9,652.3 L 507.8,652.6 L 507.8,652.6 L 507.7,652.7 L 507.7,652.7 L 507.7,652.8 L 507.6,653.1 L 507.6,653.1 L 507.6,653.2 L 507.5,653.6 L 507.5,654.0 L 507.6,654.4 L 507.7,654.8 L 508.0,655.0 L 508.3,655.2 L 508.6,655.2 L 508.9,655.1 L 509.1,655.0 L 509.3,654.9 L 509.8,654.6 L 509.9,654.4 L 510.1,654.2 L 510.2,654.1 L 510.3,654.0 L 510.4,654.0 L 510.5,653.9 L 510.6,653.7 L 510.9,653.3 L 511.0,653.2 L 511.5,652.4 L 511.5,652.4 L 511.7,652.0 L 511.8,652.0 L 512.9,650.6 L 513.0,650.5 L 513.3,650.2 L 513.3,650.2 L 514.6,649.2 L 514.6,649.2 L 515.3,648.8 L 515.4,648.7 L 516.0,648.5 L 516.0,648.5 L 516.3,648.3 L 516.4,648.3 L 516.6,648.3 L 516.8,648.2 L 516.9,648.1 L 517.0,648.1 L 517.8,648.0 L 517.9,648.0 L 518.2,647.9 L 518.2,647.9 L 518.5,647.9 L 518.5,648.0 L 518.9,648.0 L 518.9,648.0 L 519.3,648.1 L 519.4,648.1 L 520.0,648.2 L 520.0,648.2 L 521.1,648.3 L 521.1,648.4 L 521.6,648.4 L 521.8,648.4 L 522.3,648.3 L 522.4,648.3 L 522.5,648.2 L 522.6,648.2 L 522.7,648.1 L 523.2,647.9 L 523.3,647.9 L 524.2,647.5 L 524.3,647.4 L 525.1,646.9 L 525.3,646.7 L 525.3,646.6 L 525.4,646.6 L 525.7,646.3 L 525.7,646.3 L 526.2,645.8 L 526.3,645.7 L 526.3,645.7 L 526.4,645.6 L 526.6,645.4 L 526.7,645.4 L 527.1,645.1 L 527.1,645.1 L 527.5,644.9 L 527.6,644.9 L 527.7,644.8 L 527.8,644.8 L 527.8,644.7 L 527.9,644.7 L 527.9,644.7 L 528.0,644.7 L 528.1,644.6 L 528.2,644.6 L 528.5,644.5 L 528.6,644.5 L 528.9,644.5 L 529.0,644.4 L 529.4,644.5 L 529.4,644.5 L 529.7,644.4 L 529.7,644.4 L 530.2,644.5 L 530.2,644.5 L 531.2,644.8 L 531.3,644.8 L 531.7,644.9 L 531.7,644.9 L 532.9,645.4 L 533.0,645.5 L 533.4,645.7 L 533.5,645.8 L 534.3,646.4 L 534.7,646.6 L 535.0,646.6 L 535.4,646.5 L 535.6,646.2 L 535.9,645.9 L 536.0,645.4 L 536.0,645.0 L 535.8,644.6 L 535.8,644.4 L 535.7,644.3 L 535.6,644.2 L 535.5,644.0 L 535.4,643.8 L 535.3,643.7 L 534.9,642.7 L 534.8,642.7 L 534.4,641.9 L 534.3,641.7 L 534.2,641.3 L 534.1,641.1 L 534.1,641.1 L 534.1,640.9 L 534.0,640.7 L 534.0,640.7 L 534.0,640.5 L 534.0,640.3 L 534.0,640.2 L 534.0,640.0 L 534.0,639.8 L 534.2,639.4 L 534.3,639.2 L 534.4,639.0 L 534.4,639.0 L 534.6,638.8 L 534.7,638.7 L 534.9,638.5 L 535.0,638.5 L 535.2,638.4 L 535.3,638.3 L 535.4,638.3 L 535.5,638.2 L 535.7,638.1 L 535.8,638.1 L 536.7,638.0 L 536.8,638.0 L 537.5,637.9 L 537.5,637.9 L 538.0,637.9 L 538.1,637.8 L 538.7,637.7 L 538.8,637.7 L 539.4,637.5 L 539.5,637.5 L 540.1,637.2 L 540.2,637.2 L 540.7,636.9 L 540.8,636.8 L 541.6,636.3 L 541.7,636.3 L 542.3,636.0 L 542.3,636.0 L 543.7,635.2 L 543.8,635.2 L 544.0,635.2 L 544.2,635.1 L 544.4,635.0 L 544.5,634.9 L 544.6,634.9 L 544.7,634.8 L 545.6,634.5 L 545.6,634.5 L 545.8,634.4 L 546.1,634.3 L 546.3,634.3 L 546.3,634.3 L 546.5,634.4 L 546.5,634.5 L 546.7,634.6 L 546.7,634.6 L 546.8,634.7 L 546.9,634.9 L 547.1,635.3 L 547.1,635.4 L 547.2,635.6 L 547.3,636.2 L 547.3,636.3 L 547.4,636.9 L 547.4,637.0 L 547.5,637.5 L 547.6,637.6 L 547.6,638.2 L 547.7,638.4 L 547.7,638.5 L 547.7,638.6 L 548.0,640.7 L 548.1,640.8 L 548.1,641.0 L 548.2,641.1 L 548.2,641.2 L 548.3,641.5 L 548.4,641.5 L 548.4,641.6 L 548.5,641.8 L 548.5,641.9 L 548.9,642.6 L 549.2,643.1 L 549.4,643.5 L 549.7,643.8 L 550.0,644.0 L 550.1,644.1 L 550.5,644.4 L 550.7,644.4 L 550.8,644.5 L 550.9,644.5 L 551.0,644.6 L 551.2,644.7 L 551.4,644.8 L 551.4,644.8 L 552.4,645.2 L 552.5,645.2 L 552.8,645.3 L 552.8,645.3 L 553.4,645.6 L 553.4,645.6 L 554.0,645.8 L 554.0,645.8 L 554.5,646.1 L 554.6,646.1 L 554.7,646.2 L 554.8,646.3 L 555.2,646.7 L 555.2,646.7 L 555.8,647.2 L 556.0,647.4 L 556.0,647.4 L 556.3,647.8 L 556.4,647.9 L 557.0,648.4 L 557.1,648.5 L 557.5,648.8 L 557.5,648.8 L 557.6,648.8 L 558.0,649.1 L 558.1,649.2 L 559.1,649.5 L 559.2,649.5 L 559.4,649.6 L 559.7,649.6 L 559.9,649.7 L 559.9,649.7 L 560.6,649.8 L 560.7,649.8 L 561.0,649.9 L 561.1,649.9 L 561.4,650.0 L 561.5,650.0 L 562.4,650.1 L 562.5,650.1 L 562.8,650.2 L 562.9,650.2 L 563.6,650.4 L 563.7,650.4 L 563.9,650.4 L 564.0,650.5 L 564.9,650.8 L 564.9,650.8 L 565.1,650.9 L 565.2,650.9 L 565.9,651.3 L 565.9,651.3 L 566.1,651.4 L 566.2,651.5 L 566.4,651.6 L 566.4,651.6 L 566.8,652.0 L 566.9,652.1 L 567.0,652.4 L 567.1,652.5 L 567.2,652.8 L 567.3,652.9 L 567.4,653.2 L 567.4,653.3 L 567.5,653.6 L 567.5,653.6 L 567.5,653.7 L 567.6,654.0 L 567.6,654.1 L 567.6,654.2 L 567.7,654.4 L 567.7,654.5 L 567.8,655.3 L 567.8,655.5 L 567.9,655.7 L 567.9,655.8 L 567.9,657.1 L 567.9,657.2 L 567.9,657.5 L 567.9,657.5 L 567.8,657.7 L 567.8,657.9 L 567.8,657.9 L 567.8,658.3 L 567.9,658.6 L 567.9,658.9 L 568.0,659.2 L 568.0,659.3 L 568.1,659.5 L 568.2,659.6 L 568.2,659.7 L 568.3,659.8 L 568.6,660.1 L 568.7,660.1 L 568.8,660.2 L 568.8,660.2 L 568.9,660.2 L 569.1,660.3 L 569.2,660.3 L 569.2,660.4 L 569.3,660.4 L 569.7,660.5 L 570.3,660.4 L 523.1,684.2 L 382.4,641.5 L 393.5,628.9 L 485.5,602.1 L 485.4,602.2 Z" class="poly" fill="#cb7740" data-short="12N01E26A002M" data-ma="RD108" data-base-year="1999" data-end-year="2021" data-span="22" data-area="10,089" data-rms-wells="12N01E26A002M" data-sy="0.1000" data-sy-source="uniform 0.10" data-avg-dgwe="-0.89" data-cum-stor="-19,643" data-avg-rate="-893" data-critdry-share="70%" data-crit-share="45%" data-bucket-wet="+2,642" data-bucket-an="-3,456" data-bucket-bn="-1,633" data-bucket-dry="-7,331" data-bucket-critical="-9,865" data-hold="893" data-project="0" data-project-name="" data-coverage="-893" data-late=""><title>Click for 12N01E26A002M detail</title></path>
<path d="M 523.1,684.2 L 469.9,734.0 L 353.7,661.5 L 382.4,641.5 L 523.1,684.2 Z" class="poly" fill="#e3a76f" data-short="11N01E02D001M" data-ma="RD108" data-base-year="1999" data-end-year="2023" data-span="24" data-area="10,867" data-rms-wells="11N01E02D001M" data-sy="0.1000" data-sy-source="uniform 0.10" data-avg-dgwe="-0.54" data-cum-stor="-13,963" data-avg-rate="-582" data-critdry-share="76%" data-crit-share="49%" data-bucket-wet="+21,289" data-bucket-an="-6,607" data-bucket-bn="+1,036" data-bucket-dry="-11,385" data-bucket-critical="-18,296" data-hold="582" data-project="0" data-project-name="" data-coverage="-582" data-late=""><title>Click for 11N01E02D001M detail</title></path>
<path d="M 538.6,792.3 L 535.2,804.4 L 506.8,828.7 L 506.8,828.7 L 506.8,828.6 L 507.0,827.7 L 507.0,827.1 L 507.0,826.5 L 507.0,826.4 L 507.0,826.3 L 507.2,825.8 L 507.3,825.4 L 507.3,825.0 L 507.2,824.5 L 507.0,824.1 L 506.7,823.9 L 506.4,823.8 L 506.0,823.8 L 505.5,823.9 L 505.3,824.0 L 505.3,824.0 L 505.1,824.2 L 504.8,824.4 L 504.7,824.5 L 504.5,824.6 L 504.3,824.7 L 501.0,825.2 L 500.9,825.2 L 500.8,825.2 L 500.8,825.2 L 500.4,825.2 L 500.3,825.2 L 499.8,825.2 L 499.8,825.2 L 499.0,825.3 L 499.0,825.3 L 498.6,825.4 L 498.5,825.4 L 498.5,825.4 L 498.2,825.3 L 498.0,825.4 L 498.0,825.4 L 498.0,825.4 L 497.9,825.4 L 497.9,825.4 L 497.9,825.4 L 497.8,825.4 L 497.7,825.5 L 497.7,825.5 L 497.3,825.6 L 497.0,825.7 L 496.8,825.8 L 496.6,826.1 L 496.6,826.1 L 496.4,826.3 L 496.1,826.5 L 496.0,826.6 L 495.9,826.7 L 495.8,826.8 L 495.4,827.1 L 495.4,827.1 L 495.1,827.2 L 495.1,827.2 L 494.9,827.3 L 494.9,827.3 L 494.7,827.4 L 494.6,827.4 L 494.3,827.4 L 494.2,827.4 L 493.9,827.3 L 493.0,827.2 L 492.7,827.1 L 491.6,826.2 L 491.2,826.0 L 490.9,825.9 L 490.8,825.9 L 490.6,825.9 L 490.2,826.0 L 490.2,826.0 L 490.1,826.1 L 490.0,826.2 L 489.9,826.2 L 489.6,826.3 L 489.6,826.3 L 489.3,826.4 L 489.3,826.4 L 489.1,826.4 L 489.0,826.4 L 488.7,826.4 L 488.7,826.4 L 488.4,826.4 L 488.3,826.4 L 487.9,826.3 L 487.9,826.3 L 487.4,826.1 L 487.3,826.1 L 487.2,826.0 L 486.7,826.0 L 486.5,826.0 L 486.2,826.2 L 486.0,826.4 L 485.8,826.7 L 485.8,826.8 L 485.5,827.2 L 485.5,827.3 L 485.1,828.0 L 458.0,771.9 L 466.4,761.2 L 538.6,792.3 Z" class="poly" fill="#f0d9a8" data-short="10N02E06B001M" data-ma="Other" data-base-year="2001" data-end-year="2025" data-span="24" data-area="4,744" data-rms-wells="10N02E06B001M" data-sy="0.1000" data-sy-source="uniform 0.10" data-avg-dgwe="-0.25" data-cum-stor="-2,804" data-avg-rate="-117" data-critdry-share="81%" data-crit-share="68%" data-bucket-wet="+3,782" data-bucket-an="+8,084" data-bucket-bn="+1,534" data-bucket-dry="-138" data-bucket-critical="-16,065" data-hold="117" data-project="0" data-project-name="" data-coverage="-117" data-late="1"><title>Click for 10N02E06B001M detail</title></path>
<path d="M 538.6,792.3 L 606.6,744.7 L 606.6,744.7 L 606.4,745.0 L 606.4,745.1 L 606.4,745.1 L 606.3,745.5 L 606.1,745.9 L 606.1,746.6 L 606.1,746.9 L 606.1,747.2 L 606.2,747.5 L 606.4,748.3 L 606.5,748.6 L 606.8,749.1 L 606.8,749.2 L 606.9,749.5 L 606.9,749.6 L 607.0,749.7 L 607.1,750.0 L 607.1,750.1 L 607.2,750.3 L 607.3,750.3 L 607.8,751.3 L 607.9,751.5 L 608.2,751.8 L 608.2,751.9 L 608.3,752.0 L 608.4,752.2 L 608.4,752.4 L 608.4,752.5 L 608.5,753.1 L 608.5,753.2 L 608.5,753.3 L 608.5,754.2 L 608.5,754.4 L 608.4,754.8 L 608.4,754.8 L 608.3,754.9 L 608.3,754.9 L 608.3,755.2 L 608.3,755.6 L 608.4,756.1 L 608.6,756.5 L 608.6,756.6 L 608.8,756.8 L 609.2,757.2 L 609.3,757.3 L 609.4,757.3 L 609.4,757.4 L 609.6,757.4 L 609.8,757.5 L 609.9,757.5 L 610.0,757.7 L 610.1,757.7 L 610.3,757.8 L 610.4,757.9 L 610.5,757.9 L 610.7,758.1 L 610.8,758.1 L 610.9,758.2 L 610.9,758.2 L 611.2,758.6 L 611.3,758.8 L 611.3,758.8 L 611.4,759.1 L 611.4,759.1 L 611.4,759.2 L 611.5,759.3 L 611.6,759.5 L 611.6,759.5 L 612.1,760.6 L 612.1,760.7 L 612.6,761.9 L 612.6,762.0 L 613.6,764.2 L 613.6,764.3 L 613.8,764.8 L 613.8,764.9 L 613.8,765.4 L 613.9,765.5 L 613.9,766.6 L 613.9,766.6 L 613.9,767.0 L 613.9,767.1 L 613.8,767.8 L 613.8,767.9 L 613.6,768.6 L 613.6,768.7 L 613.5,769.0 L 613.5,769.1 L 613.2,769.9 L 613.1,769.9 L 612.8,770.5 L 612.8,770.6 L 612.6,771.0 L 612.5,771.2 L 612.1,771.7 L 612.0,771.8 L 611.8,772.0 L 611.7,772.1 L 611.1,772.7 L 611.1,772.7 L 610.9,772.9 L 610.7,773.1 L 610.7,773.1 L 610.4,773.3 L 610.4,773.4 L 610.0,773.7 L 609.9,773.8 L 609.8,773.9 L 609.7,774.0 L 609.5,774.1 L 609.5,774.1 L 609.2,774.4 L 609.1,774.4 L 609.1,774.4 L 608.9,774.6 L 608.8,774.7 L 608.5,774.9 L 608.4,774.9 L 608.2,775.1 L 608.1,775.1 L 607.9,775.3 L 607.4,775.7 L 607.2,775.9 L 607.0,776.1 L 606.9,776.3 L 606.8,776.4 L 606.7,776.8 L 606.5,777.1 L 606.5,777.2 L 606.4,777.4 L 606.4,777.6 L 606.4,778.0 L 606.5,778.4 L 606.6,778.6 L 606.6,778.6 L 606.6,778.6 L 606.7,778.9 L 606.8,778.9 L 606.9,779.2 L 607.0,779.3 L 607.1,779.5 L 607.8,780.2 L 608.7,781.1 L 608.8,781.2 L 609.0,781.3 L 609.2,781.5 L 609.3,781.5 L 609.7,782.0 L 609.8,782.0 L 610.1,782.3 L 610.1,782.4 L 610.7,782.9 L 610.7,782.9 L 610.8,783.1 L 611.0,783.2 L 611.2,783.4 L 611.2,783.4 L 611.3,783.5 L 611.6,783.8 L 612.1,784.0 L 612.1,784.0 L 612.6,784.3 L 612.7,784.3 L 613.0,784.4 L 613.0,784.4 L 613.3,784.5 L 613.5,784.5 L 614.0,784.5 L 614.0,784.5 L 614.2,784.5 L 614.5,784.5 L 614.8,784.5 L 614.9,784.5 L 615.0,784.5 L 615.3,784.4 L 615.6,784.3 L 615.7,784.3 L 616.5,784.2 L 616.6,784.2 L 616.9,784.1 L 617.0,784.1 L 617.6,784.0 L 617.6,784.0 L 617.9,784.0 L 618.1,784.0 L 619.2,784.2 L 619.3,784.2 L 619.7,784.4 L 619.8,784.5 L 620.1,784.7 L 620.2,784.7 L 620.6,785.1 L 620.7,785.3 L 620.8,785.4 L 620.9,785.6 L 621.0,785.8 L 621.1,785.8 L 621.3,786.3 L 621.3,786.4 L 621.7,787.0 L 621.7,787.1 L 621.8,787.1 L 622.0,787.6 L 622.1,787.7 L 622.1,787.7 L 622.2,787.8 L 622.4,788.0 L 622.8,788.3 L 623.0,788.4 L 623.4,788.7 L 623.5,788.7 L 623.8,788.8 L 623.9,788.8 L 624.5,788.9 L 624.6,789.0 L 624.9,789.0 L 625.0,789.0 L 625.4,788.9 L 625.4,788.9 L 626.8,789.0 L 626.9,789.0 L 627.6,789.2 L 627.7,789.3 L 628.4,789.4 L 628.4,789.4 L 628.8,789.5 L 628.9,789.6 L 629.2,789.6 L 629.3,789.6 L 629.4,789.7 L 629.6,789.7 L 629.7,789.7 L 629.8,789.7 L 630.5,789.9 L 630.5,789.9 L 630.9,790.0 L 631.0,790.1 L 631.1,790.1 L 631.2,790.2 L 631.2,790.2 L 631.3,790.3 L 631.3,790.4 L 631.4,790.5 L 631.4,790.8 L 631.4,791.0 L 631.4,791.1 L 631.3,791.2 L 631.2,791.5 L 631.2,791.6 L 631.1,791.7 L 631.1,791.7 L 630.6,792.2 L 630.6,792.3 L 630.2,792.7 L 630.1,792.7 L 629.3,793.3 L 629.3,793.3 L 628.8,793.7 L 628.7,793.8 L 628.5,794.0 L 628.2,794.4 L 628.2,794.7 L 628.1,794.8 L 626.1,797.4 L 626.0,797.6 L 625.6,798.3 L 625.6,798.3 L 625.3,798.8 L 625.3,798.8 L 624.9,799.2 L 624.9,799.2 L 624.7,799.4 L 624.6,799.6 L 624.3,800.0 L 624.2,800.2 L 623.9,800.8 L 623.9,801.0 L 623.8,801.2 L 623.8,801.3 L 623.5,801.9 L 623.5,802.1 L 623.3,802.7 L 623.3,802.8 L 623.3,803.1 L 623.3,803.5 L 623.3,803.8 L 623.3,803.9 L 623.4,805.3 L 623.4,805.4 L 623.4,805.5 L 623.4,805.8 L 623.5,806.0 L 623.5,806.1 L 623.7,806.6 L 623.7,806.7 L 623.9,807.5 L 624.0,807.7 L 624.4,808.6 L 624.4,808.7 L 624.6,809.1 L 624.7,809.2 L 624.8,809.5 L 624.9,809.5 L 625.2,810.2 L 625.3,810.3 L 625.6,811.0 L 625.7,811.1 L 625.9,811.4 L 626.0,811.4 L 626.1,811.8 L 626.3,812.0 L 626.6,812.3 L 626.6,812.3 L 626.8,812.4 L 626.8,812.5 L 626.9,812.6 L 627.2,812.7 L 627.5,812.8 L 628.1,812.8 L 628.2,812.7 L 628.5,812.7 L 628.6,812.6 L 628.8,812.6 L 628.9,812.5 L 629.0,812.5 L 629.1,812.4 L 629.5,812.2 L 629.6,812.1 L 629.7,811.9 L 629.8,811.9 L 630.4,811.4 L 630.5,811.4 L 630.6,811.3 L 630.7,811.2 L 630.8,811.1 L 630.9,811.0 L 631.0,810.7 L 631.1,810.6 L 631.7,809.6 L 631.7,809.5 L 632.1,809.0 L 632.1,808.9 L 632.2,808.8 L 632.3,808.6 L 632.9,807.0 L 632.9,807.0 L 632.9,806.9 L 633.0,806.6 L 633.0,806.2 L 633.0,805.9 L 633.0,805.8 L 633.0,805.4 L 633.0,805.2 L 632.9,804.6 L 632.9,804.5 L 632.9,804.1 L 632.8,803.7 L 632.8,803.7 L 632.6,803.2 L 632.5,803.0 L 632.3,802.4 L 632.2,802.3 L 632.1,801.9 L 632.1,801.8 L 632.0,801.0 L 632.0,801.0 L 632.0,800.5 L 632.0,800.4 L 632.0,799.8 L 632.1,799.7 L 632.1,799.4 L 632.1,799.4 L 632.2,799.2 L 632.2,799.1 L 632.4,798.8 L 632.4,798.7 L 632.9,797.8 L 633.0,797.7 L 633.5,797.0 L 633.6,797.0 L 633.8,796.8 L 633.9,796.7 L 634.0,796.6 L 634.2,796.5 L 634.4,796.4 L 634.4,796.3 L 634.7,796.1 L 634.7,796.1 L 635.5,795.6 L 635.6,795.6 L 636.2,795.3 L 636.2,795.3 L 636.6,795.2 L 636.7,795.2 L 636.8,795.2 L 636.9,795.2 L 637.3,795.2 L 637.4,795.2 L 637.6,795.3 L 637.7,795.4 L 638.0,795.4 L 638.0,795.4 L 638.6,795.6 L 638.6,795.6 L 639.0,795.7 L 639.1,795.7 L 639.5,795.8 L 639.6,795.9 L 640.0,796.0 L 640.1,796.0 L 640.9,796.2 L 640.9,796.2 L 641.4,796.4 L 641.6,796.5 L 642.0,796.6 L 642.0,796.6 L 642.4,796.7 L 642.8,796.7 L 643.1,796.6 L 643.4,796.3 L 643.6,795.9 L 643.7,795.5 L 643.7,795.3 L 643.7,795.1 L 643.7,794.6 L 643.7,794.5 L 643.7,794.2 L 643.7,793.9 L 643.6,793.3 L 643.5,793.2 L 643.4,792.3 L 643.4,792.1 L 643.3,791.6 L 643.3,791.4 L 643.1,790.7 L 643.1,790.6 L 642.9,790.1 L 642.9,790.0 L 642.6,789.3 L 642.6,789.2 L 642.4,788.7 L 642.3,788.6 L 642.1,788.2 L 642.0,788.1 L 641.7,787.6 L 641.7,787.5 L 641.3,787.0 L 641.2,787.0 L 641.1,786.8 L 641.0,786.7 L 641.0,786.6 L 640.9,786.6 L 640.8,786.4 L 640.5,786.1 L 640.4,786.1 L 640.0,785.8 L 639.9,785.7 L 639.7,785.3 L 639.7,785.3 L 639.3,784.8 L 639.3,784.7 L 638.8,783.9 L 638.8,783.8 L 638.4,783.3 L 638.3,783.2 L 638.0,782.8 L 637.9,782.8 L 637.7,782.5 L 637.6,782.4 L 637.5,782.3 L 637.4,782.3 L 637.2,782.1 L 637.0,781.9 L 636.9,781.8 L 636.9,781.7 L 636.8,781.6 L 636.8,781.5 L 636.8,781.4 L 636.7,781.1 L 636.7,781.0 L 636.7,780.6 L 636.7,780.5 L 636.7,779.7 L 636.7,779.6 L 636.7,779.4 L 636.7,779.4 L 636.9,778.9 L 636.9,778.9 L 637.0,778.6 L 637.0,778.6 L 637.2,778.3 L 637.3,778.1 L 638.0,777.5 L 638.0,777.5 L 638.4,777.2 L 638.5,777.2 L 639.1,776.9 L 639.2,776.9 L 639.9,776.6 L 640.0,776.6 L 640.2,776.6 L 640.4,776.6 L 640.4,776.6 L 640.5,776.6 L 640.7,776.6 L 640.8,776.6 L 641.1,776.5 L 641.1,776.5 L 641.5,776.5 L 641.5,776.5 L 642.2,776.4 L 642.2,776.4 L 642.3,776.4 L 642.5,776.4 L 642.5,776.5 L 642.7,776.5 L 643.1,776.6 L 643.2,776.6 L 643.3,776.6 L 643.5,776.7 L 643.6,776.8 L 643.7,776.9 L 643.8,777.0 L 643.9,777.1 L 643.9,777.2 L 643.9,777.2 L 644.0,777.3 L 644.0,777.5 L 644.0,777.7 L 644.0,777.8 L 644.1,778.0 L 644.1,778.8 L 644.2,779.0 L 644.2,779.3 L 644.2,779.4 L 644.2,779.4 L 644.4,779.8 L 644.4,780.0 L 644.6,780.4 L 645.0,780.8 L 645.1,780.9 L 645.5,781.3 L 645.5,781.3 L 645.8,781.6 L 645.9,781.7 L 646.1,781.8 L 646.3,782.0 L 646.5,782.1 L 647.0,782.4 L 647.1,782.4 L 647.4,782.5 L 647.4,782.6 L 647.8,782.8 L 648.0,782.8 L 648.1,782.9 L 648.2,782.9 L 648.5,783.0 L 648.8,783.0 L 649.4,783.1 L 649.4,783.1 L 649.5,783.1 L 649.7,783.0 L 649.9,783.0 L 650.0,783.0 L 650.7,782.9 L 650.9,782.9 L 653.2,782.2 L 653.2,782.2 L 654.2,781.9 L 654.5,781.7 L 654.7,781.5 L 654.8,781.5 L 655.5,781.0 L 655.7,780.9 L 655.9,780.9 L 656.1,780.8 L 656.2,780.8 L 656.2,780.7 L 656.6,780.6 L 656.7,780.6 L 656.9,780.6 L 657.1,780.5 L 657.3,780.5 L 657.4,780.5 L 657.9,780.5 L 658.0,780.5 L 658.2,780.5 L 658.3,780.5 L 659.2,780.5 L 659.3,780.5 L 659.6,780.5 L 659.7,780.5 L 659.9,780.5 L 660.1,780.5 L 660.3,780.5 L 660.4,780.5 L 660.6,780.5 L 660.7,780.5 L 661.1,780.4 L 661.2,780.4 L 661.3,780.4 L 661.6,780.3 L 661.8,780.2 L 662.1,780.0 L 662.1,780.0 L 662.2,779.9 L 662.4,779.8 L 662.5,779.7 L 662.7,779.6 L 662.7,779.6 L 663.1,779.4 L 663.1,779.4 L 663.1,779.3 L 663.4,779.1 L 663.7,778.8 L 663.8,778.3 L 663.8,777.9 L 663.7,777.4 L 663.7,777.3 L 663.7,777.2 L 663.5,776.8 L 663.4,776.6 L 663.2,776.4 L 663.2,776.4 L 663.1,776.3 L 663.0,776.3 L 662.9,776.2 L 662.5,775.9 L 662.3,775.8 L 661.7,775.5 L 661.5,775.4 L 661.1,775.3 L 661.0,775.3 L 660.7,775.2 L 660.6,775.2 L 660.4,775.2 L 660.3,775.1 L 660.0,775.0 L 659.9,775.0 L 659.5,774.9 L 659.4,774.9 L 659.3,774.9 L 659.1,774.8 L 659.0,774.8 L 658.9,774.8 L 658.7,774.7 L 658.6,774.7 L 658.3,774.6 L 658.2,774.6 L 658.0,774.5 L 657.9,774.5 L 657.5,774.3 L 657.5,774.3 L 656.8,773.9 L 656.7,773.8 L 656.6,773.7 L 656.4,773.5 L 656.2,773.3 L 656.1,773.3 L 656.0,773.2 L 655.7,773.0 L 655.6,773.0 L 655.5,772.9 L 655.0,772.4 L 655.0,772.3 L 654.7,772.1 L 654.6,772.0 L 654.4,771.8 L 654.3,771.8 L 654.1,771.5 L 654.0,771.5 L 653.9,771.3 L 653.8,771.2 L 653.8,771.1 L 653.7,770.9 L 653.7,770.6 L 653.7,770.4 L 653.8,770.2 L 653.8,770.1 L 654.0,769.9 L 654.2,769.7 L 654.3,769.7 L 654.7,769.5 L 654.7,769.5 L 655.3,769.3 L 655.3,769.3 L 655.8,769.3 L 655.9,769.3 L 656.3,769.2 L 656.4,769.2 L 657.2,769.3 L 657.2,769.3 L 658.9,769.7 L 658.9,769.7 L 659.3,769.8 L 659.3,769.8 L 659.9,769.9 L 659.9,769.9 L 660.6,770.1 L 660.6,770.1 L 660.9,770.2 L 660.9,770.2 L 662.0,770.7 L 662.1,770.8 L 662.3,771.0 L 662.4,771.1 L 662.8,771.3 L 662.8,771.3 L 663.6,772.0 L 663.7,772.1 L 664.8,773.4 L 664.9,773.4 L 665.1,773.8 L 665.1,773.8 L 665.4,774.2 L 665.4,774.2 L 665.7,774.7 L 665.7,774.8 L 666.0,775.2 L 666.1,775.3 L 666.4,775.8 L 666.4,775.9 L 666.5,776.0 L 666.6,776.2 L 666.7,776.7 L 666.8,776.8 L 667.0,777.8 L 667.0,777.9 L 667.0,778.0 L 667.1,778.4 L 667.3,778.7 L 667.5,779.0 L 667.8,779.2 L 667.8,779.2 L 668.0,779.2 L 668.2,779.2 L 668.5,779.3 L 668.7,779.3 L 668.9,779.3 L 669.0,779.3 L 669.2,779.2 L 669.2,779.3 L 668.6,781.7 L 668.3,783.0 L 668.3,783.0 L 668.3,783.0 L 668.3,783.1 L 668.3,783.5 L 668.3,783.6 L 668.3,783.6 L 668.2,784.3 L 668.2,784.4 L 668.3,785.4 L 668.3,785.5 L 668.1,785.6 L 668.1,785.7 L 667.9,786.2 L 667.8,786.7 L 668.0,790.2 L 668.1,792.4 L 668.3,796.4 L 668.5,799.4 L 668.6,800.8 L 668.8,804.1 L 668.8,805.3 L 668.8,805.3 L 668.9,806.6 L 669.1,815.2 L 669.1,815.2 L 669.2,817.2 L 669.4,821.0 L 669.5,825.0 L 669.6,828.5 L 669.6,828.5 L 669.7,829.5 L 669.7,829.6 L 669.6,829.6 L 668.4,829.7 L 668.1,829.7 L 667.8,829.9 L 667.5,830.2 L 667.4,830.6 L 667.3,831.0 L 667.2,836.4 L 667.2,837.7 L 667.1,844.5 L 667.2,844.9 L 667.3,845.3 L 667.6,845.6 L 667.9,845.8 L 668.2,845.9 L 669.4,845.9 L 669.9,845.9 L 670.0,845.9 L 670.0,846.0 L 669.9,846.3 L 669.8,847.3 L 669.8,847.3 L 669.5,848.5 L 669.5,848.6 L 669.1,850.2 L 669.1,850.2 L 668.9,850.5 L 668.9,850.7 L 668.7,851.5 L 668.6,851.6 L 668.4,852.4 L 668.4,852.5 L 668.1,853.4 L 668.1,853.4 L 667.8,854.3 L 667.8,854.3 L 667.5,855.3 L 667.5,855.3 L 667.3,855.7 L 667.3,855.7 L 667.2,856.1 L 667.2,856.2 L 667.0,856.7 L 667.0,856.8 L 666.8,857.5 L 666.6,858.0 L 666.6,858.0 L 666.4,858.6 L 666.4,858.7 L 666.2,859.1 L 666.1,859.3 L 666.1,859.6 L 666.0,859.7 L 666.0,860.0 L 666.0,860.1 L 665.9,860.4 L 665.9,860.4 L 665.7,860.9 L 665.7,861.0 L 665.5,861.4 L 665.5,861.4 L 665.4,861.6 L 665.3,861.8 L 665.2,862.2 L 665.2,862.2 L 665.1,862.6 L 665.0,862.7 L 664.9,863.4 L 664.9,863.5 L 664.6,864.3 L 664.6,864.4 L 664.3,865.2 L 664.3,865.2 L 664.1,865.7 L 664.1,865.8 L 663.7,867.0 L 663.7,867.0 L 663.6,867.4 L 663.6,867.4 L 663.5,867.6 L 663.4,867.7 L 663.3,867.7 L 662.5,867.4 L 662.2,867.4 L 661.9,867.5 L 661.6,867.7 L 661.4,868.0 L 661.2,868.4 L 661.2,868.8 L 661.2,873.9 L 661.2,873.9 L 661.2,877.0 L 661.2,877.1 L 661.1,877.1 L 660.7,877.0 L 660.3,877.1 L 659.9,877.2 L 659.7,877.5 L 659.5,877.9 L 659.4,878.4 L 659.4,878.7 L 659.4,884.4 L 659.4,884.5 L 659.3,884.5 L 659.3,884.5 L 659.0,884.6 L 658.6,884.8 L 658.4,885.1 L 658.3,885.5 L 658.2,885.9 L 658.2,886.8 L 658.3,887.0 L 658.4,888.4 L 658.5,888.4 L 658.6,889.7 L 658.6,889.7 L 658.5,889.8 L 658.2,889.8 L 657.9,889.9 L 657.6,890.1 L 657.3,890.4 L 657.2,890.9 L 657.2,891.3 L 657.4,893.7 L 657.4,893.7 L 657.8,897.6 L 657.8,897.6 L 657.9,899.2 L 658.1,901.4 L 658.3,903.4 L 658.4,904.0 L 658.4,904.1 L 658.4,904.6 L 658.4,904.7 L 658.3,904.7 L 641.2,904.6 L 641.2,904.6 L 629.4,904.8 L 628.9,904.8 L 628.9,904.8 L 628.8,904.7 L 628.8,904.0 L 628.8,903.9 L 628.7,896.5 L 628.6,873.2 L 628.6,868.3 L 628.6,868.2 L 628.6,865.9 L 628.5,865.5 L 628.4,865.1 L 628.1,864.8 L 627.8,864.6 L 627.5,864.5 L 609.1,864.2 L 609.0,864.2 L 609.0,864.1 L 609.2,845.6 L 609.2,845.1 L 609.0,844.7 L 608.8,844.4 L 608.4,844.2 L 608.1,844.2 L 599.4,844.5 L 599.4,844.5 L 594.2,844.8 L 589.1,845.0 L 589.0,845.0 L 589.0,845.0 L 588.9,845.0 L 588.9,844.9 L 588.7,837.7 L 588.7,835.7 L 588.6,835.3 L 588.4,834.9 L 588.2,834.6 L 587.8,834.4 L 581.9,833.0 L 581.6,833.0 L 578.5,833.3 L 578.3,833.2 L 574.2,831.1 L 573.7,831.0 L 571.7,831.2 L 571.3,831.3 L 566.1,834.5 L 564.6,835.4 L 564.5,835.5 L 564.4,835.5 L 557.4,833.6 L 557.3,833.6 L 555.3,832.9 L 555.0,832.9 L 553.6,833.0 L 553.4,833.0 L 551.1,833.6 L 551.0,833.6 L 550.9,833.7 L 550.7,833.7 L 549.5,833.4 L 548.9,833.3 L 548.7,833.3 L 535.2,804.4 L 538.6,792.3 Z" class="poly" fill="#f0d9a8" data-short="10N02E03R002M" data-ma="Other" data-base-year="2001" data-end-year="2025" data-span="24" data-area="16,979" data-rms-wells="10N02E03R002M" data-sy="0.1000" data-sy-source="uniform 0.10" data-avg-dgwe="-0.09" data-cum-stor="-3,735" data-avg-rate="-156" data-critdry-share="80%" data-crit-share="71%" data-bucket-wet="+11,610" data-bucket-an="+23,753" data-bucket-bn="-1,786" data-bucket-dry="-3,484" data-bucket-critical="-33,829" data-hold="156" data-project="0" data-project-name="" data-coverage="-156" data-late="1"><title>Click for 10N02E03R002M detail</title></path>
<path d="M 447.3,519.4 L 448.1,520.2 L 448.4,520.5 L 448.6,520.7 L 449.0,521.2 L 449.2,521.5 L 449.8,522.4 L 450.2,523.1 L 450.4,523.9 L 450.4,523.9 L 450.4,523.9 L 450.7,524.5 L 450.9,525.1 L 450.9,525.1 L 451.0,525.5 L 451.3,526.2 L 451.4,526.6 L 451.4,527.0 L 451.4,528.4 L 451.4,528.5 L 451.1,530.8 L 451.0,531.9 L 451.1,532.0 L 451.1,532.2 L 451.1,532.2 L 451.1,533.2 L 451.3,533.8 L 451.4,534.2 L 451.7,534.7 L 452.2,535.5 L 452.5,535.9 L 452.9,536.4 L 453.5,536.8 L 454.1,537.2 L 454.3,537.3 L 454.3,537.3 L 455.3,537.9 L 455.7,538.2 L 456.4,538.5 L 456.8,538.9 L 457.4,539.5 L 457.6,539.9 L 457.6,539.9 L 457.9,540.3 L 458.1,540.8 L 458.2,541.0 L 458.3,541.2 L 458.4,541.5 L 458.4,541.9 L 458.2,542.4 L 458.2,542.4 L 458.1,542.7 L 457.9,543.1 L 457.9,543.1 L 457.7,543.6 L 457.0,544.4 L 456.7,544.6 L 456.7,544.6 L 456.4,544.9 L 455.5,545.9 L 455.2,546.3 L 454.9,546.8 L 454.3,547.3 L 453.7,548.1 L 453.3,549.0 L 453.3,549.0 L 453.1,549.6 L 452.7,550.5 L 452.6,551.2 L 452.3,552.6 L 452.0,553.4 L 451.5,554.4 L 451.5,554.4 L 451.0,555.3 L 450.5,556.2 L 450.2,556.7 L 450.2,556.7 L 450.2,556.7 L 450.1,557.0 L 450.0,557.3 L 450.0,557.6 L 450.0,557.6 L 450.0,557.6 L 450.1,557.7 L 450.1,557.7 L 450.1,557.7 L 450.3,558.3 L 450.5,558.6 L 450.5,558.6 L 450.9,559.2 L 451.3,559.5 L 451.3,559.5 L 451.3,559.6 L 451.6,559.9 L 452.1,560.2 L 452.5,560.6 L 453.0,560.9 L 453.0,560.9 L 452.7,560.9 L 452.7,560.9 L 451.6,560.8 L 451.8,560.9 L 451.8,560.9 L 451.9,560.9 L 453.3,561.1 L 453.4,561.1 L 453.4,561.1 L 453.7,561.4 L 453.8,561.4 L 454.3,561.8 L 454.4,561.8 L 454.7,562.1 L 454.8,562.2 L 455.6,562.9 L 455.7,563.0 L 456.0,563.3 L 456.1,563.5 L 456.5,564.1 L 456.6,564.3 L 456.9,564.7 L 456.9,564.7 L 456.9,564.8 L 457.0,564.9 L 457.2,565.4 L 457.3,565.5 L 457.5,565.8 L 457.5,566.0 L 457.6,566.5 L 457.7,566.7 L 458.0,567.3 L 458.2,567.6 L 458.4,567.8 L 458.4,567.9 L 458.4,567.9 L 458.6,568.2 L 458.8,568.3 L 459.0,568.6 L 459.1,568.7 L 459.2,568.8 L 459.5,568.9 L 460.0,569.1 L 460.1,569.2 L 461.1,569.4 L 461.1,569.4 L 462.8,569.7 L 462.9,569.7 L 463.3,569.8 L 463.3,569.8 L 463.8,569.8 L 463.9,569.8 L 464.4,569.8 L 464.5,569.8 L 466.0,569.7 L 466.0,569.7 L 466.7,569.7 L 466.8,569.7 L 467.0,569.7 L 467.1,569.7 L 468.9,569.9 L 469.0,569.9 L 469.2,569.9 L 469.3,570.0 L 470.0,570.4 L 470.0,570.4 L 471.9,571.4 L 471.9,571.4 L 473.1,572.0 L 473.2,572.1 L 473.4,572.1 L 473.4,572.1 L 473.6,572.3 L 473.7,572.3 L 475.1,572.9 L 475.2,572.9 L 475.6,573.1 L 475.7,573.1 L 476.1,573.2 L 476.2,573.2 L 476.9,573.3 L 477.0,573.3 L 477.7,573.4 L 477.7,573.4 L 478.3,573.5 L 478.5,573.5 L 479.1,573.5 L 479.2,573.5 L 479.7,573.5 L 479.8,573.5 L 480.2,573.5 L 480.2,573.5 L 481.5,573.4 L 481.5,573.4 L 481.7,573.4 L 481.8,573.4 L 482.9,573.4 L 482.9,573.4 L 484.1,573.6 L 484.1,573.6 L 485.4,574.1 L 485.6,574.2 L 485.8,574.4 L 485.9,574.6 L 486.1,575.0 L 486.2,575.1 L 486.3,575.3 L 486.3,575.5 L 486.4,576.6 L 486.4,576.9 L 486.4,577.2 L 486.4,577.4 L 486.1,578.0 L 486.1,578.1 L 486.0,578.2 L 485.9,578.5 L 485.9,578.6 L 485.7,578.8 L 485.5,579.1 L 485.4,579.2 L 485.0,579.6 L 484.9,579.7 L 484.5,579.9 L 484.3,580.1 L 483.8,580.4 L 483.7,580.4 L 483.5,580.5 L 483.5,580.5 L 483.2,580.6 L 483.2,580.7 L 482.8,580.8 L 482.7,580.8 L 481.7,580.7 L 481.5,580.7 L 480.5,580.3 L 480.5,580.3 L 480.4,580.2 L 480.1,580.1 L 480.0,580.1 L 479.4,579.8 L 479.2,579.7 L 477.8,579.2 L 477.8,579.2 L 477.7,579.1 L 477.6,579.1 L 477.5,579.0 L 477.4,579.0 L 477.3,579.0 L 477.2,578.9 L 476.9,578.8 L 476.8,578.7 L 476.5,578.7 L 476.2,578.9 L 475.9,579.1 L 475.7,579.4 L 475.6,579.8 L 475.6,580.3 L 475.7,580.7 L 475.8,581.0 L 476.1,581.3 L 476.5,581.6 L 476.6,581.7 L 477.3,582.2 L 477.4,582.2 L 478.0,582.5 L 478.1,582.6 L 478.4,582.7 L 478.4,582.7 L 478.6,582.8 L 479.2,583.3 L 479.3,583.4 L 479.7,583.5 L 479.8,583.6 L 480.2,583.9 L 480.3,583.9 L 480.6,584.1 L 480.7,584.1 L 481.1,584.3 L 481.2,584.3 L 481.5,584.4 L 481.5,584.5 L 481.8,584.6 L 482.0,584.7 L 482.0,584.7 L 482.4,584.9 L 482.5,585.0 L 483.9,585.6 L 484.1,585.6 L 484.4,585.7 L 484.4,585.7 L 485.5,586.0 L 485.6,586.0 L 486.0,586.1 L 486.1,586.1 L 486.2,586.2 L 486.4,586.2 L 486.8,586.3 L 486.9,586.3 L 487.1,586.3 L 487.1,586.3 L 488.6,586.7 L 488.8,586.7 L 489.0,586.8 L 489.0,586.8 L 489.4,586.8 L 489.5,586.8 L 489.6,586.8 L 489.7,586.8 L 489.8,586.9 L 489.8,586.9 L 489.9,586.9 L 490.0,586.9 L 490.0,586.9 L 490.0,586.9 L 491.1,587.0 L 491.1,587.0 L 491.2,587.0 L 491.2,587.0 L 491.7,587.1 L 491.8,587.1 L 493.3,587.1 L 493.4,587.1 L 493.6,587.2 L 493.8,587.2 L 494.1,587.1 L 494.1,587.1 L 494.4,587.1 L 494.5,587.1 L 494.6,587.1 L 494.6,587.1 L 495.8,587.1 L 495.9,587.1 L 497.2,586.8 L 497.3,586.8 L 499.1,586.1 L 499.1,586.1 L 499.2,586.1 L 499.6,586.2 L 499.8,586.3 L 499.9,586.4 L 500.0,586.6 L 500.0,586.7 L 500.1,586.7 L 500.2,586.9 L 500.2,586.9 L 500.2,587.0 L 500.3,587.1 L 500.4,587.6 L 500.5,587.6 L 500.5,587.9 L 500.6,588.0 L 500.6,588.1 L 500.6,588.2 L 500.6,588.3 L 500.6,588.3 L 500.6,588.3 L 500.8,589.1 L 500.8,589.3 L 500.7,590.1 L 500.7,590.3 L 500.6,590.5 L 500.5,590.7 L 500.4,591.0 L 500.4,591.0 L 500.3,591.2 L 500.2,591.2 L 500.2,591.3 L 499.7,591.9 L 499.6,592.1 L 499.3,592.4 L 499.3,592.5 L 499.1,592.9 L 499.0,592.9 L 499.0,593.0 L 498.8,593.2 L 498.6,593.4 L 498.5,593.4 L 498.4,593.5 L 498.2,593.6 L 498.2,593.6 L 498.1,593.7 L 498.0,593.7 L 497.8,593.8 L 497.7,593.8 L 497.4,593.9 L 497.3,593.9 L 497.2,593.9 L 497.0,594.0 L 496.9,594.0 L 494.8,593.9 L 494.7,593.9 L 494.6,593.9 L 494.5,593.9 L 494.3,593.8 L 494.3,593.8 L 492.2,593.3 L 492.2,593.2 L 490.3,592.8 L 490.3,592.8 L 489.8,592.7 L 489.8,592.7 L 489.7,592.6 L 489.5,592.6 L 489.2,592.5 L 489.1,592.5 L 488.8,592.4 L 488.7,592.3 L 488.2,592.2 L 487.9,592.2 L 487.5,592.3 L 487.2,592.6 L 487.0,593.0 L 486.9,593.4 L 486.9,593.9 L 486.9,593.9 L 487.1,594.3 L 487.2,594.6 L 487.4,595.0 L 487.4,595.0 L 487.4,595.1 L 487.6,595.8 L 487.6,596.0 L 487.6,596.9 L 487.6,597.0 L 487.6,597.1 L 487.6,597.2 L 487.6,597.5 L 487.6,597.6 L 487.4,598.1 L 487.4,598.2 L 487.3,598.4 L 487.3,598.6 L 487.2,598.9 L 487.1,599.0 L 486.9,599.7 L 486.8,599.7 L 486.8,599.9 L 486.7,600.0 L 486.5,600.2 L 486.4,600.3 L 486.1,600.8 L 486.1,600.9 L 485.7,601.5 L 485.7,601.6 L 485.7,601.6 L 485.5,601.9 L 485.5,602.1 L 393.5,628.9 L 416.7,518.1 L 420.0,514.3 L 447.3,519.4 Z" class="poly" fill="#a8c8b0" data-short="12N01E03R002M" data-ma="RD108" data-base-year="2001" data-end-year="2024" data-span="23" data-area="9,644" data-rms-wells="12N01E03R002M" data-sy="0.1000" data-sy-source="uniform 0.10" data-avg-dgwe="+0.04" data-cum-stor="+964" data-avg-rate="+42" data-critdry-share="65%" data-crit-share="48%" data-bucket-wet="+12,850" data-bucket-an="+1,897" data-bucket-bn="-6,041" data-bucket-dry="-2,194" data-bucket-critical="-5,546" data-hold="0" data-project="0" data-project-name="" data-coverage="+0" data-late="1"><title>Click for 12N01E03R002M detail</title></path>
<path d="M 485.1,828.0 L 485.0,828.2 L 484.9,828.4 L 484.7,828.7 L 484.7,828.8 L 484.7,828.9 L 484.6,829.0 L 484.6,829.3 L 484.6,829.3 L 484.5,829.4 L 484.5,829.5 L 484.4,829.8 L 484.4,829.9 L 484.3,830.2 L 484.3,830.6 L 484.4,831.1 L 484.4,831.2 L 484.4,831.6 L 484.4,831.8 L 484.4,832.0 L 484.4,832.3 L 484.3,832.6 L 484.3,832.7 L 483.9,833.6 L 483.9,833.6 L 483.7,834.2 L 483.5,834.5 L 483.5,834.5 L 483.5,834.7 L 483.5,834.8 L 483.4,835.1 L 483.4,835.2 L 483.4,835.2 L 483.3,835.2 L 483.2,835.5 L 483.2,835.8 L 483.2,835.9 L 483.2,836.1 L 483.2,836.7 L 483.2,836.8 L 483.2,837.1 L 483.2,837.4 L 483.2,837.7 L 483.2,837.7 L 483.0,838.2 L 483.0,838.4 L 482.9,838.8 L 482.9,839.0 L 482.8,839.4 L 482.8,839.4 L 482.8,839.7 L 482.8,839.9 L 482.8,840.0 L 482.7,840.4 L 482.7,840.7 L 482.7,840.8 L 482.7,841.1 L 482.7,841.2 L 482.6,841.4 L 482.6,841.6 L 482.4,842.0 L 482.3,842.1 L 482.3,842.1 L 482.0,842.2 L 481.8,842.2 L 481.8,842.2 L 481.0,842.4 L 481.0,842.4 L 480.6,842.5 L 480.4,842.5 L 480.0,842.7 L 479.9,842.7 L 479.6,842.8 L 479.5,842.8 L 479.4,842.8 L 479.4,842.8 L 478.8,843.0 L 478.8,843.0 L 478.5,843.0 L 478.2,843.1 L 477.9,843.3 L 477.7,843.6 L 477.7,843.6 L 477.7,843.6 L 477.2,844.0 L 477.0,844.2 L 477.0,844.2 L 476.8,844.4 L 476.5,844.6 L 476.5,844.6 L 476.4,844.7 L 475.9,845.0 L 475.9,845.0 L 475.4,845.5 L 475.4,845.5 L 475.2,845.6 L 475.1,845.7 L 475.0,845.8 L 474.8,846.0 L 474.7,846.2 L 474.6,846.6 L 474.5,846.7 L 474.5,847.0 L 474.4,847.1 L 474.4,847.2 L 474.2,847.6 L 474.2,848.1 L 474.2,848.3 L 474.2,848.4 L 474.2,848.5 L 474.2,848.9 L 474.2,848.9 L 474.2,849.5 L 474.2,849.6 L 474.2,849.9 L 474.2,850.1 L 474.2,850.2 L 474.1,850.3 L 474.1,850.4 L 474.1,850.5 L 474.0,850.5 L 473.7,850.8 L 473.5,850.9 L 473.1,851.0 L 473.0,851.0 L 473.0,851.0 L 472.7,850.9 L 472.6,850.9 L 472.6,850.8 L 472.4,850.7 L 472.2,850.6 L 471.9,850.2 L 471.9,850.1 L 471.5,849.3 L 471.5,849.3 L 471.2,848.6 L 471.1,848.5 L 471.0,848.2 L 470.8,848.0 L 470.7,848.0 L 470.4,847.8 L 470.0,847.7 L 469.6,847.9 L 469.3,848.1 L 469.1,848.5 L 469.1,848.6 L 468.9,848.9 L 468.9,849.0 L 468.7,849.3 L 468.7,849.4 L 468.6,849.5 L 468.5,849.6 L 468.3,849.8 L 468.2,849.8 L 467.9,850.0 L 467.7,850.2 L 467.6,850.3 L 467.5,850.5 L 467.0,851.1 L 467.0,851.2 L 466.5,851.9 L 466.5,851.9 L 466.1,852.5 L 466.1,852.6 L 465.3,853.5 L 465.2,853.5 L 465.0,853.8 L 464.8,854.0 L 464.6,854.4 L 464.5,854.4 L 464.1,855.2 L 464.0,855.3 L 463.5,855.8 L 463.5,855.8 L 462.7,856.6 L 462.7,856.6 L 462.2,857.1 L 462.1,857.1 L 461.9,857.4 L 461.8,857.4 L 461.2,858.2 L 461.2,858.2 L 460.4,859.1 L 459.7,859.9 L 459.6,860.0 L 459.0,860.4 L 458.5,860.7 L 458.5,860.7 L 458.4,860.8 L 458.3,860.8 L 458.3,860.9 L 458.1,860.9 L 458.1,861.0 L 457.9,861.2 L 457.8,861.3 L 457.7,861.5 L 457.3,861.8 L 457.3,861.9 L 457.2,861.9 L 457.2,862.0 L 457.1,862.0 L 457.1,862.0 L 456.9,862.2 L 456.8,862.3 L 456.7,862.5 L 456.6,862.6 L 456.6,862.7 L 456.4,862.7 L 456.2,862.7 L 456.1,862.7 L 455.7,862.8 L 454.7,863.5 L 454.7,863.5 L 454.4,863.6 L 454.4,863.6 L 454.1,863.8 L 454.1,863.8 L 453.7,863.9 L 453.7,863.9 L 453.1,864.1 L 453.0,864.1 L 452.8,864.2 L 452.2,864.3 L 452.0,864.4 L 451.8,864.4 L 451.1,864.8 L 451.0,864.8 L 450.7,865.0 L 450.6,865.0 L 450.4,865.1 L 450.3,865.1 L 450.3,865.1 L 450.2,865.1 L 450.2,865.0 L 450.3,863.9 L 450.6,862.2 L 450.6,861.8 L 450.2,857.3 L 450.1,856.9 L 450.0,856.6 L 449.7,856.3 L 448.5,855.3 L 448.4,855.2 L 448.1,855.0 L 448.0,855.0 L 445.3,852.9 L 445.3,852.9 L 444.6,852.3 L 444.5,852.3 L 444.3,852.1 L 444.1,852.0 L 439.3,848.4 L 439.3,848.4 L 439.3,848.3 L 438.1,833.6 L 438.0,833.2 L 437.8,832.8 L 437.5,832.5 L 437.1,832.4 L 434.8,832.0 L 434.7,831.9 L 431.5,831.9 L 431.5,831.9 L 431.4,831.8 L 430.6,828.9 L 429.8,826.1 L 429.7,826.1 L 428.5,821.6 L 428.4,821.3 L 423.6,811.4 L 423.5,811.4 L 423.6,811.3 L 424.6,810.8 L 424.9,810.6 L 425.1,810.3 L 425.3,809.9 L 425.3,809.4 L 425.2,809.0 L 425.1,808.6 L 417.1,796.3 L 417.1,796.3 L 415.5,793.4 L 458.0,771.9 L 485.1,828.0 Z" class="poly" fill="#f0d9a8" data-short="10N01E02Q002M" data-ma="Other" data-base-year="2001" data-end-year="2025" data-span="24" data-area="5,632" data-rms-wells="10N01E02Q002M" data-sy="0.1000" data-sy-source="uniform 0.10" data-avg-dgwe="-0.09" data-cum-stor="-1,211" data-avg-rate="-50" data-critdry-share="68%" data-crit-share="52%" data-bucket-wet="+687" data-bucket-an="+5,820" data-bucket-bn="-1,472" data-bucket-dry="-1,810" data-bucket-critical="-4,436" data-hold="50" data-project="0" data-project-name="" data-coverage="-50" data-late="1"><title>Click for 10N01E02Q002M detail</title></path>
<circle class="well" cx="259.8" cy="467.9" r="3.0"/>
<text class="label" x="288.5" y="457.1">07G00</text>
<circle class="well" cx="168.1" cy="412.2" r="3.0"/>
<text class="label" x="159.9" y="434.9">29J00</text>
<circle class="well" cx="465.0" cy="464.9" r="3.0"/>
<text class="label" x="471.7" y="480.3">11A00</text>
<circle class="well" cx="230.7" cy="372.6" r="3.0"/>
<text class="label" x="249.0" y="373.1">13N00</text>
<circle class="well" cx="282.0" cy="202.8" r="3.0"/>
<text class="label" x="331.3" y="217.7">05G00</text>
<circle class="well" cx="131.9" cy="261.7" r="3.0"/>
<text class="label" x="110.8" y="225.5">19E00</text>
<circle class="well" cx="459.5" cy="439.0" r="3.0"/>
<text class="label" x="449.8" y="401.2">35P00</text>
<circle class="well" cx="355.1" cy="498.8" r="3.0"/>
<text class="label" x="377.5" y="477.5">13P00</text>
<circle class="well" cx="367.9" cy="560.4" r="3.0"/>
<text class="label" x="369.9" y="591.5">06D00</text>
<circle class="well" cx="209.5" cy="381.3" r="3.0"/>
<text class="label" x="190.4" y="361.7">22A00</text>
<circle class="well" cx="103.8" cy="376.3" r="3.0"/>
<text class="label" x="43.2" y="318.0">14Q00</text>
<circle class="well" cx="300.2" cy="327.1" r="3.0"/>
<text class="label" x="369.1" y="299.5">04K00</text>
<circle class="well" cx="166.1" cy="507.0" r="3.0"/>
<text class="label" x="175.6" y="550.0">20H00</text>
<circle class="well" cx="234.5" cy="470.4" r="3.0"/>
<text class="label" x="233.6" y="453.8">12L00</text>
<circle class="well" cx="314.9" cy="518.2" r="3.0"/>
<text class="label" x="319.5" y="521.4">22P00</text>
<circle class="well" cx="120.1" cy="377.2" r="3.0"/>
<text class="label" x="144.7" y="355.1">24C00</text>
<circle class="well" cx="208.5" cy="489.1" r="3.0"/>
<text class="label" x="200.4" y="488.4">15J00</text>
<circle class="well" cx="279.6" cy="562.1" r="3.0"/>
<text class="label" x="276.0" y="610.2">05B00</text>
<circle class="well" cx="417.5" cy="741.0" r="3.0"/>
<text class="label" x="361.9" y="715.0">16P00</text>
<circle class="well" cx="518.9" cy="754.3" r="3.0"/>
<text class="label" x="579.2" y="706.2">20K00</text>
<circle class="well" cx="529.6" cy="841.8" r="3.0"/>
<text class="label" x="530.9" y="836.8">09N00</text>
<circle class="well" cx="464.5" cy="645.7" r="3.0"/>
<text class="label" x="510.1" y="639.3">26A00</text>
<circle class="well" cx="453.0" cy="683.6" r="3.0"/>
<text class="label" x="450.5" y="681.1">02D00</text>
<circle class="well" cx="497.5" cy="804.2" r="3.0"/>
<text class="label" x="496.9" y="824.1">06B00</text>
<circle class="well" cx="567.4" cy="824.0" r="3.0"/>
<text class="label" x="636.5" y="799.1">10N 03R00</text>
<circle class="well" cx="444.4" cy="576.5" r="3.0"/>
<text class="label" x="475.1" y="573.0">12N 03R00</text>
<circle class="well" cx="458.7" cy="823.0" r="3.0"/>
<text class="label" x="465.5" y="845.4">02Q00</text>
<g transform="translate(16,990)">
<rect class="legend-bg" x="-8" y="-22" width="675" height="86"/>
<text class="legend-title" x="0" y="-6">Polygon avg observed storage loss rate (AF/yr)</text>
<text class="legend-text" x="0" y="9" font-style="italic" font-size="9.5" fill="#5b5547">light green = gaining storage  ·  oranges → reds = loss magnitude per year</text>
<rect x="11.0" y="18" width="60" height="18" fill="#a8c8b0" stroke="#332e22" stroke-width="0.4"/>
<text class="legend-text" x="41.0" y="48" text-anchor="middle">Gaining</text>
<rect x="93.0" y="18" width="60" height="18" fill="#f0d9a8" stroke="#332e22" stroke-width="0.4"/>
<text class="legend-text" x="123.0" y="48" text-anchor="middle">Loss < 250</text>
<rect x="175.0" y="18" width="60" height="18" fill="#e3a76f" stroke="#332e22" stroke-width="0.4"/>
<text class="legend-text" x="205.0" y="48" text-anchor="middle">Loss < 750</text>
<rect x="257.0" y="18" width="60" height="18" fill="#cb7740" stroke="#332e22" stroke-width="0.4"/>
<text class="legend-text" x="287.0" y="48" text-anchor="middle">Loss < 1,500</text>
<rect x="339.0" y="18" width="60" height="18" fill="#a84a2c" stroke="#332e22" stroke-width="0.4"/>
<text class="legend-text" x="369.0" y="48" text-anchor="middle">Loss < 2,500</text>
<rect x="421.0" y="18" width="60" height="18" fill="#7c2820" stroke="#332e22" stroke-width="0.4"/>
<text class="legend-text" x="451.0" y="48" text-anchor="middle">Loss ≥ 2,500</text>
<circle cx="508" cy="22" r="3"/>
<text class="legend-text" x="518" y="26">Proposed 2027 RMS well</text>
</g>
</svg>